<svg width="158" height="124" viewBox="0 0 158 124" fill="none" xmlns="http://www.w3.org/2000/svg">
<g id="Group">
<rect id="Rectangle" x="17.0401" y="9.53223" width="98.8307" height="36.4008" rx="18.2004" fill="#282A3A"/>
<path id="Path" d="M97.6704 44.7041H39.2301C37.9112 44.7041 36.5922 44.7041 35.2733 44.7041C32.9593 44.7041 30.5112 44.223 28.4771 43.3115C25.8623 42.1696 23.5749 40.3913 21.8234 38.1387C20.9834 37.028 20.2698 35.8271 19.6961 34.5582C19.4327 33.9492 19.2037 33.3258 19.0104 32.691C18.7975 31.9863 18.6275 31.2693 18.5015 30.544C18.033 27.7058 18.2856 24.7954 19.2362 22.0804C19.702 20.7598 20.3309 19.5026 21.1083 18.3379C21.4621 17.7904 21.8536 17.2682 22.28 16.7751C22.7568 16.2176 23.2667 15.6891 23.8068 15.1927C25.8831 13.2983 28.397 11.9488 31.1233 11.2652C32.5508 10.9067 34.0192 10.7372 35.4909 10.7612H97.6508C98.6012 10.759 99.5502 10.8345 100.488 10.987C101.236 11.1163 101.974 11.2929 102.699 11.5156C103.331 11.7074 103.95 11.9357 104.555 12.1996C105.209 12.4958 105.845 12.8308 106.46 13.2028C106.775 13.3937 107.084 13.5939 107.388 13.8033C107.53 13.9015 107.671 14.0013 107.81 14.1044C108.016 14.255 108.014 14.255 108.127 14.345C110.373 16.1059 112.143 18.4005 113.275 21.02C113.275 21.0331 113.367 21.2327 113.307 21.0887C113.341 21.1689 113.374 21.2524 113.406 21.3326C113.47 21.4962 113.534 21.6598 113.593 21.8235C113.722 22.1753 113.838 22.5321 113.945 22.8921C114.153 23.5984 114.317 24.3172 114.436 25.044C114.499 25.422 114.511 25.5104 114.552 25.9309C114.593 26.3515 114.619 26.7492 114.63 27.1664C114.653 27.9051 114.631 28.6445 114.565 29.3805C114.422 30.7858 114.11 32.1688 113.635 33.4994C112.196 37.4646 109.335 40.7537 105.607 42.7289C103.161 44.0239 100.435 44.6983 97.6671 44.6926C96.088 44.6926 96.0847 47.1473 97.6671 47.1473C104.007 47.1107 109.94 44.0153 113.596 38.8358C117.196 33.74 118.091 26.8899 115.912 21.0429C113.732 15.1959 108.851 10.6401 102.832 8.98731C100.5 8.34583 98.1532 8.29347 95.7656 8.29347H35.4664C30.6013 8.26877 25.8985 10.0415 22.2603 13.2715C17.6292 17.4149 15.1991 23.7676 15.9437 29.932C16.6948 36.1505 20.3768 41.7438 25.8883 44.7646C28.6737 46.2876 31.7882 47.1088 34.9623 47.1571H36.1078H97.6704C99.2496 47.1587 99.2512 44.7041 97.6704 44.7041Z" fill="#282A3A"/>
<rect id="Rectangle_2" x="1.63477" y="9.53223" width="98.8307" height="36.4008" rx="18.2004" fill="#81E2D2"/>
<path id="Path_2" d="M82.2683 44.7041H23.8215C22.5026 44.7041 21.1836 44.7041 19.8646 44.7041C17.5507 44.7041 15.1026 44.223 13.0685 43.3115C10.4537 42.1696 8.16622 40.3913 6.41479 38.1387C5.57472 37.028 4.86119 35.8271 4.28742 34.5582C4.02402 33.9492 3.79511 33.3258 3.60176 32.691C3.38883 31.9863 3.21887 31.2693 3.09283 30.544C2.62348 27.7059 2.87616 24.7952 3.82759 22.0804C4.29334 20.7598 4.92223 19.5026 5.69966 18.3379C6.05347 17.7904 6.44498 17.2682 6.87135 16.7751C7.34775 16.2172 7.85762 15.6887 8.39814 15.1927C10.4744 13.2983 12.9884 11.9488 15.7146 11.2652C17.1426 10.9059 18.6116 10.7359 20.0839 10.7596H82.2389C83.1893 10.7573 84.1383 10.8329 85.0765 10.9854C85.8238 11.1147 86.5622 11.2912 87.2873 11.514C87.9209 11.706 88.5427 11.935 89.1495 12.1996C89.8039 12.4958 90.4399 12.8308 91.0543 13.2028C91.3702 13.3942 91.6778 13.5939 91.9822 13.8033C92.1229 13.9015 92.2653 14.0013 92.4044 14.1044C92.6106 14.255 92.6089 14.255 92.7219 14.345C94.9672 16.1063 96.7369 18.4008 97.8701 21.02C97.8701 21.0331 97.9617 21.2327 97.9012 21.0887C97.9355 21.1689 97.9683 21.2524 98.001 21.3326C98.0648 21.4962 98.127 21.6598 98.1875 21.8235C98.3168 22.1753 98.433 22.5321 98.5394 22.8921C98.7477 23.5984 98.9117 24.3172 99.0303 25.044C99.0925 25.422 99.1056 25.5104 99.1465 25.9309C99.1874 26.3515 99.2136 26.7492 99.225 27.1664C99.2474 27.9051 99.2256 28.6445 99.1596 29.3805C99.0163 30.7858 98.7042 32.1688 98.2301 33.4994C96.7884 37.4635 93.9279 40.752 90.2018 42.7289C87.7559 44.0239 85.0293 44.6983 82.2618 44.6926C80.6826 44.6926 80.6794 47.1473 82.2618 47.1473C88.6019 47.1107 94.5342 44.0153 98.1908 38.8358C101.791 33.74 102.686 26.8899 100.506 21.0429C98.3266 15.1959 93.4435 10.6401 87.4264 8.98731C85.0945 8.34583 82.7478 8.29347 80.3603 8.29347H20.0561C15.1911 8.26877 10.4882 10.0415 6.85008 13.2715C2.22388 17.4035 -0.20622 23.7561 0.538357 29.9206C1.28948 36.139 4.97145 41.7323 10.483 44.7532C13.2678 46.2759 16.3817 47.0971 19.5553 47.1456H20.7008H82.2683C83.8442 47.1587 83.8459 44.7041 82.2683 44.7041Z" fill="#81E2D2"/>
<rect id="Rectangle_3" x="6.94171" y="13.9244" width="88.2168" height="27.6148" rx="13.8074" fill="#EAC36E"/>
<path id="Path_3" d="M81.3503 40.5573H20.7843C17.1605 40.5719 13.6998 39.052 11.2588 36.3736C8.81779 33.6953 7.6245 30.1089 7.97429 26.502C8.4194 21.4389 12.0948 16.9632 16.9567 15.4741C18.7829 14.9144 20.5454 14.9062 22.4387 14.9062H79.2556C80.7432 14.9062 82.2863 14.8473 83.6953 15.1173C88.8324 16.1057 92.8701 20.0879 93.9295 25.2108C94.9621 30.2412 92.7202 35.6087 88.4295 38.4299C86.3279 39.8147 83.8671 40.5542 81.3503 40.5573C80.087 40.5573 80.0837 42.521 81.3503 42.521C87.0009 42.4965 92.3422 39.1827 94.7314 34.0296C97.1649 28.7603 96.3292 22.5589 92.5877 18.1218C89.755 14.7753 85.5248 12.9425 81.167 12.9425H20.9316C16.5917 12.9425 12.3845 14.7589 9.54853 18.0776C5.79042 22.4999 4.9311 28.6976 7.34426 33.9756C9.69581 39.1041 15.0028 42.4687 20.6255 42.521C21.6418 42.5308 22.658 42.521 23.6742 42.521H81.3503C82.6136 42.521 82.6152 40.5573 81.3503 40.5573Z" fill="#EAC36E"/>
<g id="Group_2">
<rect id="Rectangle_4" x="20.1935" y="21.1885" width="58.5368" height="13.0849" rx="6.54246" fill="#282A3A"/>
<path id="Path_4" d="M72.1879 33.0478H26.6525C26.5303 33.0478 26.4076 33.0429 26.2843 33.0331C26.2156 33.0331 25.9767 32.9676 25.921 32.9987C26.0225 32.9431 26.178 33.0363 25.9685 32.9987L25.8049 32.9692C25.7018 32.9496 25.597 32.9267 25.4939 32.9021C25.2644 32.8464 25.0382 32.7775 24.8164 32.696L24.6708 32.6419C24.463 32.5618 24.6806 32.583 24.7117 32.66C24.6954 32.619 24.4793 32.5519 24.4319 32.529C24.2241 32.4243 24.0228 32.3098 23.8264 32.1854C23.7413 32.1297 23.6562 32.0725 23.5711 32.0136L23.4468 31.9236C23.2667 31.7943 23.5138 31.9628 23.5138 31.9743C23.5138 31.9416 23.3077 31.8025 23.2782 31.7779C23.1817 31.6928 23.0884 31.6143 22.9984 31.5161C22.8347 31.3623 22.6989 31.2003 22.5582 31.035C22.3634 30.8075 22.6874 31.2248 22.5124 30.981C22.4387 30.8762 22.3651 30.7715 22.2947 30.6651C22.1762 30.4814 22.067 30.2919 21.9674 30.0973C21.92 30.004 21.8774 29.9107 21.8316 29.8175C21.7645 29.68 21.8774 29.7864 21.8627 29.896C21.8627 29.8436 21.7956 29.7324 21.7776 29.6784C21.6425 29.2517 21.5332 28.8172 21.4503 28.3774C21.5338 28.7194 21.4503 28.4101 21.4503 28.3038C21.4503 28.1974 21.4339 28.0861 21.429 27.9765C21.4208 27.7572 21.429 27.5363 21.4372 27.3219C21.4454 27.1992 21.4585 27.0781 21.4699 26.957C21.4863 26.7933 21.429 27.209 21.4601 27.0437C21.4683 26.9913 21.4765 26.939 21.4863 26.8801C21.5277 26.6459 21.5823 26.4142 21.65 26.1862C21.6827 26.0733 21.7203 25.9604 21.7596 25.8508C21.7809 25.7902 21.884 25.6184 21.8709 25.5595C21.8709 25.5791 21.7465 25.8328 21.8398 25.638L21.9069 25.4973C21.9625 25.3811 22.0214 25.2665 22.0852 25.1536C22.1851 24.9753 22.2947 24.8002 22.4125 24.6316C22.4583 24.5645 22.5762 24.4582 22.5942 24.3829C22.5631 24.5154 22.4518 24.5563 22.5451 24.45C22.5942 24.3927 22.6433 24.3321 22.694 24.2749C22.8371 24.1113 22.9884 23.9551 23.1473 23.8069C23.2226 23.7381 23.2995 23.6694 23.3764 23.6039C23.4157 23.5696 23.4566 23.5401 23.4942 23.5057C23.2651 23.6694 23.5793 23.4288 23.4942 23.5057C23.8624 23.2464 24.2516 23.0181 24.6577 22.8234C24.7952 22.7563 24.6888 22.8692 24.5792 22.8544C24.6292 22.8409 24.6775 22.8217 24.7232 22.7972C24.8214 22.7595 24.9195 22.7235 25.0177 22.6908C25.2434 22.6169 25.4728 22.5552 25.705 22.5059C25.8081 22.4846 25.9129 22.4666 26.0176 22.447C26.2303 22.4077 25.9587 22.4568 25.9309 22.4568C25.9832 22.4568 26.0389 22.4437 26.0945 22.4388C26.3121 22.4175 26.5298 22.4077 26.7491 22.4061H72.1846H72.3941C72.5021 22.4061 72.6117 22.4159 72.7214 22.4257C72.7759 22.4257 72.8305 22.4306 72.885 22.4404C73.1338 22.4666 72.8736 22.4748 72.8392 22.4322C72.9543 22.4664 73.0728 22.4873 73.1927 22.4944C73.2958 22.5157 73.3989 22.5403 73.5019 22.5664C73.7304 22.625 73.9555 22.696 74.1762 22.7792C74.2171 22.7955 74.3185 22.8577 74.3578 22.8512C74.3365 22.8512 74.0845 22.7268 74.2776 22.8201C74.3709 22.8659 74.4658 22.9085 74.5574 22.9559C74.7639 23.0615 74.9644 23.1784 75.158 23.3061C75.2431 23.3617 75.3217 23.4207 75.41 23.4796C75.4477 23.5149 75.4895 23.5457 75.5344 23.5712C75.4002 23.5417 75.3593 23.4305 75.4657 23.5221C75.6408 23.6743 75.8142 23.8232 75.9762 23.9869C76.1382 24.1505 76.2642 24.3141 76.4115 24.4778C76.5179 24.5972 76.2692 24.2814 76.3608 24.4107C76.3903 24.4532 76.4213 24.4942 76.4524 24.5351C76.5261 24.6398 76.5981 24.7462 76.6668 24.8542C76.783 25.0391 76.891 25.2305 76.9941 25.4269C77.0137 25.4646 77.0906 25.6953 77.1266 25.7067C77.1136 25.7067 77.0121 25.4204 77.0923 25.6298C77.1201 25.7018 77.1496 25.7755 77.1757 25.8491C77.2464 26.0467 77.307 26.2477 77.3574 26.4513C77.3836 26.5528 77.4065 26.6575 77.4277 26.7606C77.449 26.8637 77.4818 27.2843 77.4605 26.9095C77.5002 27.3447 77.5111 27.782 77.4932 28.2187C77.4932 28.2858 77.4818 28.3545 77.4752 28.4216C77.4687 28.4887 77.4654 28.6491 77.4752 28.4576C77.485 28.2661 77.4752 28.4412 77.4752 28.4936C77.4752 28.546 77.4572 28.5983 77.4474 28.6572C77.4021 28.8904 77.3442 29.1209 77.2739 29.3478C77.2379 29.4607 77.2003 29.572 77.1594 29.6751C77.1414 29.7242 77.1234 29.7733 77.1037 29.8207C77.0415 29.9844 77.0841 29.7651 77.1381 29.7438C77.0956 29.7602 77.0285 29.9778 77.0055 30.0253C76.9483 30.1398 76.8861 30.2528 76.8223 30.3657C76.7208 30.544 76.6095 30.7159 76.495 30.8844C76.4655 30.9253 76.4344 30.9662 76.405 31.0088C76.2757 31.1888 76.4443 30.9433 76.4557 30.9433C76.4164 30.9433 76.243 31.1953 76.2086 31.2346C76.063 31.3983 75.9091 31.5504 75.7488 31.6977C75.6735 31.7665 75.5949 31.8319 75.5164 31.899C75.3904 32.007 75.3838 31.9137 75.5557 31.8745C75.5107 31.9 75.469 31.9308 75.4313 31.9661C75.0977 32.2078 74.7421 32.4176 74.3693 32.5929C74.33 32.6125 74.1123 32.6714 74.3038 32.6256C74.4953 32.5798 74.3202 32.6256 74.2694 32.6387C74.1729 32.6747 74.0747 32.7123 73.9765 32.745C73.7638 32.817 73.5494 32.876 73.3301 32.9267C73.227 32.9496 73.1223 32.9709 73.0176 32.9889C72.9623 32.9916 72.9075 32.9999 72.8539 33.0134C72.8997 32.9611 73.1157 32.984 72.9407 33.002C72.6952 33.0265 72.4497 33.0412 72.2059 33.0429C71.5644 33.0429 70.9491 33.6042 70.9786 34.2702C70.9899 34.9433 71.5328 35.4861 72.2059 35.4975C76.4988 35.4975 79.9789 32.0174 79.9789 27.7245C79.9789 23.4315 76.4988 19.9514 72.2059 19.9514C71.5513 19.9514 70.8837 19.9514 70.2225 19.9514H26.8489C25.6747 19.9509 24.5141 20.202 23.4451 20.6878C21.5567 21.5518 20.1297 23.2046 19.4162 25.1275C18.6847 27.0912 18.8762 29.3216 19.7828 31.1953C20.7076 33.0422 22.3244 34.449 24.2813 35.1097C25.4776 35.5204 26.6967 35.5073 27.9355 35.5073H72.1879C72.8294 35.5073 73.4447 34.9428 73.4152 34.28C73.4065 33.605 72.8628 33.0592 72.1879 33.0478Z" fill="#282A3A"/>
<path id="Path_5" d="M82.0575 41.7521H19.963C15.9552 41.7559 12.1373 40.0446 9.47332 37.0504C6.80932 34.0561 5.55385 30.065 6.0239 26.0849C6.64738 20.593 10.6615 15.8604 15.9489 14.2911C17.8553 13.7265 19.7585 13.7118 21.7124 13.7118H80.1101C81.8955 13.7118 83.6513 13.6824 85.4072 14.1144C90.8028 15.4763 94.9004 19.8723 95.8804 25.3501C96.8361 30.8273 94.3323 36.504 89.662 39.5134C87.3934 40.9703 84.7551 41.7471 82.0591 41.7521C81.4274 41.7521 81.4258 42.7339 82.0591 42.7339C87.7326 42.7094 93.0526 39.4333 95.5417 34.3145C98.0302 29.1375 97.3755 22.9982 93.8512 18.4624C90.9924 14.8131 86.5593 12.7349 81.9413 12.7349H20.1414C15.7819 12.7349 11.5812 14.5349 8.68637 17.8258C4.89798 22.1284 3.89337 28.2141 6.09791 33.5061C8.30245 38.798 13.3305 42.3705 19.0532 42.711C20.269 42.7863 21.5078 42.7389 22.7204 42.7389H82.0575C82.6891 42.7339 82.6908 41.7521 82.0575 41.7521Z" fill="#282A3A"/>
<path id="Path_6" d="M8.49631 27.7326C8.49587 23.8839 10.0244 20.1928 12.7457 17.4712C15.4669 14.7497 19.1579 13.2207 23.0066 13.2207H19.9513C11.9366 13.2207 5.43945 19.7179 5.43945 27.7326C5.43945 31.5812 6.96843 35.2722 9.68998 37.9935C12.4115 40.7147 16.1027 42.2433 19.9513 42.2428H23.0066C19.1582 42.2428 15.4675 40.7141 12.7463 37.9929C10.0251 35.2717 8.49631 31.5809 8.49631 27.7326Z" fill="#282A3A"/>
<path id="Path_7" d="M8.98725 27.7327C8.98246 24.0129 10.4579 20.4441 13.088 17.8137C15.7182 15.1832 19.2868 13.7074 23.0066 13.7117C23.6382 13.7117 23.6382 12.7299 23.0066 12.7299H20.0004C11.8914 12.6969 5.22403 19.1141 4.94702 27.2185C4.67002 35.3229 10.8836 42.1803 18.976 42.7011C20.1821 42.7813 21.4012 42.7339 22.6089 42.7339H23.0066C23.6382 42.7339 23.6382 41.752 23.0066 41.752C19.2867 41.7577 15.7175 40.2824 13.0872 37.6521C10.4568 35.0217 8.98159 31.4526 8.98725 27.7327C8.98725 27.101 8.00539 27.0994 8.00539 27.7327C8.00589 30.8395 8.96984 33.8697 10.7644 36.4058C12.5271 38.8767 14.9901 40.7623 17.8354 41.8191C19.4916 42.4272 21.2422 42.738 23.0066 42.7371V41.7553H20.0315C16.4968 41.7827 13.0835 40.4673 10.4813 38.0749C6.29016 34.2325 4.83053 28.2415 6.78461 22.9019C7.40632 21.2228 8.34088 19.6769 9.53873 18.3461C12.0064 15.6008 15.4606 13.944 19.1462 13.7379C20.3015 13.6741 21.4667 13.715 22.6236 13.715H23.0066V12.7331C19.0271 12.731 15.2099 14.311 12.3962 17.1251C9.58237 19.9391 8.00278 23.7564 8.00539 27.7359C8.00375 28.3643 8.98561 28.3643 8.98725 27.7327Z" fill="#282A3A"/>
<rect id="Rectangle_5" x="64.7438" y="20.7761" width="18.8632" height="13.9129" rx="6.95647" fill="#282A3A"/>
<path id="Path_8" d="M76.6488 33.4601H71.9931C71.5732 33.4661 71.1534 33.4442 70.7364 33.3946L71.0636 33.4388C70.4635 33.3536 69.8767 33.1919 69.3176 32.9577L69.6105 33.0821C69.2056 32.9097 68.8177 32.6999 68.4519 32.4553C68.3553 32.3899 68.2621 32.3228 68.1672 32.2541C68.0035 32.1362 68.411 32.4504 68.2457 32.3162L68.1213 32.2148C67.9577 32.079 67.794 31.9333 67.6484 31.7828C67.5028 31.6322 67.3522 31.4735 67.2164 31.3098L67.1149 31.1855C66.9775 31.0218 67.3048 31.4407 67.1771 31.264C67.1133 31.1773 67.0511 31.0905 66.9906 31.0022C66.7399 30.6295 66.5251 30.2339 66.3491 29.8207L66.4734 30.1136C66.2393 29.5545 66.0776 28.9677 65.9923 28.3675L66.0365 28.6948C65.9498 28.0557 65.9498 27.4078 66.0365 26.7687L65.9923 27.096C66.0776 26.4959 66.2393 25.9091 66.4734 25.3499L66.3491 25.6429C66.5218 25.2382 66.7316 24.8503 66.9758 24.4843C67.0413 24.3877 67.1084 24.2944 67.1771 24.1995C67.2949 24.0359 66.9807 24.4434 67.1149 24.2781L67.2164 24.1537C67.3522 23.9901 67.4979 23.8264 67.6484 23.6808C67.799 23.5351 67.9577 23.3862 68.1213 23.2488L68.2457 23.1473C68.4093 23.0098 67.9904 23.3371 68.1672 23.2095C68.2539 23.1473 68.3406 23.0835 68.429 23.0229C68.8017 22.7723 69.1973 22.5575 69.6105 22.3815L69.3176 22.5058C69.8764 22.2694 70.4632 22.1055 71.0636 22.0182L70.7364 22.0623C71.5546 21.9527 72.3957 21.9969 73.2172 21.9969H76.279C76.7239 21.9893 77.1689 22.0111 77.611 22.0623L77.2837 22.0182C77.8843 22.1065 78.4712 22.2714 79.0298 22.5091L78.7369 22.3847C79.1423 22.5571 79.5307 22.7669 79.8971 23.0115C79.9937 23.0769 80.0869 23.144 80.1802 23.2128C80.3439 23.3306 79.9364 23.0164 80.1017 23.1506L80.226 23.252C80.3897 23.3895 80.5533 23.5335 80.7006 23.6841C80.8479 23.8346 80.9951 23.9933 81.1326 24.157C81.167 24.1979 81.1997 24.2404 81.2324 24.2814C81.3715 24.445 81.0442 24.0261 81.1719 24.2028C81.2341 24.2895 81.2979 24.3763 81.3568 24.4646C81.6075 24.8373 81.8222 25.2329 81.9983 25.6461L81.8756 25.3532C82.1085 25.9098 82.2696 26.4938 82.355 27.0911L82.3125 26.7638C82.3976 27.403 82.3976 28.0507 82.3125 28.6899L82.355 28.3626C82.2703 28.9627 82.1092 29.5495 81.8756 30.1087L81.9983 29.8158C81.8265 30.2206 81.6172 30.6085 81.3732 30.9744C81.3077 31.0709 81.239 31.1642 81.1719 31.2591C81.0541 31.4227 81.3683 31.0153 81.2324 31.1806L81.1326 31.3049C80.9951 31.4686 80.8511 31.6322 80.7006 31.7778C80.55 31.9235 80.3913 32.074 80.226 32.2099L80.1017 32.3113C79.938 32.4488 80.3586 32.1215 80.1802 32.2491C80.0935 32.3113 80.0166 32.3751 79.9184 32.4357C79.5461 32.687 79.1504 32.9018 78.7369 33.0772L79.0298 32.9528C78.4712 33.187 77.885 33.3486 77.2854 33.4339L77.6126 33.3897C77.2937 33.4328 76.9723 33.4547 76.6504 33.4552C76.0089 33.4552 75.3936 34.0181 75.4231 34.6825C75.4345 35.3556 75.9774 35.8985 76.6504 35.9098C79.0232 35.9017 81.3961 34.8462 82.9032 32.9986C83.6959 32.0538 84.2693 30.9449 84.5822 29.7519C84.8833 28.5307 84.9079 27.2577 84.6542 26.0258C84.1579 23.6963 82.6731 21.6979 80.586 20.5503C79.4864 19.9597 78.2687 19.6225 77.0219 19.5635C76.5768 19.539 76.1284 19.5537 75.6849 19.5537H71.782C69.604 19.5447 67.5095 20.3915 65.9498 21.9118C64.2378 23.604 63.3579 25.9643 63.5442 28.3643C63.7291 30.8568 65.0493 33.1262 67.1247 34.5189C68.0669 35.17 69.1416 35.6042 70.2716 35.7904C70.9217 35.8853 71.5784 35.9285 72.2353 35.9197H76.6406C77.2821 35.9197 77.8974 35.3567 77.8679 34.6923C77.8593 34.0205 77.3205 33.4759 76.6488 33.4601Z" fill="#282A3A"/>
</g>
<circle id="Oval" cx="71.7363" cy="27.7326" r="6.99411" fill="#ED7A7A"/>
<path id="Path_9" d="M77.503 27.7326C77.5017 28.0544 77.4798 28.3758 77.4376 28.6948L77.4801 28.3675C77.3958 28.9675 77.2352 29.5543 77.0023 30.1136L77.1267 29.8207C76.9509 30.2342 76.7367 30.6303 76.4868 31.0038C76.4279 31.0938 76.3657 31.1805 76.3019 31.2673C76.2381 31.354 76.1055 31.4931 76.3641 31.1887L76.2626 31.3131C76.1219 31.4849 75.9713 31.6502 75.8142 31.804C75.6571 31.9578 75.4869 32.1117 75.3233 32.254C75.2955 32.2769 75.2284 32.3539 75.1989 32.3539C75.2464 32.3539 75.4706 32.1477 75.2759 32.2917C75.1908 32.3555 75.1024 32.4177 75.014 32.4782C74.6403 32.7272 74.2442 32.9409 73.8309 33.1164L74.1238 32.9921C73.5631 33.2265 72.9746 33.3882 72.3728 33.4732L72.7001 33.429C72.0609 33.5141 71.4132 33.5141 70.774 33.429L71.1013 33.4732C70.5012 33.3885 69.9144 33.2273 69.3552 32.9937L69.6482 33.1181C69.2343 32.9425 68.8377 32.7289 68.4634 32.4799C68.375 32.4193 68.2883 32.3571 68.2016 32.2933C68.1148 32.2295 67.9741 32.0969 68.2801 32.3555C68.2392 32.3211 68.1966 32.2884 68.1541 32.2557C67.9905 32.1133 67.8268 31.9628 67.6632 31.8057C67.4995 31.6486 67.3555 31.4784 67.2131 31.3147C67.1902 31.2869 67.1133 31.2215 67.1117 31.1904C67.1117 31.2378 67.3179 31.4636 67.1739 31.2689C67.1101 31.1822 67.0495 31.0954 66.989 31.0054C66.739 30.6323 66.5253 30.2361 66.3507 29.8223L66.4735 30.1152C66.2414 29.5556 66.0808 28.969 65.9956 28.3691L66.0398 28.6964C65.9531 28.0573 65.9531 27.4095 66.0398 26.7704L65.9956 27.0976C66.0806 26.4972 66.2411 25.91 66.4735 25.3499L66.3507 25.6429C66.5253 25.229 66.739 24.8329 66.989 24.4597C67.0495 24.3697 67.1101 24.283 67.1739 24.1962C67.2377 24.1095 67.3702 23.9704 67.1117 24.2748C67.1477 24.2339 67.1788 24.1913 67.2131 24.1504C67.3555 23.9868 67.5044 23.8133 67.6632 23.6595C67.8219 23.5057 67.9905 23.3518 68.1541 23.2095C68.1819 23.1866 68.249 23.1097 68.2801 23.1097C68.231 23.1097 68.0068 23.3158 68.2016 23.1718C68.2883 23.108 68.375 23.0458 68.4634 22.9853C68.8377 22.7363 69.2343 22.5226 69.6482 22.3471L69.3552 22.4714C69.9144 22.2378 70.5012 22.0767 71.1013 21.992L70.774 22.0362C71.4132 21.9511 72.0609 21.9511 72.7001 22.0362L72.3728 21.992C72.9734 22.0767 73.5608 22.2378 74.1205 22.4714L73.8276 22.3471C74.2409 22.5226 74.637 22.7363 75.0107 22.9853C75.0991 23.0458 75.1875 23.108 75.2726 23.1718C75.3577 23.2357 75.5 23.3682 75.1957 23.1097C75.2349 23.144 75.2791 23.1767 75.32 23.2095C75.4919 23.3518 75.6571 23.5024 75.811 23.6595C75.9648 23.8166 76.1186 23.9868 76.2593 24.1504C76.2823 24.1782 76.3592 24.2437 76.3608 24.2748C76.3608 24.2273 76.1546 24.0031 76.2986 24.1962C76.3624 24.283 76.4246 24.3697 76.4835 24.4597C76.7334 24.8332 76.9476 25.2293 77.1234 25.6429L76.999 25.3499C77.2327 25.9075 77.3944 26.4926 77.4801 27.0911L77.4376 26.7638C77.4798 27.0834 77.5017 27.4053 77.503 27.7277C77.503 28.3691 78.066 28.9844 78.7304 28.955C79.4034 28.9436 79.9463 28.4007 79.9577 27.7277C79.9591 26.0503 79.4449 24.4131 78.4849 23.0377C77.4882 21.6327 76.0875 20.5642 74.4691 19.9743C71.3337 18.8287 67.5748 19.8466 65.4573 22.4289C64.3453 23.7691 63.6754 25.4205 63.5394 27.1566C63.2957 30.5499 65.1738 33.7409 68.2588 35.1751C69.8777 35.9119 71.6872 36.1214 73.4316 35.774C76.6455 35.1325 79.3227 32.3784 79.8251 29.1317C79.9022 28.6692 79.9443 28.2015 79.9511 27.7326C79.9511 27.0895 79.3849 26.4742 78.7238 26.5053C78.0533 26.5201 77.5143 27.062 77.503 27.7326Z" fill="#ED7A7A"/>
<g id="Group_3">
<path id="Path_10" d="M102.017 46.8919H18.4818C17.3527 46.8919 16.2236 46.8739 15.0944 46.8919H14.9471C14.2693 46.8919 13.7198 47.4414 13.7198 48.1192C13.7198 48.7971 14.2693 49.3466 14.9471 49.3466H98.4821C99.6096 49.3466 100.74 49.3646 101.868 49.3466H102.017C102.695 49.3466 103.244 48.7971 103.244 48.1192C103.244 47.4414 102.695 46.8919 102.017 46.8919Z" fill="#282A3A"/>
<path id="Path_11" d="M138.562 93.7872H55.0201C53.8909 93.7872 52.7618 93.7692 51.6327 93.7872H51.4854C50.8075 93.7872 50.2581 94.3367 50.2581 95.0145C50.2581 95.6923 50.8075 96.2418 51.4854 96.2418H135.02C136.148 96.2418 137.279 96.2582 138.406 96.2418H138.555C139.233 96.2418 139.782 95.6923 139.782 95.0145C139.782 94.3367 139.233 93.7872 138.555 93.7872H138.562Z" fill="#282A3A"/>
<rect id="Rectangle_6" x="57.5271" y="56.3784" width="98.8307" height="36.4008" rx="18.2004" fill="#282A3A"/>
<path id="Path_12" d="M138.156 91.5518H79.7122C78.3933 91.5518 77.0759 91.5518 75.757 91.5518C73.443 91.5518 70.9949 91.0707 68.9609 90.1592C66.3458 89.016 64.0576 87.238 62.3038 84.9864C61.464 83.875 60.7505 82.6736 60.1765 81.4043C59.9134 80.7959 59.685 80.173 59.4925 79.5387C59.2789 78.8342 59.109 78.1172 58.9835 77.3917C58.5142 74.553 58.7669 71.6419 59.7183 68.9265C60.1837 67.6057 60.8126 66.3484 61.5904 65.184C61.9436 64.6366 62.3352 64.1149 62.7621 63.6228C63.2384 63.0649 63.7483 62.5364 64.2888 62.0404C66.3647 60.1454 68.8788 58.7958 71.6053 58.1129C73.0322 57.7538 74.5001 57.5838 75.9713 57.6073H138.134C139.085 57.6058 140.034 57.6814 140.972 57.8331C141.719 57.9637 142.457 58.1408 143.181 58.3633C143.816 58.5568 144.438 58.7879 145.045 59.0555C145.699 59.352 146.335 59.687 146.95 60.0586C147.264 60.2485 147.573 60.4498 147.876 60.6592C148.019 60.7574 148.159 60.8572 148.298 60.9603C148.505 61.1109 148.505 61.1109 148.626 61.2009C150.87 62.9624 152.64 65.2562 153.774 67.8742C153.774 67.889 153.866 68.0886 153.805 67.943C153.839 68.0248 153.872 68.1066 153.903 68.1868C153.969 68.3504 154.031 68.5141 154.091 68.6777C154.219 69.0312 154.336 69.3879 154.443 69.748C154.65 70.4547 154.814 71.1733 154.934 71.8999C154.996 72.2763 155.009 72.3646 155.05 72.7868C155.091 73.209 155.116 73.605 155.129 74.0223C155.151 74.7605 155.129 75.4993 155.063 76.2348C154.92 77.6408 154.608 79.0244 154.132 80.3553C152.695 84.3188 149.838 87.6077 146.114 89.5848C143.667 90.8801 140.94 91.5544 138.172 91.5485C136.593 91.5485 136.59 94.0032 138.172 94.0032C144.512 93.9658 150.445 90.8706 154.103 85.6917C157.703 80.5959 158.598 73.7458 156.418 67.8988C154.239 62.0518 149.356 57.496 143.337 55.8416C141.005 55.2017 138.658 55.1477 136.272 55.1477H75.9484C71.0826 55.1232 66.3792 56.8965 62.7408 60.1274C58.1162 64.2577 55.6861 70.612 56.4307 76.7748C57.1818 82.9932 60.8622 88.5882 66.3753 91.6074C69.1602 93.1301 72.274 93.9518 75.4477 94.0015H76.5932H138.157C139.735 94.0064 139.738 91.5518 138.156 91.5518Z" fill="#282A3A"/>
</g>
<rect id="Rectangle_7" x="42.1217" y="56.3784" width="98.8307" height="36.4008" rx="18.2004" fill="#6573C9"/>
<path id="Path_13" d="M122.75 91.552H64.3069C62.9879 91.552 61.6689 91.552 60.3516 91.552C58.0377 91.552 55.5896 91.0709 53.5555 90.1594C50.9411 89.0159 48.6535 87.2379 46.9001 84.9866C46.0603 83.8752 45.3468 82.6737 44.7728 81.4044C44.5097 80.796 44.2813 80.1732 44.0887 79.5389C43.8755 78.8342 43.705 78.1172 43.5782 77.3919C43.1102 74.553 43.3634 71.6421 44.3146 68.9266C44.78 67.6059 45.4089 66.3486 46.1866 65.1841C46.5394 64.6364 46.9309 64.1147 47.3583 63.623C47.8347 63.065 48.3446 62.5366 48.8851 62.0405C52.0724 59.1284 56.2508 57.5423 60.5676 57.6058H122.726C123.676 57.6044 124.625 57.6799 125.563 57.8316C126.31 57.9625 127.048 58.1395 127.773 58.3618C128.407 58.5553 129.03 58.7865 129.637 59.054C130.291 59.3509 130.927 59.6859 131.541 60.0572C131.856 60.247 132.165 60.4483 132.468 60.6578C132.61 60.7559 132.751 60.8558 132.89 60.9589C133.096 61.1094 133.096 61.1094 133.209 61.1994C135.453 62.961 137.223 65.2547 138.357 67.8728C138.357 67.8875 138.449 68.0872 138.388 67.9415C138.423 68.0233 138.454 68.1052 138.486 68.1853C138.552 68.349 138.614 68.5126 138.675 68.6763C138.802 69.0297 138.919 69.3865 139.026 69.7465C139.233 70.4532 139.397 71.1718 139.517 71.8984C139.579 72.2748 139.593 72.3632 139.633 72.7854C139.674 73.2076 139.699 73.6036 139.712 74.0209C139.734 74.759 139.713 75.4978 139.647 76.2333C139.503 77.6393 139.191 79.0229 138.715 80.3539C137.276 84.3187 134.416 87.6078 130.689 89.5833C128.242 90.8786 125.515 91.553 122.747 91.5471C121.168 91.5471 121.165 94.0017 122.747 94.0017C129.087 93.9643 135.02 90.8692 138.678 85.6903C142.278 80.5944 143.173 73.7443 140.992 67.8973C138.81 62.0504 133.931 57.4945 127.912 55.8401C125.58 55.2002 123.233 55.1462 120.847 55.1462H60.5431C55.6773 55.1218 50.9739 56.8951 47.3354 60.1259C42.7092 64.2612 40.2808 70.6204 41.0302 76.7782C41.7797 82.9967 45.4617 88.5917 50.9748 91.6109C53.7598 93.1336 56.8736 93.9553 60.0472 94.005H61.1927H122.75C124.325 94.0066 124.333 91.552 122.75 91.552Z" fill="#6573C9"/>
<rect id="Rectangle_8" x="47.4271" y="60.7705" width="88.2168" height="27.6148" rx="13.8074" fill="#ED7A7A"/>
<path id="Path_14" d="M121.836 87.4051H61.2712C57.6481 87.4183 54.1885 85.8978 51.7481 83.2198C49.3076 80.5417 48.1142 76.9562 48.4629 73.3498C48.908 68.2867 52.5851 63.811 57.4469 62.3219C59.2715 61.7622 61.0356 61.7524 62.9289 61.7524H119.743C121.228 61.7524 122.773 61.6951 124.182 61.9635C129.319 62.9527 133.356 66.9346 134.416 72.057C135.447 77.0874 133.207 82.4566 128.916 85.2778C126.814 86.6617 124.353 87.4011 121.836 87.4051C120.572 87.4051 120.571 89.3688 121.836 89.3688C127.488 89.3443 132.828 86.0289 135.217 80.8758C137.65 75.6074 136.815 69.4066 133.075 64.9696C130.242 61.6215 126.012 59.7887 121.654 59.7887H61.4185C57.0787 59.7887 52.8698 61.6051 50.0355 64.9255C46.2768 69.3474 45.4169 75.5451 47.8296 80.8234C50.1811 85.952 55.4881 89.3148 61.1109 89.3688H64.1612H121.836C123.101 89.3688 123.102 87.4051 121.836 87.4051Z" fill="#ED7A7A"/>
<g id="Group_4">
<rect id="Rectangle_9" x="60.6789" y="68.0364" width="66.5537" height="13.0849" rx="6.54246" fill="#282A3A"/>
<path id="Path_15" d="M120.69 79.8939H67.223C67.0986 79.8939 66.9742 79.8906 66.8498 79.8841C66.7124 79.8759 66.5766 79.8612 66.4391 79.8481C66.264 79.8301 66.6682 79.889 66.4964 79.8481C66.4227 79.8317 66.3475 79.8219 66.2738 79.8072C66.0255 79.758 65.7802 79.6946 65.5391 79.6174C65.4131 79.5765 65.2887 79.529 65.1643 79.4832C65.0841 79.4554 64.9778 79.457 65.2134 79.5061C65.13 79.4783 65.0499 79.4416 64.9745 79.3964C64.7658 79.2936 64.5626 79.18 64.3657 79.0561C64.2676 78.9955 64.171 78.9301 64.0761 78.8646C64.0254 78.8358 63.9781 78.8012 63.9354 78.7615C64.1121 78.9841 63.9845 78.7991 63.9108 78.7402C63.7224 78.5826 63.5427 78.4149 63.3724 78.2379C63.2922 78.1544 63.2088 78.0742 63.1384 77.9826L62.9993 77.8189C62.8537 77.6455 63.0861 77.9531 62.9993 77.8189C62.8684 77.6111 62.7195 77.4147 62.5968 77.2004C62.5379 77.0989 62.4838 76.9958 62.4331 76.8927C62.4069 76.8403 62.3808 76.788 62.3562 76.7291C62.3317 76.6702 62.1778 76.4476 62.3382 76.6996C62.2323 76.4882 62.1547 76.2637 62.1075 76.0319C62.0469 75.8208 61.9013 75.4625 61.9356 75.2432C61.8964 75.4886 61.9504 75.3725 61.9356 75.253C61.9356 75.1925 61.9242 75.1303 61.9193 75.0697C61.9095 74.9323 61.9029 74.7932 61.9013 74.6541C61.898 74.4072 61.9078 74.1603 61.9307 73.9144C61.9441 73.8547 61.9512 73.7939 61.952 73.7328C61.952 73.7688 61.9046 74.0142 61.952 73.79C61.9766 73.6722 61.9962 73.5544 62.0224 73.4366C62.0814 73.1764 62.1563 72.9201 62.2466 72.6691C62.2662 72.6134 62.2891 72.5594 62.3088 72.5054C62.3873 72.2943 62.2924 72.5267 62.2858 72.5545C62.3261 72.4301 62.381 72.3109 62.4495 72.1994C62.5686 71.9661 62.7019 71.7404 62.8488 71.5236C62.893 71.4581 63.109 71.1079 62.9371 71.3877C63.0036 71.2927 63.0781 71.2034 63.1597 71.121C63.3302 70.9249 63.5127 70.7396 63.7063 70.5663C63.793 70.4877 63.8814 70.4157 63.9697 70.3404C64.1334 70.1981 63.9435 70.3519 63.9272 70.3732C63.9798 70.323 64.0393 70.2806 64.1039 70.2472C64.3178 70.0972 64.5408 69.9605 64.7716 69.838C64.8763 69.784 64.981 69.735 65.0858 69.6744C65.1643 69.6368 65.3116 69.5255 65.0743 69.6744C65.1267 69.6479 65.1815 69.6266 65.238 69.6106C65.4877 69.5168 65.7429 69.4381 66.0022 69.3749C66.1184 69.3471 66.2362 69.3226 66.354 69.3013C66.412 69.2839 66.4719 69.2735 66.5324 69.2702C66.3344 69.2407 66.3687 69.2898 66.4767 69.2784C66.7222 69.2538 66.9677 69.2391 67.2131 69.2375H120.688C120.852 69.2375 120.999 69.2375 121.153 69.2538L121.337 69.2686C121.358 69.2686 121.649 69.3209 121.445 69.28C121.266 69.244 121.461 69.28 121.505 69.2931L121.726 69.3357C121.988 69.3914 122.246 69.4629 122.498 69.55C122.612 69.5782 122.722 69.62 122.826 69.6744C122.801 69.658 122.572 69.5582 122.775 69.6548C122.853 69.6924 122.939 69.7284 123.012 69.7677C123.22 69.8727 123.421 69.9891 123.616 70.1162C123.714 70.1784 123.808 70.2455 123.902 70.3126C124.084 70.4353 123.889 70.293 123.863 70.2766C123.934 70.3261 124 70.3808 124.063 70.4403C124.25 70.5993 124.429 70.7692 124.596 70.9492C124.685 71.0441 124.77 71.1406 124.853 71.2405C124.893 71.2827 124.93 71.3281 124.963 71.3763C124.891 71.2552 124.861 71.2388 124.953 71.3763C125.094 71.5792 125.228 71.7854 125.349 72.0014C125.405 72.1029 125.459 72.206 125.513 72.3107C125.539 72.3631 125.563 72.4171 125.588 72.4743C125.717 72.7443 125.498 72.224 125.601 72.5054C125.683 72.728 125.765 72.9489 125.824 73.178C125.858 73.3073 125.889 73.4382 125.915 73.5707C125.928 73.6297 125.94 73.6886 125.95 73.7475C125.958 73.7917 125.964 73.8358 125.973 73.8817C125.951 73.718 125.948 73.6869 125.959 73.7802C126.009 74.2857 126.009 74.7949 125.959 75.3005C125.948 75.4134 125.997 75.4412 125.968 75.2448C125.964 75.3047 125.954 75.3641 125.937 75.4216C125.915 75.5394 125.891 75.6572 125.863 75.7734C125.801 76.033 125.722 76.2882 125.627 76.5376C125.612 76.5942 125.59 76.649 125.563 76.7012C125.714 76.4656 125.603 76.6129 125.563 76.6898C125.513 76.7962 125.462 76.9009 125.4 77.004C125.277 77.2353 125.141 77.4588 124.991 77.6733C124.957 77.7371 124.914 77.796 124.865 77.8484C124.886 77.832 125.04 77.634 124.897 77.8058C124.824 77.8942 124.75 77.9842 124.672 78.0693C124.517 78.2415 124.353 78.4053 124.181 78.5602C124.084 78.647 123.981 78.7239 123.883 78.8122C123.757 78.9202 124.069 78.6944 123.925 78.7779C123.863 78.8139 123.808 78.863 123.749 78.9039C123.557 79.035 123.358 79.1557 123.153 79.2655C123.051 79.3212 122.947 79.3735 122.84 79.4292C122.788 79.4583 122.733 79.4825 122.677 79.5012C122.943 79.4455 122.772 79.4635 122.685 79.5012C122.449 79.5896 122.21 79.666 121.967 79.7303C121.85 79.7597 121.734 79.7859 121.616 79.8088L121.44 79.8416C121.215 79.8857 121.461 79.8416 121.497 79.8416C121.242 79.8088 120.929 79.8906 120.669 79.8923C120.027 79.8923 119.412 80.4536 119.442 81.1196C119.452 81.793 119.995 82.3364 120.669 82.3469C124.321 82.3514 127.482 79.8107 128.263 76.2434C129.045 72.6762 127.235 69.0465 123.916 67.5241C122.843 67.0464 121.682 66.8021 120.508 66.8074H67.3244C66.0149 66.8002 64.7232 67.1113 63.5606 67.714C61.5108 68.8005 60.0548 70.7475 59.5923 73.0209C59.1285 75.3963 59.7778 77.8533 61.3547 79.6894C62.8316 81.3748 64.9624 82.343 67.2033 82.3469H69.3634H120.69C121.332 82.3469 121.947 81.7824 121.917 81.1196C121.905 80.4472 121.363 79.9053 120.69 79.8939Z" fill="#282A3A"/>
<path id="Path_16" d="M122.545 88.5982H60.4485C56.4404 88.6031 52.622 86.8921 49.958 83.8975C47.294 80.9029 46.0393 76.9112 46.511 72.931C47.1328 67.4391 51.1486 62.7065 56.436 61.1388C58.3424 60.5743 60.2456 60.5595 62.1995 60.5595H120.596C122.383 60.5595 124.137 60.5301 125.894 60.9621C131.29 62.3234 135.387 66.7188 136.368 72.1962C137.322 77.675 134.819 83.3518 130.149 86.3612C127.88 87.8164 125.242 88.5925 122.546 88.5982C121.915 88.5982 121.913 89.58 122.546 89.58C128.218 89.5555 133.54 86.281 136.027 81.1622C138.304 76.4933 138.004 70.9791 135.235 66.5844C132.466 62.1897 127.621 59.5394 122.427 59.5777H60.6269C56.2674 59.5777 52.0683 61.3778 49.1718 64.667C45.3834 68.9706 44.3794 75.0573 46.585 80.3497C48.7906 85.6421 53.82 89.2143 59.5435 89.5538C60.7611 89.6275 61.9982 89.58 63.2124 89.58H122.545C123.179 89.58 123.179 88.5982 122.545 88.5982Z" fill="#282A3A"/>
<path id="Path_17" d="M48.9816 74.579C48.9816 66.5652 55.4781 60.0687 63.4919 60.0687H60.4367C52.4229 60.0687 45.9264 66.5652 45.9264 74.579C45.9264 82.5928 52.4229 89.0892 60.4367 89.0892H63.4919C55.4781 89.0892 48.9816 82.5928 48.9816 74.579Z" fill="#282A3A"/>
<path id="Path_18" d="M49.4726 74.5789C49.4669 70.859 50.9422 67.2899 53.5725 64.6595C56.2029 62.0292 59.772 60.554 63.4919 60.5596C64.1236 60.5596 64.1252 59.5778 63.4919 59.5778H60.4858C52.3771 59.5457 45.7106 65.9631 45.4341 74.0672C45.1575 82.1712 51.371 89.0282 59.463 89.549C60.6691 89.6276 61.8882 89.5801 63.0959 89.5801H63.4919C64.1236 89.5801 64.1252 88.5982 63.4919 88.5982C59.7724 88.6026 56.204 87.127 53.574 84.4969C50.9439 81.8668 49.4682 78.2984 49.4726 74.5789C49.4726 73.9473 48.4907 73.9456 48.4907 74.5789C48.4919 77.6859 49.4564 80.716 51.2514 83.252C53.0141 85.7226 55.4764 87.6086 58.3208 88.667C59.9774 89.2735 61.7278 89.5837 63.4919 89.5834V88.6015H60.5185C52.9249 88.633 46.6863 82.6134 46.4465 75.0235C46.2067 67.4336 52.0527 61.0322 59.6332 60.5842C60.7885 60.522 61.9537 60.5629 63.1106 60.5629H63.4919V59.581C60.3852 59.5823 57.3552 60.5462 54.8188 62.3401C52.3476 64.1028 50.4615 66.5658 49.4039 69.4111C48.7959 71.0673 48.4851 72.8179 48.4858 74.5822C48.4891 75.2106 49.471 75.2122 49.4726 74.5789Z" fill="#282A3A"/>
<rect id="Rectangle_10" x="59.8214" y="67.6223" width="18.8632" height="13.9129" rx="6.95647" fill="#282A3A"/>
<path id="Path_19" d="M71.7281 80.308H67.0724C66.6525 80.314 66.2326 80.2922 65.8156 80.2426L66.1429 80.2868C65.5429 80.2009 64.9562 80.0393 64.3968 79.8056L64.6898 79.9284C64.2849 79.7565 63.897 79.5473 63.5312 79.3033C63.4352 79.2378 63.3402 79.1707 63.2464 79.102C63.0828 78.9842 63.4903 79.2984 63.325 79.1625L63.2006 79.0627C63.037 78.9252 62.8733 78.7812 62.7277 78.6307C62.582 78.4801 62.4315 78.3214 62.2957 78.1561L62.1942 78.0318C62.0567 77.8681 62.3824 78.2887 62.2564 78.1103C62.1926 78.0236 62.1304 77.9467 62.0698 77.8485C61.8185 77.4762 61.6037 77.0805 61.4284 76.667L61.5527 76.9599C61.3186 76.4013 61.1569 75.8151 61.0716 75.2155L61.1158 75.5427C61.0291 74.9042 61.0291 74.2568 61.1158 73.6183L61.0716 73.9456C61.1569 73.346 61.3186 72.7597 61.5527 72.2011L61.4284 72.4941C61.6007 72.0892 61.8106 71.7013 62.0551 71.3355C62.1189 71.2389 62.1877 71.144 62.2564 71.0507C62.3726 70.8871 62.06 71.2946 62.1942 71.1293L62.2957 71.0049C62.4315 70.8413 62.5755 70.6776 62.7277 70.532C62.8799 70.3863 63.037 70.2358 63.2006 70.1L63.325 69.9985C63.4886 69.861 63.0697 70.1867 63.2464 70.0591C63.3332 69.9969 63.4199 69.9347 63.5083 69.8741C63.881 69.6235 64.2766 69.4087 64.6898 69.2327L64.3968 69.3554C64.956 69.1215 65.5428 68.9604 66.1429 68.8759L65.8156 68.9201C66.6338 68.8105 67.475 68.853 68.2965 68.853H71.3582C71.8032 68.8451 72.2483 68.8675 72.6903 68.9201L72.363 68.8759C72.9626 68.9606 73.5488 69.1218 74.1074 69.3554L73.8145 69.2327C74.2199 69.405 74.6083 69.6149 74.9747 69.8594C75.0713 69.9232 75.1646 69.992 75.2578 70.0591C75.4215 70.1769 75.014 69.8643 75.1793 69.9985L75.3037 70.1C75.4673 70.2358 75.6309 70.3798 75.7782 70.532C75.9255 70.6842 76.0728 70.8413 76.2086 71.0049L76.3101 71.1293C76.4475 71.2929 76.1219 70.874 76.2495 71.0507C76.3117 71.1375 76.3755 71.2242 76.4344 71.3126C76.6851 71.6853 76.8999 72.0809 77.0759 72.4941L76.9532 72.2011C77.1868 72.7598 77.3479 73.346 77.4327 73.9456L77.3901 73.6183C77.4752 74.257 77.4752 74.9041 77.3901 75.5427L77.4327 75.2155C77.3479 75.815 77.1868 76.4013 76.9532 76.9599L77.0759 76.667C76.9035 77.0724 76.6937 77.4608 76.4492 77.8272C76.3853 77.9237 76.3166 78.017 76.2495 78.1103C76.1317 78.2739 76.4443 77.8665 76.3101 78.0318C76.2773 78.0743 76.243 78.1152 76.2086 78.1561C76.0728 78.3198 75.9288 78.4834 75.7782 78.6307C75.6277 78.778 75.4689 78.9252 75.3037 79.0627L75.1793 79.1625C75.0156 79.3016 75.4346 78.9743 75.2578 79.102C75.1711 79.1642 75.0844 79.228 74.996 79.2885C74.6237 79.5393 74.228 79.7536 73.8145 79.9284L74.1074 79.8056C73.5486 80.0391 72.9625 80.2007 72.363 80.2868L72.6903 80.2426C72.3713 80.2848 72.0499 80.3067 71.7281 80.308C71.0866 80.308 70.4713 80.871 70.5007 81.5354C70.5121 82.2084 71.055 82.7513 71.7281 82.7627C74.1009 82.7529 76.4737 81.699 77.9809 79.8515C78.7737 78.9063 79.3466 77.7968 79.6582 76.6031C79.9598 75.3826 79.985 74.1101 79.7318 72.8786C79.2359 70.549 77.751 68.5504 75.6637 67.4031C74.565 66.8086 73.3472 66.4676 72.0995 66.4049C71.6561 66.382 71.2077 66.3951 70.7626 66.3951H66.8613C64.6829 66.386 62.5882 67.2335 61.0291 68.7548C59.3188 70.4462 58.4386 72.804 58.6219 75.2024C58.8078 77.6955 60.1284 79.9651 62.204 81.3586C63.1463 82.0092 64.221 82.4429 65.3509 82.6285C66.001 82.7239 66.6576 82.7677 67.3146 82.7594H71.7199C72.3614 82.7594 72.9767 82.1948 72.9472 81.5321C72.9342 80.8634 72.3967 80.3237 71.7281 80.308Z" fill="#282A3A"/>
</g>
<circle id="Oval_2" cx="66.8155" cy="74.5787" r="6.99411" fill="#EAC36E"/>
<path id="Path_20" d="M72.5823 74.5789C72.5809 74.9012 72.559 75.2231 72.5168 75.5427L72.5594 75.2154C72.4744 75.8158 72.3139 76.4031 72.0815 76.9631L72.2043 76.6686C72.0297 77.0829 71.816 77.4797 71.5661 77.8534C71.5071 77.9417 71.445 78.0301 71.3811 78.1152C71.3173 78.2003 71.1848 78.3427 71.4433 78.0383C71.409 78.0776 71.3762 78.1217 71.3419 78.1627C71.2011 78.3263 71.0506 78.4998 70.8935 78.6536C70.7364 78.8074 70.5662 78.9612 70.4025 79.102C70.3747 79.1249 70.3076 79.2018 70.2765 79.2034C70.3256 79.2034 70.5498 78.9972 70.3551 79.1412C70.27 79.2051 70.1816 79.2672 70.0933 79.3262C69.7192 79.576 69.3226 79.7902 68.9085 79.966L69.203 79.8416C68.6431 80.0745 68.0558 80.2351 67.4553 80.3195L67.7826 80.2769C67.144 80.362 66.4968 80.362 65.8582 80.2769L66.1855 80.3195C65.5828 80.2371 64.9932 80.0776 64.4312 79.8449L64.7241 79.9693C64.3101 79.7935 63.9134 79.5793 63.5394 79.3294C63.451 79.2705 63.3626 79.2083 63.2775 79.1445C63.1924 79.0807 63.0501 78.9481 63.3561 79.2067L63.2301 79.1052C63.0664 78.9645 62.9028 78.814 62.7391 78.6569C62.5755 78.4998 62.4331 78.3296 62.2908 78.1659C62.2678 78.1381 62.1909 78.071 62.1893 78.0416C62.1893 78.089 62.3955 78.3132 62.2515 78.1185C62.1877 78.0334 62.1255 77.945 62.0666 77.8566C61.8166 77.4829 61.6029 77.0862 61.4284 76.6719L61.5511 76.9664C61.3187 76.4063 61.1582 75.8191 61.0732 75.2187L61.1174 75.546C61.0307 74.9069 61.0307 74.259 61.1174 73.6199L61.0732 73.9472C61.1582 73.3473 61.3187 72.7606 61.5511 72.2011L61.4284 72.4941C61.6032 72.0799 61.8169 71.6832 62.0666 71.3093C62.1255 71.2209 62.1877 71.1342 62.2515 71.0474C62.3153 70.9607 62.4479 70.82 62.1893 71.126C62.2237 71.0851 62.2564 71.0425 62.2908 71C62.4331 70.8363 62.582 70.6727 62.7391 70.5091C62.8962 70.3454 63.0664 70.2014 63.2301 70.059C63.2579 70.0361 63.325 69.9592 63.3561 69.9576C63.307 69.9576 63.0828 70.1638 63.2775 70.0198C63.3626 69.9559 63.451 69.8954 63.5394 69.8348C63.9131 69.5849 64.3098 69.3712 64.7241 69.1966L64.4312 69.3112C64.9907 69.0788 65.5774 68.9183 66.1773 68.8334L65.85 68.8775C66.4885 68.7908 67.1359 68.7908 67.7744 68.8775L67.4472 68.8334C68.0492 68.918 68.6381 69.0786 69.1998 69.3112L68.9052 69.1885C69.3196 69.363 69.7163 69.5767 70.09 69.8267C70.1784 69.8872 70.2667 69.9478 70.3518 70.0116C70.4369 70.0754 70.5793 70.208 70.2733 69.9494C70.3142 69.9854 70.3584 70.0165 70.3993 70.0509C70.5629 70.1932 70.7266 70.3421 70.8902 70.5009C71.0538 70.6596 71.1979 70.8282 71.3386 70.9918C71.3615 71.0196 71.4384 71.0867 71.44 71.1178C71.44 71.0687 71.2339 70.8445 71.3779 71.0393C71.4417 71.126 71.5039 71.2127 71.5628 71.3011C71.8124 71.675 72.0261 72.0717 72.201 72.4859L72.0783 72.1929C72.3106 72.7525 72.4712 73.3392 72.5561 73.939L72.5135 73.6117C72.5558 73.9308 72.5777 74.2522 72.579 74.574C72.579 75.2154 73.1419 75.8307 73.8063 75.8013C74.4794 75.7899 75.0223 75.247 75.0337 74.574C75.0347 72.8972 74.5206 71.2605 73.5609 69.8856C72.5647 68.4801 71.1638 67.4115 69.5451 66.8222C66.4097 65.6767 62.6491 66.6929 60.5332 69.2768C59.422 70.6176 58.7516 72.2686 58.6137 74.0045C58.3708 77.3981 60.2495 80.589 63.3348 82.023C64.9578 82.7639 66.7734 82.9729 68.5223 82.6203C71.7362 81.9804 74.4134 79.2263 74.9158 75.9797C74.993 75.5166 75.0351 75.0483 75.0418 74.5789C75.0418 73.9374 74.4756 73.3221 73.8145 73.3515C73.1395 73.3603 72.5937 73.9039 72.5823 74.5789Z" fill="#EAC36E"/>
<path id="Path_21" d="M49.5773 74.0797C49.5773 66.0659 56.0738 59.5695 64.0876 59.5695H61.0323C57.184 59.5695 53.4932 61.0982 50.772 63.8194C48.0508 66.5406 46.5221 70.2313 46.5221 74.0797C46.5221 82.0935 53.0186 88.59 61.0323 88.59H64.0876C56.0738 88.59 49.5773 82.0935 49.5773 74.0797Z" fill="#282A3A"/>
<path id="Path_22" d="M50.0683 74.0797C50.0626 70.3598 51.5378 66.7907 54.1682 64.1603C56.7986 61.53 60.3677 60.0547 64.0876 60.0604C64.7209 60.0604 64.7209 59.0785 64.0876 59.0785H61.0831C56.1879 59.0654 51.5938 61.4403 48.7739 65.4417C45.954 69.4431 45.2626 74.5683 46.9214 79.1739C47.5808 80.9893 48.5805 82.6622 49.867 84.1029C51.1355 85.5185 52.6623 86.6793 54.3656 87.523C56.1427 88.3995 58.0749 88.9178 60.0522 89.0482C61.2582 89.1284 62.4774 89.0809 63.685 89.0809H64.0811C64.7144 89.0809 64.7144 88.099 64.0811 88.099C60.3616 88.1034 56.7932 86.6278 54.1631 83.9977C51.533 81.3676 50.0574 77.7992 50.0617 74.0797C50.0617 73.4481 49.0799 73.4464 49.0799 74.0797C49.0777 78.0589 50.6575 81.8758 53.4712 84.6896C56.285 87.5033 60.1018 89.0831 64.0811 89.0809V88.099H61.1142C57.5795 88.1265 54.1662 86.8111 51.564 84.4187C50.2284 83.1993 49.1424 81.7321 48.3664 80.0985C47.5801 78.4356 47.1265 76.6351 47.0311 74.7981C46.9311 72.9098 47.2156 71.0208 47.8673 69.2457C49.7909 63.9986 54.6492 60.397 60.2289 60.0817C61.3842 60.0179 62.5494 60.0604 63.7063 60.0604H64.0876V59.0785C60.9808 59.079 57.9506 60.043 55.4145 61.8376C52.943 63.6 51.0567 66.0631 49.9996 68.9086C49.3914 70.5648 49.0806 72.3154 49.0815 74.0797C49.0864 74.7114 50.0683 74.7114 50.0683 74.0797Z" fill="#282A3A"/>
<path id="Path_23" d="M4.99435 117.929C8.28522 106.311 9.0527 94.1717 10.1884 82.1587C10.8822 74.8209 12.1227 66.7222 17.8273 62.0567C21.3767 59.1537 26.0569 58.1293 30.5456 57.1932L41.0024 55.0135C43.2672 54.5422 45.6122 54.0317 47.4581 52.6407C49.0831 51.415 50.1648 49.6215 51.2056 47.8721L58.3764 35.8263C59.6545 33.6793 60.9816 31.4751 62.9781 29.9745C64.9745 28.4739 67.8301 27.8291 69.9935 29.0777C73.0339 30.832 73.2205 35.3469 71.6299 38.4725C70.0393 41.598 67.2115 43.8874 65.0645 46.671C61.7442 50.9912 60.1814 56.357 58.2079 61.4349C56.2343 66.5127 53.5588 71.6724 48.9064 74.5083C43.9071 77.5537 37.651 77.3279 31.9709 78.7483C30.9024 79.0151 29.8272 79.3522 28.9305 79.992C27.9568 80.6842 27.2531 81.6857 26.6394 82.7069C22.1785 90.0904 21.4961 99.0712 19.0775 107.345C17.7389 111.927 15.5297 116.697 11.2766 118.862C9.23762 119.901 6.60296 120.171 4.75543 118.823" fill="white"/>
<path id="Path_24" d="M5.51967 121.546C5.61786 119.376 5.9026 116.867 7.73213 115.696C8.4718 115.223 9.36038 115.053 10.1655 114.701C13.9031 113.064 14.813 108.299 15.389 104.262C16.6439 95.4735 18.685 86.8153 21.488 78.3917C22.3635 75.7587 23.3682 73.0618 25.3172 71.0866C28.3528 68.0101 33.0085 67.3114 37.309 66.9743C41.6096 66.6372 46.2014 66.4048 49.7377 63.9207C54.3623 60.6724 55.8187 54.6339 57.9722 49.4088C60.035 44.4137 62.9832 39.8323 66.6748 35.8853C68.0347 34.4338 70.4124 33.0543 71.7903 34.4911C72.8261 35.5711 72.291 37.3385 71.7052 38.718C67.3768 48.8982 63.5541 59.5269 63.1221 70.5793C65.9891 66.3672 69.1769 61.9062 73.9733 60.1995C75.2301 59.7527 76.7912 59.5776 77.7534 60.5006C78.3753 61.0946 80.7105 61.5724 80.8627 62.4185C81.6367 66.7894 79.6861 71.8018 78.2705 76.0008C76.8845 80.1181 74.0551 83.6184 72.543 87.6948C71.1193 91.5519 70.9066 95.8606 68.8791 99.4362C66.5619 103.527 62.2777 105.995 58.4599 108.729C56.4602 110.163 54.9694 112.038 54.1855 114.38C53.531 116.327 54.3214 118.851 52.8993 120.486C51.6883 121.877 49.3499 122.04 47.6464 122.096C40.2279 122.34 32.8006 122.412 25.3647 122.31C18.3558 122.214 11.3716 121.739 4.37744 122.423" fill="#C4C4C4"/>
<path id="Path_25" d="M6.01058 121.546C6.10877 119.466 6.33787 116.822 8.49142 115.843C9.56492 115.352 10.6793 115.128 11.6415 114.408C12.4362 113.801 13.1059 113.047 13.6135 112.186C14.7131 110.369 15.2221 108.24 15.5772 106.168C16.0452 103.475 16.3954 100.768 16.8961 98.073C17.9923 92.2224 19.4394 86.443 21.2294 80.7661C22.0263 78.2395 22.784 75.6064 24.1848 73.3351C25.4939 71.2208 27.4315 69.7349 29.7487 68.8758C34.4796 67.1166 39.6376 67.673 44.5109 66.6077C46.9443 66.0759 49.2648 65.0956 51.1418 63.4281C52.8371 61.9226 54.0792 59.9752 55.061 57.9493C56.0838 55.84 56.8611 53.6242 57.6957 51.4363C58.6024 49.0038 59.7017 46.6475 60.9833 44.3898C62.3314 42.0444 63.8926 39.828 65.6471 37.7688C66.4539 36.823 67.2704 35.8166 68.3177 35.126C69.1065 34.6073 70.3289 34.0034 71.2175 34.6351C72.1994 35.3453 71.8901 36.7428 71.5612 37.7148C71.1324 38.9863 70.5384 40.2104 70.0295 41.4508C68.9314 44.1329 67.8874 46.8396 66.9464 49.5806C65.0858 55.0299 63.613 60.6282 62.9584 66.3524C62.7981 67.7587 62.689 69.1676 62.6311 70.5793C62.6115 71.0964 63.2857 71.2044 63.5459 70.8264C65.8533 67.439 68.3177 63.8552 71.9114 61.7148C73.3645 60.8491 75.8568 59.5579 77.4065 60.8475C77.9563 61.304 78.6387 61.5233 79.2835 61.8097C79.6099 61.9331 79.919 62.0981 80.2032 62.3006C80.4879 62.5346 80.4535 62.9241 80.4879 63.2825C80.7088 65.5735 80.2768 67.8645 79.6779 70.054C79.0789 72.2436 78.3523 74.4593 77.5407 76.5998C76.7094 78.7827 75.4919 80.7923 74.3595 82.8182C73.2565 84.7999 72.2517 86.8225 71.6037 89.0039C70.9557 91.1853 70.576 93.4141 69.9329 95.5873C69.2898 97.7605 68.3423 99.7454 66.8597 101.456C65.4867 103.04 63.8356 104.352 62.1402 105.571C60.4449 106.79 58.6022 107.862 57.0427 109.25C55.4938 110.611 54.3391 112.363 53.6995 114.323C53.4098 115.241 53.4066 116.223 53.3722 117.175C53.3378 118.127 53.2757 119.139 52.7176 119.949C51.6785 121.459 49.417 121.556 47.7658 121.616C45.1295 121.711 42.4899 121.769 39.8504 121.813C34.5631 121.901 29.2725 121.914 23.9852 121.813C18.7257 121.708 13.4613 121.446 8.20177 121.682C6.92753 121.74 5.65602 121.829 4.38724 121.95C3.76376 122.011 3.75722 122.993 4.38724 122.932C9.80547 122.408 15.2532 122.569 20.6861 122.714C26.1671 122.862 31.6486 122.902 37.1306 122.836C39.8798 122.806 42.6285 122.752 45.3766 122.672C47.4532 122.615 49.7557 122.75 51.7096 121.919C52.581 121.577 53.3048 120.94 53.7551 120.119C54.2264 119.209 54.3083 118.177 54.3508 117.173C54.3933 116.17 54.4163 115.21 54.7599 114.261C55.1197 113.28 55.625 112.358 56.2589 111.528C57.5926 109.782 59.4728 108.633 61.2533 107.397C63.0337 106.162 64.8436 104.872 66.4195 103.351C68.0203 101.833 69.2891 99.9995 70.1456 97.9666C71.0473 95.782 71.4892 93.4517 72.0472 91.164C72.6027 88.8523 73.4455 86.6192 74.5558 84.5168C75.6702 82.4189 76.9368 80.3979 77.9171 78.228C78.8973 76.0581 79.5977 73.7753 80.2801 71.5186C80.9625 69.262 81.5287 66.9055 81.5303 64.5294C81.532 63.9674 81.4959 63.406 81.4223 62.8488C81.3683 62.4315 81.3274 62.06 81.0312 61.7393C80.5403 61.2042 79.7646 60.9555 79.1149 60.6789C78.7788 60.5574 78.4581 60.3971 78.1593 60.2011C77.7911 59.9261 77.4834 59.6709 77.0383 59.5203C76.0957 59.193 75.0206 59.3567 74.0927 59.6447C69.982 60.9407 66.9759 64.3625 64.5196 67.7319C63.8961 68.5878 63.2972 69.4584 62.7015 70.3322L63.6163 70.581C63.8536 64.6669 65.0662 58.8461 66.7991 53.2004C67.6648 50.3776 68.6581 47.5956 69.7267 44.8431C70.2602 43.4664 70.8111 42.0972 71.3795 40.7357C71.8819 39.528 72.525 38.3089 72.7656 37.0128C72.9718 35.9017 72.8392 34.6989 71.9064 33.9445C71.0391 33.2425 69.9002 33.2997 68.9134 33.7023C67.7941 34.1605 66.8711 34.9395 66.0611 35.8199C65.1207 36.8432 64.2288 37.9079 63.3855 39.0142C61.716 41.1958 60.2502 43.526 59.0065 45.9756C57.861 48.242 56.9593 50.6083 56.0609 52.9828C54.413 57.3733 52.4853 62.0879 48.0669 64.3511C43.4112 66.7402 37.9047 66.102 32.8955 67.0201C30.5407 67.4521 28.163 68.2081 26.2254 69.6564C24.1079 71.2372 22.8069 73.4873 21.8529 75.9092C20.7876 78.6093 19.9694 81.4256 19.1708 84.2141C18.334 87.128 17.5878 90.0665 16.9321 93.0295C16.2765 95.9926 15.7124 98.9714 15.2401 101.966C14.8637 104.344 14.6199 106.761 13.9064 109.07C13.3074 111.006 12.3108 112.96 10.4846 113.992C9.40782 114.603 8.12649 114.743 7.13645 115.522C6.27569 116.198 5.76021 117.196 5.46729 118.236C5.16619 119.309 5.07945 120.437 5.02709 121.546C4.996 122.178 5.97786 122.176 6.00895 121.546H6.01058Z" fill="#C4C4C4"/>
<g id="Group_5">
<path id="Path_26" d="M5.68332 121.752C6.35426 118.24 6.80264 114.681 7.2772 111.138C7.90559 106.447 8.49307 101.748 9.09201 97.0519C9.38656 94.7402 9.68603 92.4295 9.99041 90.12C10.0264 89.845 10.064 89.5685 10.1 89.3017C10.1181 89.1757 10.1344 89.0481 10.1508 88.9221C10.1164 89.179 10.1688 88.7879 10.1802 88.7094C10.2501 88.1868 10.3215 87.6637 10.3946 87.14C10.5288 86.1702 10.6663 85.2003 10.807 84.2304C11.4616 79.8121 12.1358 75.3053 13.5889 71.0801C14.5511 68.2981 16.0076 65.7518 18.1497 63.7259C20.1854 61.8015 22.784 60.3336 25.3794 59.3403C28.4575 58.1604 31.7026 57.5026 34.9525 57.0018C36.7101 56.7302 38.4742 56.5109 40.235 56.2687C41.945 56.038 43.6927 55.8563 45.3733 55.462C47.0316 55.096 48.5025 54.145 49.5168 52.7831C50.4757 51.528 51.1614 50.0748 51.924 48.692C53.6695 45.5392 55.4827 42.4234 57.3635 39.3447C58.2799 37.8425 59.2121 36.3501 60.1602 34.8675C60.9784 33.5976 61.7966 32.3506 62.8472 31.2673C63.847 30.2413 64.9876 29.4574 66.3426 29.1121C67.5797 28.7963 68.8414 28.8879 69.9264 29.6423C70.3598 29.9748 70.7259 30.3869 71.0048 30.8566C71.3329 31.3865 71.5743 31.9655 71.7199 32.5715C71.8955 33.1858 71.9982 33.8185 72.0259 34.4567C72.072 35.2481 72.0584 36.0418 71.985 36.8312C71.6954 40.0108 70.4369 43.0873 69.172 45.9952C67.7876 49.183 66.4064 52.3544 65.328 55.6616C64.2514 58.9602 63.4098 62.331 62.8095 65.7486C62.5101 67.4505 62.2711 69.1622 62.083 70.8804C62.011 71.535 62.6999 72.1077 63.3103 72.1077C64.0401 72.1077 64.4558 71.5415 64.5376 70.8804C64.4967 71.2306 64.5622 70.7675 64.5753 70.6971C64.6047 70.5553 64.6391 70.4146 64.6783 70.2749C64.761 69.9818 64.861 69.6938 64.9778 69.4125C64.878 69.6564 65.0629 69.2374 65.0956 69.172C65.1676 69.0247 65.2429 68.8774 65.3215 68.7334C65.4851 68.4323 65.6613 68.1389 65.85 67.853C66.2075 67.2912 66.6091 66.7588 67.0512 66.2608C67.5519 65.6796 68.0817 65.1242 68.6385 64.5965C69.1982 64.063 69.7807 63.5552 70.3862 63.073C70.599 62.9094 70.7757 62.7703 71.0948 62.5412C71.4139 62.3121 71.7297 62.0928 72.0554 61.8866C72.6309 61.5101 73.2264 61.1648 73.8391 60.8524C73.9646 60.7891 74.0922 60.7269 74.222 60.6658L74.4102 60.5791C74.4102 60.5791 74.7179 60.4449 74.5411 60.5202C74.4233 60.5709 74.78 60.4253 74.8488 60.4007C74.9944 60.3467 75.1401 60.296 75.2873 60.2485C75.5506 60.1645 75.8183 60.0951 76.0892 60.0407C76.1596 60.0276 76.6276 59.9703 76.2823 60.0031C76.4312 59.9883 76.5801 59.9736 76.729 59.9687H77.071C77.1332 59.9687 77.526 60.0031 77.3149 59.9801C77.1038 59.9572 77.4883 60.0145 77.5374 60.026C77.6603 60.0533 77.7815 60.0871 77.9007 60.1274C78.0169 60.1651 78.228 60.3091 77.9498 60.1372C78.0316 60.1863 78.1249 60.2207 78.2084 60.2665C78.2918 60.3123 78.4129 60.3893 78.5144 60.4531C78.7795 60.6167 78.3687 60.3074 78.606 60.5234C78.7506 60.6519 78.8877 60.7885 79.0168 60.9325C79.0539 60.9811 79.0938 61.0276 79.1362 61.0716C79.2491 61.1764 78.9988 60.8671 79.0806 60.9996C79.146 61.106 79.2246 61.2042 79.2917 61.3106C79.4113 61.4964 79.5206 61.6887 79.619 61.8866C79.6402 61.9291 79.7957 62.281 79.7221 62.1042C79.6484 61.9275 79.7417 62.1599 79.7515 62.1828C79.7744 62.2482 79.799 62.3121 79.8219 62.3759C79.9918 62.8626 80.1248 63.3615 80.2195 63.8683C80.2441 63.9992 80.2654 64.1318 80.2883 64.2627C80.2981 64.3232 80.303 64.3821 80.3145 64.4411C80.2621 64.1514 80.2997 64.3167 80.3145 64.3854C80.3439 64.6751 80.3766 64.9631 80.3963 65.2544C80.4323 65.814 80.441 66.3748 80.4225 66.9366C80.4061 67.493 80.3635 68.051 80.2997 68.6058C80.2997 68.6663 80.2834 68.7269 80.2768 68.7874C80.2605 68.9805 80.3243 68.4798 80.2768 68.776C80.2588 68.8954 80.2425 69.0133 80.2228 69.1327C80.1819 69.3929 80.1345 69.6515 80.0805 69.91C79.8779 70.9008 79.5678 71.8666 79.1559 72.7901C77.4752 76.5539 75.2579 80.0428 74.1009 84.0242C73.5069 86.0665 73.1076 88.1595 72.5038 90.1985C72.0328 91.8062 71.4307 93.3726 70.7037 94.882C69.224 97.9669 67.2735 100.803 64.9222 103.288C63.7669 104.509 62.5219 105.642 61.1977 106.677C59.8378 107.733 58.2652 108.628 56.7907 109.584C55.1707 110.636 53.9286 111.971 53.1759 113.76C52.4967 115.378 52.2496 117.133 52.1531 118.875C52.1056 119.725 52.0991 120.576 52.1007 121.427C52.1007 123.006 54.5554 123.009 54.5554 121.427C54.5554 119.71 54.5783 117.957 54.917 116.395C55.2787 114.722 55.912 113.336 57.2506 112.253C57.9706 111.672 58.8036 111.232 59.5907 110.75C60.3543 110.286 61.0946 109.79 61.8113 109.265C67.7865 104.935 72.248 98.8358 74.564 91.83C75.2186 89.827 75.6441 87.7586 76.1792 85.7196C76.7058 83.7201 77.4299 81.7779 78.3409 79.9217C79.2524 78.0562 80.2588 76.2381 81.1229 74.3497C81.6648 73.2236 82.0856 72.0431 82.378 70.8281C82.6365 69.6606 82.7936 68.4731 82.8477 67.2786C82.9573 64.9876 82.7233 62.5068 81.6236 60.4531C81.1314 59.4975 80.3762 58.7026 79.4471 58.1621C78.3213 57.5451 77.0661 57.4388 75.8159 57.6253C73.0192 58.0442 70.4304 59.8885 68.3014 61.6411C65.9171 63.6048 63.6556 66.0595 62.533 68.9756C62.3025 69.5962 62.1507 70.2433 62.0813 70.9017H64.536C65.3046 63.9329 67.0824 57.113 69.8135 50.6558C71.1357 47.5269 72.651 44.4602 73.6051 41.189C74.5018 38.1125 74.9731 34.5893 73.9487 31.4817C73.4922 30.094 72.7361 28.7717 71.5759 27.857C70.2856 26.8455 68.6522 26.376 67.0217 26.5478C63.5623 26.8997 61.0831 29.2398 59.1668 31.9644C57.1278 34.8544 55.3327 37.9456 53.531 40.9844C52.596 42.562 51.678 44.1488 50.7769 45.7448C49.9259 47.2536 49.1306 48.8 48.2502 50.2941C47.5302 51.5149 46.7578 52.4951 45.3603 52.9288C43.7418 53.4311 41.9794 53.5833 40.3053 53.8075C36.7297 54.2985 33.1328 54.7059 29.6096 55.5176C23.5548 56.9135 17.5 59.7216 13.8818 64.9893C12.049 67.6419 10.9886 70.7741 10.2359 73.8931C9.7024 76.099 9.27365 78.336 8.90709 80.5746C8.2427 84.633 7.72231 88.7159 7.19211 92.7923C6.56208 97.6492 5.9566 102.509 5.32494 107.366C5.17548 108.516 5.02438 109.666 4.87165 110.814C4.85528 110.942 4.83892 111.07 4.82092 111.196C4.78001 111.505 4.8291 111.137 4.79964 111.359C4.76201 111.642 4.72273 111.927 4.68509 112.21C4.61309 112.74 4.54 113.271 4.46581 113.801C4.21707 115.578 3.96179 117.355 3.67051 119.126C3.5625 119.78 3.44795 120.448 3.32195 121.106C3.19594 121.764 3.50523 122.431 4.17944 122.616C4.78001 122.78 5.56386 122.413 5.68986 121.759L5.68332 121.752Z" fill="#282A3A"/>
<path id="Path_27" d="M63.4756 76.9157C63.8999 74.6749 64.2654 72.4242 64.572 70.1638C64.6194 69.8218 64.6309 69.5289 64.4492 69.2179C64.285 68.9365 64.0155 68.7319 63.7002 68.6493C63.385 68.5667 63.0498 68.6129 62.7686 68.7777C62.5215 68.9414 62.2466 69.2032 62.2057 69.5109C61.898 71.7702 61.5326 74.0214 61.1093 76.2644C61.0307 76.5836 61.0751 76.9207 61.2337 77.2086C61.3967 77.4838 61.6591 77.6858 61.9668 77.7732C62.5706 77.9107 63.3496 77.5916 63.4756 76.9157Z" fill="#282A3A"/>
<path id="Path_28" d="M62.9912 76.1841C65.2822 75.7439 67.2459 74.078 68.2916 71.985C69.3373 69.8921 69.4846 67.4243 68.9626 65.1464C68.9151 64.9386 68.8464 64.7095 68.6631 64.6015C68.4193 64.4558 68.1083 64.6015 67.8661 64.7471C66.9985 65.2982 66.2578 66.0272 65.693 66.8859C65.1818 67.7099 64.7766 68.5951 64.4869 69.5206C63.8809 71.3039 63.4565 73.1439 63.2203 75.0124" fill="#282A3A"/>
<path id="Path_29" d="M63.3168 77.3609C65.0974 76.9794 66.7093 76.0385 67.9168 74.6755C69.2192 73.219 70.0608 71.4093 70.3355 69.4749C70.4922 68.4546 70.5159 67.4183 70.4059 66.3919C70.3514 65.8409 70.2601 65.2942 70.1326 64.7554C69.9248 63.9372 69.2555 63.2646 68.3587 63.3088C67.7172 63.3399 67.1821 63.6934 66.6895 64.0714C66.2578 64.3914 65.8568 64.7507 65.4917 65.1449C64.7525 65.991 64.1636 66.9573 63.7505 68.0021C62.8177 70.2277 62.2973 72.6218 61.993 75.0077C61.9553 75.2973 62.1566 75.6803 62.3513 75.8766C62.8315 76.3545 63.6075 76.3545 64.0876 75.8766C64.3013 75.6353 64.428 75.3294 64.4476 75.0077L64.4771 74.7753L64.4345 75.1026C64.7121 72.8899 65.2777 70.7229 66.1168 68.6567L65.994 68.9496C66.1569 68.5609 66.345 68.1831 66.557 67.8188C66.6601 67.6421 66.7697 67.4719 66.8843 67.305C66.917 67.2575 66.9514 67.2134 66.9841 67.1659C67.0806 67.0317 66.935 67.2183 66.917 67.2526C66.9749 67.1686 67.0413 67.0908 67.115 67.0203C67.3653 66.726 67.639 66.4524 67.9332 66.202C67.9676 66.1726 68.0019 66.1431 68.0379 66.1153C68.0739 66.0875 68.2016 65.9844 68.0478 66.1055C67.8939 66.2266 68.0478 66.1055 68.087 66.0777L68.1967 65.9975C68.3612 65.8759 68.5365 65.7697 68.7203 65.68L68.4258 65.8027C68.5078 65.7686 68.5934 65.7439 68.6811 65.7291L68.3538 65.7733C68.3956 65.7676 68.438 65.7676 68.4798 65.7733L68.1525 65.7291C68.1939 65.7341 68.2345 65.744 68.2736 65.7586L67.979 65.6358C68.1525 65.7209 67.8579 65.5164 67.8154 65.464C67.6861 65.3004 67.7859 65.4395 67.8154 65.4869L67.691 65.194C67.8355 65.6244 67.9284 66.0705 67.9676 66.5228L67.9234 66.1955C68.0494 67.1574 68.0494 68.1317 67.9234 69.0936L67.9676 68.7663C67.8573 69.6059 67.6372 70.4273 67.313 71.2095L67.4374 70.9166C67.235 71.3894 66.9902 71.8429 66.7059 72.2716C66.6372 72.373 66.5668 72.4745 66.4932 72.5743C66.4441 72.6414 66.2919 72.8214 66.5357 72.5219C66.4964 72.5694 66.4588 72.6185 66.4212 72.6659C66.2641 72.8569 66.1004 73.0407 65.9302 73.2174C65.76 73.3942 65.5795 73.5616 65.3886 73.7198C65.3035 73.7918 64.9565 74.0275 65.3018 73.7967C65.1987 73.8638 65.1038 73.9424 65.0024 74.0111C64.5984 74.2875 64.1681 74.5232 63.7178 74.7148L64.0107 74.592C63.5774 74.7721 63.1273 74.9092 62.6672 75.0011C62.0355 75.1255 61.6149 75.9126 61.8097 76.5099C62.0029 77.1528 62.6672 77.5304 63.3185 77.3674L63.3168 77.3609Z" fill="#282A3A"/>
</g>
<g id="Group_6">
<path id="Path_30" d="M23.7217 28.6229C24.3632 28.6229 24.9785 28.0583 24.949 27.3955C24.9376 26.7225 24.3948 26.1796 23.7217 26.1682C23.0786 26.1682 22.4649 26.7328 22.4944 27.3955C22.5057 28.0686 23.0486 28.6115 23.7217 28.6229Z" fill="#EAC36E"/>
<path id="Path_31" d="M25.3385 23.8952C26.0108 24.4906 26.6448 25.1279 27.2368 25.8032C27.3808 25.9669 27.5215 26.1305 27.6606 26.3024L27.8668 26.5576L27.9797 26.7C28.0812 26.8293 27.9519 26.6624 27.9208 26.6247C28.0681 26.8015 28.199 26.9929 28.3332 27.1795C28.4662 27.3491 28.5844 27.5298 28.6866 27.7195L28.5623 27.4266C28.5786 27.4637 28.5902 27.5027 28.5966 27.5428L28.5525 27.2155C28.5598 27.2577 28.5598 27.3009 28.5525 27.3431L28.5966 27.0158C28.589 27.0596 28.5752 27.102 28.5557 27.1418L28.6801 26.8489C28.5672 27.0522 28.4404 27.2474 28.3004 27.4331L28.1024 27.7195L27.9977 27.8602C27.8815 28.0141 27.983 27.8832 28.0386 27.8079C27.7536 28.1813 27.4494 28.5396 27.1271 28.8814C26.8162 29.2163 26.4889 29.5381 26.1453 29.8469C25.9696 30.0061 25.7923 30.16 25.6134 30.3083L25.3385 30.5276C25.1879 30.6471 25.3189 30.5456 25.3925 30.4884L25.2289 30.616C24.9605 30.7848 24.761 31.0435 24.6659 31.3458C24.5815 31.6652 24.6261 32.005 24.7903 32.2917C24.9525 32.5672 25.2153 32.7691 25.5234 32.8546C25.8229 32.9234 26.2107 32.925 26.4693 32.7319C27.8418 31.705 29.0621 30.489 30.094 29.1203C30.342 28.8085 30.5689 28.4805 30.7731 28.1384C31.1429 27.4839 31.0464 26.772 30.6258 26.1747C30.1233 25.4505 29.5814 24.7546 29.0025 24.0899C28.4042 23.4046 27.7625 22.7585 27.0813 22.1556C26.6018 21.7285 25.8131 21.6467 25.345 22.1556C24.9179 22.622 24.8328 23.4353 25.345 23.8903L25.3385 23.8952Z" fill="#EAC36E"/>
<path id="Path_32" d="M32.4717 23.0001C32.8105 23.4118 33.1827 23.7949 33.5845 24.1456C34.0312 24.535 34.5205 24.8656 34.9918 25.224L34.7431 25.0325C34.9216 25.1644 35.0831 25.3177 35.2242 25.4891L35.0311 25.2403C35.1011 25.3323 35.1609 25.4316 35.2095 25.5365L35.0851 25.2436C35.0965 25.2714 35.108 25.2976 35.1178 25.3254C35.211 25.6306 35.4115 25.8916 35.6824 26.0602C36.2681 26.401 37.0193 26.2034 37.3614 25.6183C37.5304 25.3339 37.5748 24.9923 37.4841 24.6741C37.31 24.1763 37.0053 23.7343 36.6021 23.3944C36.247 23.0999 35.8624 22.8495 35.4975 22.568L35.7462 22.7595C35.1792 22.3182 34.6628 21.8155 34.2063 21.2605C33.9761 21.0307 33.6643 20.9013 33.339 20.9005C33.014 20.9027 32.7028 21.0319 32.4717 21.2605C32.2415 21.4905 32.112 21.8024 32.1117 22.1278L32.1559 22.4551C32.2117 22.6613 32.3206 22.8492 32.4717 23.0001Z" fill="#EAC36E"/>
<path id="Path_33" d="M35.3862 28.1827C35.2684 28.3463 35.1505 28.5002 35.0294 28.6556L35.2209 28.4003C34.3323 29.5455 33.3414 30.6075 32.2606 31.5734C31.7795 32.0021 31.7909 32.8825 32.2606 33.308C32.7455 33.7727 33.5104 33.7727 33.9952 33.308C35.2968 32.1352 36.4731 30.8305 37.5054 29.4149C37.6713 29.1288 37.716 28.7883 37.6297 28.4691C37.5418 28.1617 37.3399 27.8995 37.0652 27.7359C36.779 27.5702 36.4386 27.5255 36.1193 27.6116C35.8187 27.7124 35.5605 27.9112 35.3862 28.1761V28.1827Z" fill="#EAC36E"/>
<path id="Path_34" d="M40.0189 22.5713C40.7706 23.3241 41.4895 24.1074 42.1757 24.9212C42.3437 25.123 42.5107 25.326 42.6765 25.53L42.9105 25.8245L43.048 26.0013C43.1838 26.1731 42.9252 25.8376 43.0169 25.9604C43.1805 26.1698 43.3343 26.3793 43.4898 26.592C43.662 26.7927 43.8107 27.0123 43.9333 27.2466L43.8122 26.9602L43.8302 27.024L43.786 26.6968C43.7948 26.7399 43.7948 26.7845 43.786 26.8277L43.8302 26.5004C43.8216 26.5436 43.8073 26.5854 43.7876 26.6247L43.912 26.3318C43.6281 26.8581 43.3127 27.3669 42.9678 27.8553C42.7932 28.1139 42.6137 28.3692 42.4294 28.6212C42.3443 28.739 42.2657 28.8536 42.1708 28.9698L42.0825 29.0843L42.1872 28.9501C42.1365 29.0172 42.0825 29.0827 42.0235 29.1481C41.2679 30.1 40.4437 30.9953 39.5574 31.827C39.084 32.3089 39.084 33.0813 39.5574 33.5632C40.0425 34.0289 40.8086 34.0289 41.2937 33.5632C42.7181 32.22 43.9881 30.7222 45.0804 29.0974C45.3357 28.7177 45.5806 28.3321 45.8152 27.9404C45.9737 27.6964 46.1002 27.4329 46.1915 27.1566C46.307 26.666 46.1979 26.1495 45.8937 25.7476C45.2915 24.8967 44.65 24.0719 43.9807 23.2717C43.276 22.4273 42.5336 21.6151 41.7535 20.835C41.2986 20.3801 40.4657 20.3441 40.0173 20.835C39.5499 21.3194 39.5499 22.0869 40.0173 22.5713H40.0189Z" fill="#EAC36E"/>
<path id="Path_35" d="M48.5447 23.5975C49.1862 23.5975 49.8015 23.0345 49.7721 22.3701C49.7607 21.6971 49.2178 21.1542 48.5447 21.1428C47.9033 21.1428 47.288 21.7074 47.3174 22.3701C47.3279 23.0436 47.8713 23.5869 48.5447 23.5975Z" fill="#EAC36E"/>
<path id="Path_36" d="M51.1761 28.2481C51.8176 28.2481 52.4329 27.6835 52.4034 27.0208C52.392 26.3477 51.8492 25.8048 51.1761 25.7935C50.5346 25.7935 49.9193 26.358 49.9488 27.0208C49.9601 27.6938 50.503 28.2367 51.1761 28.2481Z" fill="#EAC36E"/>
<path id="Path_37" d="M49.2942 33.4225C49.9373 33.4225 50.551 32.858 50.5215 32.1952C50.5101 31.5222 49.9673 30.9793 49.2942 30.9679C48.6527 30.9679 48.0374 31.5325 48.0669 32.1952C48.0782 32.8683 48.6211 33.4112 49.2942 33.4225Z" fill="#EAC36E"/>
<path id="Path_38" d="M53.9139 23.0836C54.5315 23.6393 55.1156 24.2311 55.6632 24.8558C55.9299 25.1602 56.1836 25.4728 56.434 25.7886C56.5272 25.9081 56.2441 25.5399 56.398 25.7444L56.4863 25.8606C56.5452 25.9392 56.6025 26.0243 56.6598 26.0979C56.7939 26.2675 56.9143 26.4475 57.0198 26.6363L56.8971 26.3434C56.9241 26.4075 56.9438 26.4745 56.956 26.543L56.9118 26.2157C56.9167 26.2603 56.9167 26.3053 56.9118 26.3499L56.956 26.0226C56.9422 26.0883 56.9236 26.1528 56.9003 26.2157L57.0231 25.9228C56.7682 26.4381 56.4824 26.9376 56.1672 27.4185C55.8661 27.9225 55.5579 28.4227 55.2426 28.9191C54.6132 29.9119 53.9586 30.8883 53.2789 31.8483C53.1148 32.1295 53.0691 32.4645 53.152 32.7793C53.2349 33.0942 53.4395 33.3633 53.7208 33.5273C54.3508 33.8546 55.0021 33.6484 55.3997 33.0871C56.4111 31.659 57.3673 30.1939 58.2684 28.6916C58.4975 28.3098 58.7222 27.928 58.9426 27.5461C59.2699 26.9897 59.5121 26.3695 59.2814 25.7264C59.1177 25.2682 58.8133 24.8918 58.5221 24.5089C58.2308 24.126 57.9166 23.7234 57.5958 23.3454C56.9931 22.6388 56.3448 21.9725 55.655 21.3506C55.1788 20.9202 54.3835 20.8449 53.9188 21.3506C53.4884 21.8203 53.4098 22.627 53.9188 23.0869L53.9139 23.0836Z" fill="#EAC36E"/>
<path id="Path_39" d="M61.6869 23.491C62.33 23.491 62.9437 22.9265 62.9142 22.2637C62.9037 21.5903 62.3603 21.0469 61.6869 21.0364C61.0454 21.0364 60.4301 21.6009 60.4596 22.2637C60.4718 22.9364 61.0142 23.4788 61.6869 23.491Z" fill="#EAC36E"/>
</g>
<g id="Group_7">
<path id="Path_40" d="M84.6919 70.5989C85.2341 70.5989 85.6737 70.1593 85.6737 69.617C85.6737 69.0747 85.2341 68.6351 84.6919 68.6351C84.1496 68.6351 83.71 69.0747 83.71 69.617C83.7153 70.157 84.1518 70.5935 84.6919 70.5989Z" fill="#ED7A7A"/>
<path id="Path_41" d="M83.4548 75.099C83.997 75.099 84.4366 74.6594 84.4366 74.1171C84.4366 73.5748 83.997 73.1353 83.4548 73.1353C82.9125 73.1353 82.4729 73.5748 82.4729 74.1171C82.4782 74.6572 82.9147 75.0937 83.4548 75.099Z" fill="#ED7A7A"/>
<path id="Path_42" d="M81.5417 79.4863C82.084 79.4863 82.5236 79.0467 82.5236 78.5044C82.5236 77.9622 82.084 77.5226 81.5417 77.5226C80.9995 77.5226 80.5599 77.9622 80.5599 78.5044C80.5652 79.0445 81.0017 79.481 81.5417 79.4863Z" fill="#ED7A7A"/>
<path id="Path_43" d="M87.6375 70.3893C87.9402 70.6872 88.2299 70.9965 88.5048 71.3205C88.6275 71.4628 88.747 71.6101 88.8632 71.7574C88.9794 71.9047 88.8435 71.7443 88.8403 71.7263C88.8403 71.7492 88.9074 71.8147 88.9254 71.8392C88.9957 71.9341 89.0661 72.0291 89.1332 72.1256C89.6113 72.7974 90.0307 73.5092 90.3867 74.253C90.4063 74.2955 90.426 74.3381 90.4472 74.3806L90.4767 74.4444C90.3811 74.3038 90.3954 74.1158 90.5111 73.9911C90.6387 73.4838 90.6011 73.6475 90.4211 73.8275C90.241 74.0075 90.0774 74.1695 89.9023 74.3397C89.5914 74.6424 89.2755 74.9419 88.9581 75.2381C88.3035 75.849 87.6348 76.4441 86.9518 77.0234C86.5623 77.3507 86.1685 77.678 85.7703 78.0053C85.5707 78.1657 85.3705 78.3244 85.1697 78.4815L84.8965 78.6942C84.7737 78.7908 85.0814 78.5535 84.8834 78.7057L84.7001 78.8448C84.4858 78.9817 84.3265 79.1897 84.2501 79.4323C84.1817 79.6874 84.217 79.9592 84.3483 80.1883C84.6068 80.5909 85.2548 80.874 85.6918 80.5401C87.284 79.3259 88.8223 78.0446 90.2901 76.6814C90.6371 76.3541 90.9802 76.0269 91.3195 75.6996C91.7515 75.2774 92.3569 74.8274 92.3619 74.1662C92.3619 73.6393 92.0084 73.0862 91.7613 72.6313C91.5502 72.2369 91.3178 71.8523 91.0707 71.4858C90.4754 70.5901 89.79 69.7577 89.0252 69.0017C88.6406 68.6237 88.0233 68.6266 87.6423 69.0081C87.2613 69.3895 87.2591 70.0069 87.6375 70.391V70.3893Z" fill="#ED7A7A"/>
<path id="Path_44" d="M94.3256 70.2175L96.1584 72.4807C96.7459 73.204 97.3039 73.9142 98.0698 74.464C98.487 74.7651 99.1809 74.5507 99.4133 74.1122C99.6816 73.6049 99.5065 73.091 99.0598 72.7687C98.9518 72.6918 99.0598 72.7539 99.0925 72.7981C99.0729 72.7621 98.9927 72.7163 98.9583 72.6868C98.8896 72.6263 98.8209 72.5641 98.7538 72.4987C98.6049 72.3546 98.4625 72.1992 98.3267 72.0421C98.0403 71.7148 97.7703 71.3679 97.497 71.0291L95.7133 68.8281C95.386 68.4272 94.6578 68.4648 94.3256 68.8281C93.9345 69.2536 93.9787 69.7887 94.3256 70.2175Z" fill="#ED7A7A"/>
<path id="Path_45" d="M94.7347 80.9002C95.6868 80.0946 96.5779 79.2194 97.4004 78.2819C97.5797 78.0947 97.6825 77.8472 97.6884 77.588C97.6861 77.3281 97.5828 77.0793 97.4004 76.8942C97.2163 76.7098 96.9664 76.6062 96.7058 76.6062C96.4452 76.6062 96.1953 76.7098 96.0111 76.8942C95.1887 77.8313 94.2983 78.7065 93.347 79.5125C93.0654 79.7931 92.9808 80.2159 93.1328 80.5833C93.2847 80.9506 93.6433 81.1901 94.0408 81.1898C94.2987 81.1778 94.5441 81.0759 94.7347 80.9018V80.9002Z" fill="#ED7A7A"/>
<path id="Path_46" d="M102.017 70.5989C102.559 70.5989 102.999 70.1593 102.999 69.617C102.999 69.0747 102.559 68.6351 102.017 68.6351C101.475 68.6351 101.035 69.0747 101.035 69.617C101.042 70.1563 101.478 70.5918 102.017 70.5989Z" fill="#ED7A7A"/>
<path id="Path_47" d="M103.346 73.4626L103.424 73.5608C103.436 73.5738 103.563 73.7375 103.463 73.6082C103.364 73.4789 103.463 73.6082 103.481 73.6328L103.557 73.7342C103.666 73.8848 103.773 74.0402 103.876 74.1973C104.075 74.5028 104.259 74.8185 104.426 75.1432L104.579 73.9535L103.089 75.5294C102.735 75.9025 102.691 76.5522 103.089 76.9171C103.476 77.2922 104.091 77.2922 104.478 76.9171L105.969 75.3412C106.274 75.0207 106.336 74.5392 106.123 74.1515C105.733 73.413 105.267 72.717 104.733 72.0749C104.549 71.8907 104.3 71.7871 104.039 71.7869C103.497 71.7869 103.058 72.2265 103.058 72.7687C103.071 73.0262 103.173 73.2712 103.346 73.4626Z" fill="#ED7A7A"/>
<path id="Path_48" d="M102.017 80.3863C102.559 80.3863 102.999 79.9467 102.999 79.4045C102.999 78.8622 102.559 78.4226 102.017 78.4226C101.475 78.4226 101.035 78.8622 101.035 79.4045C101.042 79.9438 101.478 80.3793 102.017 80.3863Z" fill="#ED7A7A"/>
<path id="Path_49" d="M107.502 69.3109C108.811 70.7161 110.074 72.161 111.29 73.6458C111.358 73.726 111.425 73.8095 111.49 73.8897L111.614 74.0418L111.639 74.0729C111.714 74.1646 111.706 74.1548 111.618 74.0418C111.639 74.0418 111.677 74.1498 111.688 74.1564C111.585 74.1089 111.657 73.6098 111.631 73.708C111.621 73.7424 111.731 73.4609 111.754 73.4871C111.776 73.5133 111.626 73.6196 111.61 73.636L110.543 74.7095L108.438 76.8254L106.075 79.2015C105.697 79.5856 105.699 80.2029 106.08 80.5844C106.461 80.9659 107.078 80.9687 107.463 80.5908L111.96 76.0694C112.325 75.7012 112.695 75.3379 113.055 74.9664C113.288 74.7506 113.458 74.475 113.545 74.1695C113.663 73.7015 113.485 73.2613 113.205 72.898C112.572 72.0798 111.896 71.291 111.215 70.5071C110.459 69.6344 109.687 68.7731 108.9 67.9232C108.715 67.7388 108.466 67.6353 108.205 67.6353C107.944 67.6353 107.694 67.7388 107.51 67.9232C107.139 68.3112 107.139 68.923 107.51 69.3109H107.502Z" fill="#ED7A7A"/>
<path id="Path_50" d="M115.241 69.5548C116.171 70.5912 117.099 71.6276 118.023 72.664C118.254 72.9237 118.484 73.1844 118.713 73.4463C118.82 73.5657 118.921 73.6934 119.032 73.8095C119.103 73.8848 118.982 73.7424 118.98 73.7375C118.995 73.7662 119.013 73.7931 119.034 73.8177C119.052 73.8439 119.068 73.8734 119.085 73.8995C119.163 74.0174 119.057 73.8783 119.067 73.8374C119.067 73.8243 119.096 73.9568 119.099 73.9585C119.103 73.9601 119.068 73.749 119.075 73.857C119.081 73.965 119.083 73.7604 119.091 73.7539C119.078 73.7829 119.069 73.8138 119.065 73.8455C119.044 73.9437 119.09 73.7654 119.101 73.7588C119.086 73.7588 119.062 73.8308 119.054 73.8455C119.045 73.8603 119.019 73.9028 119.001 73.9306L118.959 73.9928C119.039 73.8783 118.91 74.0468 118.885 74.0746C118.834 74.1352 118.782 74.1941 118.721 74.253L118.345 74.6834L116.766 76.5113C116.429 76.8975 116.358 77.5242 116.766 77.899C117.137 78.2394 117.794 78.3114 118.155 77.899L119.687 76.148C120.256 75.4934 120.937 74.8716 121.029 73.9666C121.12 73.0862 120.42 72.4333 119.883 71.8393L118.365 70.1259C117.785 69.4714 117.205 68.8228 116.624 68.1802C116.24 67.7974 115.619 67.7974 115.236 68.1802C114.863 68.5684 114.863 69.1814 115.236 69.5695L115.241 69.5548Z" fill="#ED7A7A"/>
<path id="Path_51" d="M115.403 81.0605C115.945 81.0605 116.385 80.6209 116.385 80.0787C116.385 79.5364 115.945 79.0968 115.403 79.0968C114.861 79.0968 114.421 79.5364 114.421 80.0787C114.427 80.6183 114.863 81.0543 115.403 81.0605Z" fill="#ED7A7A"/>
<path id="Path_52" d="M122.153 70.5989C122.695 70.5989 123.135 70.1593 123.135 69.617C123.135 69.0747 122.695 68.6351 122.153 68.6351C121.611 68.6351 121.171 69.0747 121.171 69.617C121.178 70.1563 121.614 70.5918 122.153 70.5989Z" fill="#ED7A7A"/>
<path id="Path_53" d="M125.771 73.9109L125.884 73.7997C126.253 73.4098 126.253 72.8002 125.884 72.4103L125.685 72.2565C125.536 72.1694 125.366 72.1231 125.194 72.1223L124.932 72.1583C124.768 72.2034 124.618 72.2902 124.498 72.4103L124.387 72.5232C124.293 72.6089 124.223 72.7178 124.184 72.8391C124.122 72.9552 124.093 73.0858 124.099 73.2171C124.093 73.3485 124.122 73.4791 124.184 73.5951C124.222 73.7165 124.292 73.8256 124.387 73.9109L124.585 74.0648C124.734 74.1527 124.903 74.199 125.076 74.1989L125.336 74.1646C125.5 74.1191 125.65 74.0317 125.77 73.9109H125.771Z" fill="#ED7A7A"/>
<path id="Path_54" d="M123.506 78.362C124.049 78.362 124.488 77.9224 124.488 77.3802C124.488 76.8379 124.049 76.3983 123.506 76.3983C122.964 76.3983 122.525 76.8379 122.525 77.3802C122.53 77.9202 122.966 78.3567 123.506 78.362Z" fill="#ED7A7A"/>
<path id="Path_55" d="M120.803 81.5105C121.345 81.5105 121.785 81.0709 121.785 80.5286C121.785 79.9863 121.345 79.5468 120.803 79.5468C120.261 79.5468 119.821 79.9863 119.821 80.5286C119.828 81.0679 120.264 81.5034 120.803 81.5105Z" fill="#ED7A7A"/>
</g>
<g id="Group_8">
<path id="Path_56" d="M63.6604 1.27315L65.7584 8.72383C65.922 9.33094 66.8777 9.07402 66.7058 8.46363L64.6079 1.01132C64.4361 0.404203 63.4886 0.662759 63.6604 1.27315Z" fill="#C4C4C4"/>
<path id="Path_57" d="M72.3336 0.49093V2.17809C72.3336 2.44922 72.5534 2.66902 72.8245 2.66902C73.0956 2.66902 73.3154 2.44922 73.3154 2.17809V0.49093C73.3154 0.219797 73.0956 0 72.8245 0C72.5534 0 72.3336 0.219797 72.3336 0.49093Z" fill="#C4C4C4"/>
<path id="Path_58" d="M72.993 6.21355C73.6247 6.21355 73.6263 5.23169 72.993 5.23169C72.3597 5.23169 72.3597 6.21355 72.993 6.21355Z" fill="#C4C4C4"/>
<path id="Path_59" d="M81.239 2.02417C80.5659 3.61806 80.0187 5.26225 79.6025 6.94165C79.4504 7.55531 80.3979 7.81714 80.5484 7.20184C80.9649 5.52521 81.5121 3.88376 82.1848 2.29254C82.2879 2.04708 82.0736 1.75252 81.8412 1.6887C81.5809 1.62303 81.3149 1.77367 81.2373 2.03071L81.239 2.02417Z" fill="#C4C4C4"/>
<path id="Path_60" d="M86.829 6.55059C87.4607 6.55059 87.4623 5.56873 86.829 5.56873C86.1957 5.56873 86.1974 6.55059 86.829 6.55059Z" fill="#C4C4C4"/>
<path id="Path_61" d="M58.1522 5.6914L58.3158 6.19869C58.3305 6.25969 58.3603 6.31599 58.4026 6.36234C58.4373 6.41565 58.4852 6.45906 58.5417 6.48834C58.5958 6.5239 58.6586 6.54425 58.7233 6.54725C58.7876 6.5644 58.8553 6.5644 58.9197 6.54725L59.0359 6.49653C59.2276 6.38445 59.3202 6.15764 59.2617 5.94341L59.098 5.43612C59.0829 5.37496 59.0525 5.31865 59.0097 5.27247C58.9751 5.21965 58.9278 5.17633 58.8722 5.14647C58.7557 5.08677 58.6221 5.06942 58.4942 5.09738L58.3764 5.14647C58.3036 5.18972 58.2429 5.25047 58.1996 5.3232C58.1341 5.43781 58.1164 5.57367 58.1505 5.70122L58.1522 5.6914Z" fill="#C4C4C4"/>
<path id="Path_62" d="M60.6756 10.6008C61.3073 10.6008 61.3073 9.6189 60.6756 9.6189C60.0439 9.6189 60.0423 10.6008 60.6756 10.6008Z" fill="#C4C4C4"/>
<path id="Path_63" d="M6.23967 68.9592C6.67823 65.2445 8.93324 62.0518 11.3044 59.2879C12.0097 58.4697 12.7396 57.6662 13.4727 56.8709C13.6589 56.6771 13.6589 56.3708 13.4727 56.177C13.281 55.9856 12.9705 55.9856 12.7789 56.177C10.1344 59.0457 7.42281 62.0567 6.03021 65.7632C5.64368 66.7932 5.3843 67.8664 5.25781 68.9592C5.22672 69.2227 5.50655 69.4501 5.74874 69.4501C6.01697 69.4432 6.23279 69.2274 6.23967 68.9592Z" fill="#C4C4C4"/>
<path id="Path_64" d="M2.70009 62.0698C3.0812 60.4896 3.87131 59.0375 4.99109 57.8592C5.42639 57.401 4.73417 56.7137 4.29725 57.1637C3.05745 58.4628 2.18103 60.0649 1.75587 61.8096C1.60695 62.4232 2.55281 62.6851 2.70173 62.0698H2.70009Z" fill="#C4C4C4"/>
<path id="Path_65" d="M7.9743 55.0348C8.60596 55.0348 8.60596 54.053 7.9743 54.053C7.34264 54.053 7.341 55.0348 7.9743 55.0348Z" fill="#C4C4C4"/>
<path id="Path_66" d="M5.04669 74.384C5.67835 74.384 5.67999 73.4021 5.04669 73.4021C4.41339 73.4021 4.41502 74.384 5.04669 74.384Z" fill="#C4C4C4"/>
<path id="Path_67" d="M66.5177 114.86C69.1855 113.346 71.4632 111.231 73.1698 108.682C73.6392 107.979 74.0618 107.245 74.4347 106.486C74.5638 106.25 74.4862 105.955 74.258 105.813C74.0239 105.677 73.7236 105.756 73.587 105.99C72.3074 108.604 70.4333 110.883 68.1148 112.642C67.448 113.144 66.7488 113.602 66.0218 114.012C65.4703 114.323 65.9662 115.17 66.5127 114.86H66.5177Z" fill="#C4C4C4"/>
<path id="Path_68" d="M74.6622 116.277C76.3933 114.876 77.7196 113.039 78.5045 110.955C78.5391 110.829 78.5223 110.695 78.4579 110.582C78.3934 110.469 78.2866 110.386 78.1609 110.351C77.9004 110.285 77.6339 110.436 77.557 110.693C76.816 112.613 75.5767 114.301 73.9667 115.583C73.7589 115.746 73.7932 116.103 73.9667 116.277C74.1608 116.462 74.4664 116.462 74.6605 116.277H74.6622Z" fill="#C4C4C4"/>
</g>
<g id="Group_9">
<path id="Path_69" d="M20.6485 65.279C21.2801 65.279 21.2818 64.2971 20.6485 64.2971C20.0152 64.2971 20.0152 65.279 20.6485 65.279Z" fill="#282A3A"/>
<path id="Path_70" d="M28.0337 62.8964L28.1973 62.7327C28.2456 62.6886 28.2808 62.632 28.2988 62.5691C28.33 62.5109 28.3447 62.4452 28.3413 62.3793C28.3448 62.3138 28.3301 62.2487 28.2988 62.1911C28.281 62.1281 28.2458 62.0714 28.1973 62.0274L28.0991 61.9505C28.0237 61.9064 27.9378 61.8832 27.8504 61.8834L27.7211 61.9014C27.6389 61.9238 27.5639 61.9672 27.5035 62.0274L27.3398 62.1911C27.2926 62.2361 27.2577 62.2924 27.2384 62.3547C27.2085 62.4134 27.1944 62.4788 27.1975 62.5445C27.1942 62.6098 27.2084 62.6747 27.2384 62.7327C27.2575 62.7951 27.2925 62.8515 27.3398 62.8964L27.4397 62.9733C27.5151 63.0174 27.601 63.0406 27.6884 63.0404L27.8177 63.0224C27.8999 63 27.9749 62.9566 28.0353 62.8964H28.0337Z" fill="#282A3A"/>
<path id="Path_71" d="M36.1635 61.7607C36.7951 61.7607 36.7951 60.7788 36.1635 60.7788C35.5318 60.7788 35.5302 61.7607 36.1635 61.7607Z" fill="#282A3A"/>
<path id="Path_72" d="M58.6072 80.0724C59.2389 80.9316 60.1279 81.5672 61.1453 81.8872C61.2709 81.9218 61.4052 81.905 61.5184 81.8405C61.6317 81.7761 61.7147 81.6692 61.7491 81.5435C61.8148 81.2832 61.6641 81.0172 61.4071 80.9397C61.2991 80.9069 61.1911 80.8693 61.0798 80.8268L61.0471 80.8137L61.0814 80.8284C61.0613 80.8155 61.0392 80.8061 61.016 80.8006L60.8703 80.7318C60.6671 80.6302 60.4713 80.5143 60.2845 80.3849C60.2391 80.3565 60.1959 80.3248 60.1552 80.29C60.1781 80.3129 60.2158 80.3375 60.1683 80.2998L60.0996 80.2442C60.0112 80.1705 59.9359 80.0953 59.8459 80.0167C59.7559 79.9382 59.6937 79.8645 59.6217 79.7843C59.5825 79.7402 59.5432 79.6943 59.5056 79.6485L59.4614 79.5912C59.3845 79.4963 59.5236 79.6763 59.4499 79.5782C59.3826 79.4702 59.2786 79.39 59.157 79.3523C59.0295 79.3171 58.8932 79.3348 58.779 79.4014C58.5761 79.5323 58.4386 79.8531 58.6022 80.0724H58.6072Z" fill="#282A3A"/>
<path id="Path_73" d="M57.9411 84.3091L58.7413 84.4727C58.869 84.5043 59.0039 84.4868 59.1193 84.4237C59.229 84.3574 59.3097 84.2522 59.3452 84.1291C59.379 84.0013 59.3607 83.8654 59.2944 83.7511C59.23 83.6405 59.1249 83.5595 59.0015 83.5253L58.2029 83.3616C58.0753 83.3297 57.9402 83.3473 57.8249 83.4107C57.714 83.4756 57.6329 83.5813 57.5991 83.7053C57.5269 83.9664 57.68 84.2367 57.9411 84.3091Z" fill="#282A3A"/>
<path id="Path_74" d="M3.5003 113.775C18.6936 110.239 34.4552 109.895 49.7884 112.763C51.3152 113.051 52.8829 113.388 54.1593 114.275C56.2523 115.727 57.1835 118.651 56.3145 121.045C56.1985 121.443 55.9715 121.8 55.6599 122.073C55.1903 122.433 54.5504 122.441 53.9597 122.436L6.43606 121.972C5.31183 121.96 4.06814 121.903 3.25974 121.121C2.4137 120.302 2.35316 118.954 2.60517 117.802C2.85718 116.65 3.35793 115.547 3.44302 114.365" fill="#282A3A"/>
<path id="Path_75" d="M3.82759 114.958C5.75639 114.508 7.69666 114.11 9.64838 113.762C10.6237 113.588 11.6012 113.428 12.5809 113.28C13.0882 113.203 13.5955 113.13 14.1027 113.063C14.3482 113.028 13.9391 113.084 14.1829 113.051L14.538 113.004L15.3006 112.909C23.1914 111.94 31.1625 111.807 39.0812 112.513C40.0631 112.601 41.0488 112.702 42.0383 112.816C42.5303 112.872 43.0212 112.933 43.5111 112.997L43.8678 113.043C44.0544 113.068 43.66 113.015 43.8449 113.043L43.9971 113.063C44.2524 113.097 44.506 113.133 44.7597 113.171C46.6759 113.446 48.602 113.742 50.4954 114.153C50.929 114.248 51.3594 114.356 51.7832 114.488C51.9862 114.554 52.1874 114.622 52.3854 114.699C52.4411 114.722 52.5016 114.742 52.5491 114.768C52.5491 114.768 52.3396 114.673 52.464 114.734C52.5884 114.794 52.7111 114.848 52.8322 114.91C53.0073 115.002 53.1775 115.099 53.3444 115.205C53.4295 115.259 53.508 115.316 53.5948 115.369C53.6327 115.402 53.6738 115.433 53.7175 115.459C53.67 115.442 53.5195 115.295 53.6455 115.406C53.9335 115.657 54.161 115.953 54.4343 116.211C54.4343 116.211 54.2804 116.004 54.3573 116.112C54.3786 116.143 54.4015 116.172 54.4244 116.203C54.4833 116.285 54.539 116.367 54.5881 116.452C54.6912 116.616 54.7845 116.779 54.8712 116.943C54.9121 117.021 54.9514 117.106 54.989 117.18C55.0037 117.214 55.0185 117.249 55.0348 117.283C55.0937 117.404 54.9841 117.157 54.9857 117.164C55.043 117.355 55.1281 117.54 55.1854 117.733C55.2361 117.897 55.2803 118.074 55.3163 118.245C55.331 118.319 55.3458 118.394 55.3572 118.468C55.3622 118.518 55.3704 118.568 55.3818 118.617C55.349 118.527 55.349 118.349 55.3703 118.553C55.4063 118.915 55.4096 119.28 55.3801 119.643C55.3801 119.694 55.3408 120 55.367 119.779C55.3932 119.558 55.349 119.869 55.3408 119.913C55.3049 120.098 55.259 120.281 55.2034 120.461C55.1772 120.544 55.1494 120.628 55.1199 120.712L55.0757 120.828C55.0201 120.983 55.1821 120.62 55.1003 120.764C55.0528 120.847 55.0086 120.928 54.9612 121.019C54.9432 121.052 54.8548 121.153 54.9612 121.029C55.0676 120.905 54.9236 121.058 54.8974 121.09C54.8712 121.121 54.7632 121.207 54.8974 121.099C55.0316 120.991 54.8974 121.099 54.8499 121.119C54.8111 121.134 54.7738 121.153 54.7386 121.175C54.773 121.142 55.0005 121.093 54.7992 121.137C54.7468 121.148 54.4375 121.198 54.6355 121.183C54.665 121.183 54.8335 121.168 54.6355 121.183L54.4212 121.196C53.9433 121.216 53.4622 121.196 52.986 121.196L46.7676 121.135L34.3209 121.022L21.8234 120.9L9.38655 120.779C8.36378 120.767 7.33937 120.762 6.3166 120.748C6.12514 120.748 5.93531 120.748 5.74385 120.731L5.45747 120.713L5.33474 120.702C5.07782 120.677 5.3511 120.671 5.37565 120.712C5.34783 120.666 4.88472 120.62 4.82254 120.602C4.76035 120.584 4.64417 120.551 4.55744 120.522C4.52187 120.504 4.48457 120.491 4.44616 120.481C4.68671 120.52 4.59835 120.548 4.49034 120.494C4.40874 120.453 4.32952 120.408 4.25306 120.358C4.21152 120.326 4.16837 120.297 4.12378 120.27C4.12378 120.27 4.30379 120.433 4.21869 120.338C4.15651 120.273 4.08614 120.208 4.02068 120.145C3.95523 120.083 3.96996 120.003 4.06814 120.214C4.04168 120.17 4.01273 120.128 3.98141 120.088C3.93395 120.013 3.89141 119.934 3.85213 119.856C3.72122 119.589 3.89959 120.034 3.84231 119.829C3.8194 119.743 3.78831 119.666 3.76704 119.571C3.75722 119.533 3.74904 119.496 3.74086 119.456C3.73267 119.417 3.69994 119.175 3.72285 119.388C3.74576 119.6 3.72285 119.286 3.7114 119.235C3.7114 119.144 3.70322 119.051 3.70322 118.957C3.70322 118.756 3.74249 118.553 3.73922 118.355C3.73922 118.381 3.69013 118.656 3.7294 118.443L3.74904 118.326C3.76704 118.229 3.78668 118.133 3.80959 118.036C3.86359 117.797 3.92904 117.56 3.99778 117.322C4.28415 116.341 4.58525 115.398 4.66871 114.377C4.72108 113.735 4.06651 113.122 3.44139 113.15C2.73118 113.181 2.27134 113.69 2.21406 114.377C2.21542 114.442 2.20939 114.508 2.19606 114.572C2.19606 114.572 2.2337 114.339 2.20752 114.488C2.18788 114.599 2.16988 114.712 2.14697 114.824C2.0946 115.081 2.02751 115.334 1.95551 115.585C1.82132 116.059 1.66586 116.527 1.53822 117.002C1.25798 117.96 1.19205 118.969 1.34512 119.955C1.51969 120.966 2.09889 121.861 2.94882 122.435C3.74413 122.981 4.76363 123.132 5.70294 123.184C6.69625 123.238 7.69611 123.215 8.68943 123.225L11.9067 123.258L18.3427 123.32L31.1609 123.446L44.0315 123.572L50.4675 123.634L53.6864 123.665C54.7648 123.677 55.9594 123.624 56.7302 122.749C57.951 121.361 58.0671 119.149 57.6548 117.422C57.2404 115.716 56.2167 114.22 54.7763 113.215C53.1775 112.104 51.1761 111.77 49.304 111.433C47.2127 111.055 45.1099 110.741 43.0021 110.477C34.8575 109.465 26.6269 109.342 18.4557 110.111C14.2977 110.5 10.164 111.115 6.07277 111.953C5.10182 112.153 4.13414 112.366 3.16974 112.592C2.51994 112.776 2.13824 113.448 2.31225 114.1C2.50404 114.745 3.17067 115.124 3.82268 114.958H3.82759Z" fill="#282A3A"/>
</g>
</g>
</svg>
