<svg width="44" height="45" viewBox="0 0 44 45" fill="none" xmlns="http://www.w3.org/2000/svg">
<g filter="url(#filter0_b)">
<path d="M40.0416 4.0211C37.797 1.90685 34.818 0.828155 31.7971 1.02232H12.2032C9.16135 0.828155 6.18241 1.90685 3.93771 4.0211C1.88182 6.32951 0.832898 9.39301 1.0217 12.5212V32.6713C0.832898 35.7995 1.88182 38.863 3.93771 41.1714C6.18241 43.2857 9.16135 44.3644 12.2032 44.1702H31.7971C34.818 44.3644 37.8179 43.2857 40.0626 41.1714C42.0975 38.863 43.1674 35.7995 42.9786 32.6713V12.5212C43.1465 9.39301 42.0975 6.32951 40.0416 4.0211Z" fill="url(#paint0_linear)"/>
<path d="M40.3025 3.7888C40.2957 3.78117 40.2886 3.77384 40.2811 3.76684C37.9698 1.58984 34.901 0.475973 31.786 0.673032H12.2143C9.07873 0.475999 6.00985 1.58956 3.69823 3.76684C3.69079 3.77384 3.68367 3.78117 3.67687 3.7888C1.56038 6.16526 0.481115 9.31606 0.672416 12.5317V32.6609C0.481115 35.8765 1.56038 39.0273 3.67687 41.4038C3.68367 41.4114 3.69079 41.4187 3.69823 41.4257C6.00984 43.603 9.07873 44.7165 12.2143 44.5195H31.786C34.9005 44.7165 37.9904 43.6031 40.3021 41.4257C40.31 41.4183 40.3175 41.4105 40.3246 41.4024C42.418 39.0277 43.5193 35.878 43.3279 32.6609V12.5305C43.4979 9.31612 42.4193 6.16557 40.3025 3.7888Z" stroke="url(#paint1_linear)" stroke-width="0.698576" stroke-linecap="round" stroke-linejoin="round"/>
</g>
<path d="M12.9535 31.9739H32.3584C34.733 31.9739 35.9901 30.7276 35.9901 28.3745V17.0818C35.9901 14.7287 34.733 13.4716 32.3584 13.4716H29.5003C28.673 13.4716 28.3829 13.3319 27.8456 12.7839L26.9968 11.9029C26.4273 11.3119 25.8471 11.0325 24.7619 11.0325H20.4962C19.411 11.0325 18.8308 11.3119 18.2614 11.9029L17.4125 12.7839C16.8753 13.3319 16.5852 13.4716 15.7578 13.4716H12.9535C10.5789 13.4716 9.31102 14.7287 9.31102 17.0818V28.3745C9.31102 30.7276 10.5789 31.9739 12.9535 31.9739ZM13.1576 29.5886C12.2228 29.5886 11.7071 29.1051 11.7071 28.1166V17.3289C11.7071 16.3404 12.2228 15.8569 13.1576 15.8569H16.4992C17.4662 15.8569 17.9498 15.6957 18.487 15.1048L19.2928 14.2345C19.8838 13.6005 20.2276 13.4286 21.1624 13.4286H24.0957C25.0305 13.4286 25.3636 13.6005 25.9438 14.2237L26.7712 15.1048C27.3084 15.6957 27.7919 15.8569 28.7589 15.8569H32.1542C33.089 15.8569 33.6048 16.3404 33.6048 17.3289V28.1166C33.6048 29.1051 33.089 29.5886 32.1542 29.5886H13.1576ZM22.6559 28.2455C25.8471 28.2455 28.4043 25.6883 28.4043 22.4756C28.4043 19.2737 25.8471 16.7057 22.6559 16.7057C19.4648 16.7057 16.8968 19.2737 16.8968 22.4756C16.8968 25.6883 19.4648 28.2455 22.6559 28.2455ZM28.7267 18.6935C28.7267 19.4886 29.3821 20.1225 30.1665 20.1225C30.9401 20.1118 31.5955 19.4886 31.5955 18.6935C31.5955 17.9199 30.9401 17.2645 30.1665 17.2645C29.3821 17.2645 28.7267 17.9199 28.7267 18.6935ZM22.6559 26.1073C20.6574 26.1073 19.035 24.4956 19.035 22.4756C19.035 20.4664 20.6467 18.8439 22.6559 18.8439C24.6652 18.8439 26.2769 20.4664 26.2769 22.4756C26.2769 24.4956 24.6652 26.1073 22.6559 26.1073Z" fill="url(#paint2_linear)"/>
<defs>
<filter id="filter0_b" x="-10.8757" y="-10.8758" width="65.7516" height="66.9441" filterUnits="userSpaceOnUse" color-interpolation-filters="sRGB">
<feFlood flood-opacity="0" result="BackgroundImageFix"/>
<feGaussianBlur in="BackgroundImage" stdDeviation="5.58861"/>
<feComposite in2="SourceAlpha" operator="in" result="effect1_backgroundBlur"/>
<feBlend mode="normal" in="SourceGraphic" in2="effect1_backgroundBlur" result="shape"/>
</filter>
<linearGradient id="paint0_linear" x1="42.9146" y1="10.0815" x2="-10.8758" y2="35.2302" gradientUnits="userSpaceOnUse">
<stop stop-color="#99A4C0"/>
<stop offset="1" stop-color="#99A4C0" stop-opacity="0"/>
</linearGradient>
<linearGradient id="paint1_linear" x1="7.68572" y1="6.03199" x2="35.3906" y2="39.3977" gradientUnits="userSpaceOnUse">
<stop stop-color="white" stop-opacity="0.25"/>
<stop offset="1" stop-color="white" stop-opacity="0"/>
</linearGradient>
<linearGradient id="paint2_linear" x1="41.5175" y1="22.9573" x2="-3.19137" y2="29.9431" gradientUnits="userSpaceOnUse">
<stop stop-color="#041C01"/>
<stop offset="1" stop-opacity="0"/>
</linearGradient>
</defs>
</svg>
