<svg width="83" height="61" viewBox="0 0 83 61" fill="none" xmlns="http://www.w3.org/2000/svg">
<path d="M15.3354 20.4995C15.485 20.4995 15.6346 20.5019 15.7818 20.5065C17.9976 8.90425 28.1975 0.134766 40.4472 0.134766C50.2497 0.134766 58.7411 5.75126 62.8781 13.9434C63.2076 13.9247 63.5419 13.9154 63.8761 13.9154C73.9405 13.9154 82.0976 22.0725 82.0976 32.1368C82.0976 42.2012 73.9405 50.3583 63.8761 50.3583H15.3354C7.08946 50.3583 0.407166 43.6737 0.407166 35.4277C0.407166 27.1818 7.0918 20.4972 15.3354 20.4972V20.4995Z" fill="#27AAE1"/>
<path opacity="0.7" d="M15.3354 20.4995C15.485 20.4995 15.6346 20.5019 15.7818 20.5065C17.9976 8.90425 28.1975 0.134766 40.4472 0.134766C50.2497 0.134766 58.7411 5.75126 62.8781 13.9434C63.2076 13.9247 63.5419 13.9154 63.8761 13.9154C73.9405 13.9154 82.0976 22.0725 82.0976 32.1368C82.0976 42.2012 73.9405 50.3583 63.8761 50.3583H15.3354C7.08946 50.3583 0.407166 43.6737 0.407166 35.4277C0.407166 27.1818 7.0918 20.4972 15.3354 20.4972V20.4995Z" fill="url(#paint0_linear_372_2975)"/>
<path style="mix-blend-mode:overlay" opacity="0.7" d="M15.3354 20.4995C15.485 20.4995 15.6346 20.5019 15.7818 20.5065C17.9976 8.90425 28.1975 0.134766 40.4472 0.134766C50.2497 0.134766 58.7411 5.75126 62.8781 13.9434C63.2076 13.9247 63.5419 13.9154 63.8761 13.9154C73.9405 13.9154 82.0976 22.0725 82.0976 32.1368C82.0976 42.2012 73.9405 50.3583 63.8761 50.3583H15.3354C7.08946 50.3583 0.407166 43.6737 0.407166 35.4277C0.407166 27.1818 7.0918 20.4972 15.3354 20.4972V20.4995Z" fill="url(#paint1_linear_372_2975)"/>
<g style="mix-blend-mode:overlay" opacity="0.7">
<path d="M40.4472 1.30344C44.9628 1.30344 49.3616 2.56791 53.1643 4.95662C56.8666 7.28222 59.8653 10.5731 61.8333 14.4694L62.1769 15.1495L62.9389 15.1074C63.2567 15.0911 63.5699 15.0817 63.8738 15.0817C73.2767 15.0817 80.9266 22.7317 80.9266 32.1346C80.9266 41.5374 73.2767 49.1874 63.8738 49.1874H15.3354C7.74858 49.1874 1.57581 43.0146 1.57581 35.4255C1.57581 27.8363 7.74858 21.6635 15.3354 21.6635C15.4733 21.6635 15.6112 21.6659 15.7468 21.6705L16.7424 21.7009L16.9294 20.7216C19.0797 9.46757 28.9688 1.29877 40.4472 1.29877M40.4472 0.130127C28.1975 0.130127 17.9976 8.89961 15.7818 20.5019C15.6346 20.4972 15.485 20.4949 15.3354 20.4949C7.08946 20.4949 0.407166 27.1795 0.407166 35.4255C0.407166 43.6714 7.0918 50.356 15.3354 50.356H63.8761C73.9405 50.356 82.0976 42.1989 82.0976 32.1346C82.0976 22.0702 73.9405 13.9131 63.8761 13.9131C63.5419 13.9131 63.2076 13.9224 62.8781 13.9411C58.7411 5.74896 50.2521 0.132465 40.4472 0.132465V0.130127Z" fill="white"/>
</g>
<path d="M37.1329 40.8923C37.2334 40.8923 37.3339 40.8923 37.4344 40.897C38.9279 33.0834 45.7972 27.1771 54.0455 27.1771C60.6483 27.1771 66.3653 30.9612 69.1514 36.4772C69.3734 36.4655 69.5978 36.4585 69.8245 36.4585C76.6026 36.4585 82.0952 41.9534 82.0952 48.7292C82.0952 55.505 76.6003 61 69.8245 61H37.1329C31.5795 61 27.0779 56.4983 27.0779 50.945C27.0779 45.3916 31.5795 40.89 37.1329 40.89V40.8923Z" fill="#27AAE1"/>
<path opacity="0.7" d="M37.1329 40.8923C37.2334 40.8923 37.3339 40.8923 37.4344 40.897C38.9279 33.0834 45.7972 27.1771 54.0455 27.1771C60.6483 27.1771 66.3653 30.9612 69.1514 36.4772C69.3734 36.4655 69.5978 36.4585 69.8245 36.4585C76.6026 36.4585 82.0952 41.9534 82.0952 48.7292C82.0952 55.505 76.6003 61 69.8245 61H37.1329C31.5795 61 27.0779 56.4983 27.0779 50.945C27.0779 45.3916 31.5795 40.89 37.1329 40.89V40.8923Z" fill="url(#paint2_linear_372_2975)"/>
<path style="mix-blend-mode:overlay" opacity="0.7" d="M37.1329 40.8923C37.2334 40.8923 37.3339 40.8923 37.4344 40.897C38.9279 33.0834 45.7972 27.1771 54.0455 27.1771C60.6483 27.1771 66.3653 30.9612 69.1514 36.4772C69.3734 36.4655 69.5978 36.4585 69.8245 36.4585C76.6026 36.4585 82.0952 41.9534 82.0952 48.7292C82.0952 55.505 76.6003 61 69.8245 61H37.1329C31.5795 61 27.0779 56.4983 27.0779 50.945C27.0779 45.3916 31.5795 40.89 37.1329 40.89V40.8923Z" fill="url(#paint3_linear_372_2975)"/>
<g style="mix-blend-mode:overlay" opacity="0.7">
<path d="M54.0455 28.3458C60.0243 28.3458 65.4117 31.6624 68.1089 37.0031L68.4525 37.6856L69.2145 37.6435C69.4201 37.6318 69.6258 37.6271 69.8245 37.6271C75.9458 37.6271 80.9266 42.6079 80.9266 48.7292C80.9266 54.8506 75.9458 59.8313 69.8245 59.8313H37.1329C32.234 59.8313 28.2466 55.8439 28.2466 50.945C28.2466 46.046 32.2316 42.0586 37.1329 42.0586C37.2217 42.0586 37.3105 42.0586 37.3994 42.0633L38.395 42.0913L38.582 41.1144C39.9961 33.7145 46.4984 28.3434 54.0455 28.3434M54.0455 27.1748C45.7972 27.1748 38.9256 33.0811 37.4344 40.8947C37.3339 40.8923 37.2334 40.89 37.1329 40.89C31.5795 40.89 27.0779 45.3916 27.0779 50.945C27.0779 56.4984 31.5795 61 37.1329 61H69.8245C76.6026 61 82.0952 55.505 82.0952 48.7292C82.0952 41.9535 76.6003 36.4585 69.8245 36.4585C69.5978 36.4585 69.3757 36.4655 69.1514 36.4772C66.3653 30.9612 60.6483 27.1771 54.0455 27.1771V27.1748Z" fill="white"/>
</g>
<defs>
<linearGradient id="paint0_linear_372_2975" x1="41.2512" y1="1.51376" x2="41.2512" y2="41.6309" gradientUnits="userSpaceOnUse">
<stop stop-color="#96FFFF"/>
<stop offset="0.28" stop-color="#93FDFD"/>
<stop offset="0.45" stop-color="#8AF8F8"/>
<stop offset="0.6" stop-color="#7CEEF1"/>
<stop offset="0.73" stop-color="#67E2E5"/>
<stop offset="0.85" stop-color="#4CD1D7"/>
<stop offset="0.96" stop-color="#2CBDC5"/>
<stop offset="1" stop-color="#1EB4BE"/>
</linearGradient>
<linearGradient id="paint1_linear_372_2975" x1="41.2512" y1="1.51376" x2="41.2512" y2="41.6309" gradientUnits="userSpaceOnUse">
<stop stop-color="#96FFFF"/>
<stop offset="0.28" stop-color="#93FDFD"/>
<stop offset="0.45" stop-color="#8AF8F8"/>
<stop offset="0.6" stop-color="#7CEEF1"/>
<stop offset="0.73" stop-color="#67E2E5"/>
<stop offset="0.85" stop-color="#4CD1D7"/>
<stop offset="0.96" stop-color="#2CBDC5"/>
<stop offset="1" stop-color="#1EB4BE"/>
</linearGradient>
<linearGradient id="paint2_linear_372_2975" x1="54.5877" y1="28.105" x2="54.5877" y2="55.124" gradientUnits="userSpaceOnUse">
<stop stop-color="#96FFFF"/>
<stop offset="0.28" stop-color="#93FDFD"/>
<stop offset="0.45" stop-color="#8AF8F8"/>
<stop offset="0.6" stop-color="#7CEEF1"/>
<stop offset="0.73" stop-color="#67E2E5"/>
<stop offset="0.85" stop-color="#4CD1D7"/>
<stop offset="0.96" stop-color="#2CBDC5"/>
<stop offset="1" stop-color="#1EB4BE"/>
</linearGradient>
<linearGradient id="paint3_linear_372_2975" x1="54.5877" y1="28.105" x2="54.5877" y2="55.124" gradientUnits="userSpaceOnUse">
<stop stop-color="#96FFFF"/>
<stop offset="0.28" stop-color="#93FDFD"/>
<stop offset="0.45" stop-color="#8AF8F8"/>
<stop offset="0.6" stop-color="#7CEEF1"/>
<stop offset="0.73" stop-color="#67E2E5"/>
<stop offset="0.85" stop-color="#4CD1D7"/>
<stop offset="0.96" stop-color="#2CBDC5"/>
<stop offset="1" stop-color="#1EB4BE"/>
</linearGradient>
</defs>
</svg>
