<svg width="89" height="82" viewBox="0 0 89 82" fill="none" xmlns="http://www.w3.org/2000/svg">
<g clip-path="url(#clip0_372_3536)">
<path d="M28.8096 32.2828C28.9282 32.2828 29.0468 32.2846 29.1636 32.2883C30.9204 23.0891 39.0077 16.136 48.7202 16.136C56.4925 16.136 63.2251 20.5892 66.5052 27.0846C66.7665 27.0698 67.0315 27.0624 67.2965 27.0624C75.2763 27.0624 81.744 33.53 81.744 41.5098C81.744 49.4896 75.2763 55.9572 67.2965 55.9572H28.8096C22.2716 55.9572 16.9715 50.6571 16.9715 44.1191C16.9715 37.581 22.2716 32.2809 28.8096 32.2809V32.2828Z" fill="#27AAE1"/>
<path opacity="0.7" d="M28.8096 32.2828C28.9282 32.2828 29.0468 32.2846 29.1636 32.2883C30.9204 23.0891 39.0077 16.136 48.7202 16.136C56.4925 16.136 63.2251 20.5892 66.5052 27.0846C66.7665 27.0698 67.0315 27.0624 67.2965 27.0624C75.2763 27.0624 81.744 33.53 81.744 41.5098C81.744 49.4896 75.2763 55.9572 67.2965 55.9572H28.8096C22.2716 55.9572 16.9715 50.6571 16.9715 44.1191C16.9715 37.581 22.2716 32.2809 28.8096 32.2809V32.2828Z" fill="url(#paint0_linear_372_3536)"/>
<path style="mix-blend-mode:overlay" opacity="0.7" d="M28.8096 32.2828C28.9282 32.2828 29.0468 32.2846 29.1636 32.2883C30.9204 23.0891 39.0077 16.136 48.7202 16.136C56.4925 16.136 63.2251 20.5892 66.5052 27.0846C66.7665 27.0698 67.0315 27.0624 67.2965 27.0624C75.2763 27.0624 81.744 33.53 81.744 41.5098C81.744 49.4896 75.2763 55.9572 67.2965 55.9572H28.8096C22.2716 55.9572 16.9715 50.6571 16.9715 44.1191C16.9715 37.581 22.2716 32.2809 28.8096 32.2809V32.2828Z" fill="url(#paint1_linear_372_3536)"/>
<g style="mix-blend-mode:overlay" opacity="0.7">
<path d="M48.7202 17.0626C52.3006 17.0626 55.7883 18.0652 58.8034 19.9592C61.7388 21.8031 64.1165 24.4124 65.6769 27.5016L65.9493 28.0409L66.5534 28.0075C66.8054 27.9946 67.0538 27.9871 67.2947 27.9871C74.75 27.9871 80.8155 34.0526 80.8155 41.508C80.8155 48.9633 74.75 55.0288 67.2947 55.0288H28.8096C22.7942 55.0288 17.8981 50.1346 17.8981 44.1173C17.8981 38.1 22.7923 33.2057 28.8096 33.2057C28.9189 33.2057 29.0283 33.2076 29.1358 33.2113L29.9252 33.2354L30.0735 32.4589C31.7784 23.5358 39.6192 17.0589 48.7202 17.0589M48.7202 16.1323C39.0077 16.1323 30.9204 23.0855 29.1636 32.2847C29.045 32.281 28.9282 32.2791 28.8096 32.2791C22.2716 32.2791 16.9715 37.5792 16.9715 44.1173C16.9715 50.6553 22.2716 55.9554 28.8096 55.9554H67.2965C75.2763 55.9554 81.744 49.4878 81.744 41.508C81.744 33.5282 75.2763 27.0606 67.2965 27.0606C67.0315 27.0606 66.7665 27.068 66.5052 27.0828C63.2251 20.5874 56.4943 16.1342 48.7202 16.1342V16.1323Z" fill="white"/>
</g>
<g opacity="0.8">
<path d="M9.03427 19.5848C9.12508 19.5848 9.21403 19.5848 9.30484 19.5885C10.6465 12.5668 16.8195 7.25928 24.2322 7.25928C30.1643 7.25928 35.3032 10.658 37.8068 15.6153C38.007 15.6042 38.209 15.5986 38.4109 15.5986C44.5005 15.5986 49.4374 20.5355 49.4374 26.6251C49.4374 32.7146 44.5005 37.6515 38.4109 37.6515H9.03427C4.04365 37.6515 0 33.606 0 28.6172C0 23.6285 4.0455 19.583 9.03427 19.583V19.5848Z" fill="#27AAE1"/>
<path opacity="0.7" d="M9.03427 19.5848C9.12508 19.5848 9.21403 19.5848 9.30484 19.5885C10.6465 12.5668 16.8195 7.25928 24.2322 7.25928C30.1643 7.25928 35.3032 10.658 37.8068 15.6153C38.007 15.6042 38.209 15.5986 38.4109 15.5986C44.5005 15.5986 49.4374 20.5355 49.4374 26.6251C49.4374 32.7146 44.5005 37.6515 38.4109 37.6515H9.03427C4.04365 37.6515 0 33.606 0 28.6172C0 23.6285 4.0455 19.583 9.03427 19.583V19.5848Z" fill="url(#paint2_linear_372_3536)"/>
<path style="mix-blend-mode:overlay" opacity="0.7" d="M9.03427 19.5848C9.12508 19.5848 9.21403 19.5848 9.30484 19.5885C10.6465 12.5668 16.8195 7.25928 24.2322 7.25928C30.1643 7.25928 35.3032 10.658 37.8068 15.6153C38.007 15.6042 38.209 15.5986 38.4109 15.5986C44.5005 15.5986 49.4374 20.5355 49.4374 26.6251C49.4374 32.7146 44.5005 37.6515 38.4109 37.6515H9.03427C4.04365 37.6515 0 33.606 0 28.6172C0 23.6285 4.0455 19.583 9.03427 19.583V19.5848Z" fill="url(#paint3_linear_372_3536)"/>
<g style="mix-blend-mode:overlay" opacity="0.7">
<path d="M24.2322 8.18772C26.9231 8.18772 29.5453 8.94012 31.8118 10.3652C34.0189 11.7514 35.8054 13.7121 36.9784 16.036L37.2509 16.5752L37.855 16.5419C38.044 16.5326 38.2293 16.5271 38.4091 16.5271C43.9779 16.5271 48.509 21.0581 48.509 26.6269C48.509 32.1957 43.9779 36.7268 38.4091 36.7268H9.03427C4.56254 36.7268 0.926592 33.089 0.926592 28.6191C0.926592 24.1492 4.56439 20.5114 9.03427 20.5114C9.11581 20.5114 9.19735 20.5114 9.27704 20.5151L10.0665 20.5373L10.2148 19.7627C11.4953 13.0542 17.3903 8.18587 24.2322 8.18587M24.2322 7.25928C16.8195 7.25928 10.6465 12.5668 9.30484 19.5885C9.21589 19.5867 9.12508 19.5848 9.03427 19.5848C4.0455 19.5848 0 23.6303 0 28.6209C0 33.6116 4.0455 37.6552 9.03427 37.6552H38.4091C44.4987 37.6552 49.4355 32.7183 49.4355 26.6288C49.4355 20.5392 44.4987 15.6023 38.4091 15.6023C38.2071 15.6023 38.0051 15.6079 37.805 15.619C35.3013 10.6617 30.1643 7.26298 24.2304 7.26298L24.2322 7.25928Z" fill="white"/>
</g>
</g>
<path opacity="0.7" d="M50.0137 77.9249C48.8444 81.1383 45.29 82.7969 42.0765 81.6257C38.8631 80.4563 37.2045 76.9019 38.3757 73.6885C39.5451 70.4751 48.4793 64.0371 48.4793 64.0371C48.4793 64.0371 51.1849 74.7096 50.0156 77.9249H50.0137Z" fill="url(#paint4_linear_372_3536)"/>
<g style="mix-blend-mode:overlay" opacity="0.7">
<path d="M48.3737 64.3206C48.7628 65.9217 50.8977 75.0042 49.8562 77.8674C49.3058 79.3796 48.1995 80.5879 46.741 81.268C45.2826 81.9481 43.6462 82.0204 42.134 81.47C40.6218 80.9196 39.4135 79.8132 38.7334 78.3548C38.0533 76.8963 37.981 75.2599 38.5314 73.7478C39.5729 70.8846 47.0468 65.2972 48.3737 64.3225M48.4775 64.0408C48.4775 64.0408 39.5433 70.4769 38.3739 73.6922C37.2045 76.9056 38.8613 80.46 42.0747 81.6293C45.2881 82.7987 48.8425 81.142 50.0119 77.9285C51.1812 74.7151 48.4756 64.0408 48.4756 64.0408H48.4775Z" fill="white"/>
</g>
<path opacity="0.7" d="M35.1605 70.262C34.3284 72.5506 31.7988 73.7293 29.5101 72.8972C27.2214 72.0651 26.0428 69.5355 26.8749 67.2468C27.707 64.9581 34.0671 60.3771 34.0671 60.3771C34.0671 60.3771 35.9925 67.9751 35.1605 70.262Z" fill="url(#paint5_linear_372_3536)"/>
<g style="mix-blend-mode:overlay" opacity="0.7">
<path d="M33.9948 60.5772C34.2728 61.7169 35.7906 68.1827 35.0493 70.2212C34.6583 71.2979 33.8707 72.1578 32.831 72.6415C31.7932 73.1252 30.6276 73.177 29.5509 72.7842C28.4742 72.3931 27.6143 71.6055 27.1306 70.5659C26.6469 69.5281 26.5951 68.3625 26.9879 67.2858C27.7292 65.2473 33.0497 61.2703 33.9948 60.5772ZM34.0671 60.3752C34.0671 60.3752 27.7088 64.9563 26.8749 67.245C26.0409 69.5337 27.2214 72.0633 29.5101 72.8954C31.7988 73.7274 34.3284 72.5488 35.1605 70.2601C35.9925 67.9714 34.0671 60.3752 34.0671 60.3752Z" fill="white"/>
</g>
<path opacity="0.7" d="M64.1387 70.262C63.3066 72.5506 60.777 73.7293 58.4884 72.8972C56.1997 72.0651 55.0211 69.5355 55.8531 67.2468C56.6852 64.9581 63.0453 60.3771 63.0453 60.3771C63.0453 60.3771 64.9708 67.9751 64.1387 70.262Z" fill="url(#paint6_linear_372_3536)"/>
<g style="mix-blend-mode:overlay" opacity="0.7">
<path d="M62.9712 60.5772C63.2492 61.7169 64.7688 68.1827 64.0257 70.2212C63.6346 71.2979 62.847 72.1578 61.8074 72.6415C60.7696 73.1252 59.604 73.177 58.5273 72.7842C57.4506 72.3931 56.5907 71.6055 56.107 70.5659C55.6233 69.5281 55.5714 68.3625 55.9643 67.2858C56.7056 65.2473 62.0261 61.2703 62.9712 60.5772ZM63.0453 60.3752C63.0453 60.3752 56.6871 64.9563 55.8531 67.245C55.0192 69.5337 56.1997 72.0633 58.4883 72.8954C60.777 73.7274 63.3066 72.5488 64.1387 70.2601C64.9708 67.9714 63.0453 60.3752 63.0453 60.3752Z" fill="white"/>
</g>
</g>
<defs>
<linearGradient id="paint0_linear_372_3536" x1="49.3577" y1="17.2294" x2="49.3577" y2="49.0374" gradientUnits="userSpaceOnUse">
<stop stop-color="#96FFFF"/>
<stop offset="0.28" stop-color="#93FDFD"/>
<stop offset="0.45" stop-color="#8AF8F8"/>
<stop offset="0.6" stop-color="#7CEEF1"/>
<stop offset="0.73" stop-color="#67E2E5"/>
<stop offset="0.85" stop-color="#4CD1D7"/>
<stop offset="0.96" stop-color="#2CBDC5"/>
<stop offset="1" stop-color="#1EB4BE"/>
</linearGradient>
<linearGradient id="paint1_linear_372_3536" x1="49.3577" y1="17.2294" x2="49.3577" y2="49.0374" gradientUnits="userSpaceOnUse">
<stop stop-color="#96FFFF"/>
<stop offset="0.28" stop-color="#93FDFD"/>
<stop offset="0.45" stop-color="#8AF8F8"/>
<stop offset="0.6" stop-color="#7CEEF1"/>
<stop offset="0.73" stop-color="#67E2E5"/>
<stop offset="0.85" stop-color="#4CD1D7"/>
<stop offset="0.96" stop-color="#2CBDC5"/>
<stop offset="1" stop-color="#1EB4BE"/>
</linearGradient>
<linearGradient id="paint2_linear_372_3536" x1="24.7178" y1="8.09506" x2="24.7178" y2="32.3736" gradientUnits="userSpaceOnUse">
<stop stop-color="#96FFFF"/>
<stop offset="0.28" stop-color="#93FDFD"/>
<stop offset="0.45" stop-color="#8AF8F8"/>
<stop offset="0.6" stop-color="#7CEEF1"/>
<stop offset="0.73" stop-color="#67E2E5"/>
<stop offset="0.85" stop-color="#4CD1D7"/>
<stop offset="0.96" stop-color="#2CBDC5"/>
<stop offset="1" stop-color="#1EB4BE"/>
</linearGradient>
<linearGradient id="paint3_linear_372_3536" x1="24.7178" y1="8.09506" x2="24.7178" y2="32.3736" gradientUnits="userSpaceOnUse">
<stop stop-color="#96FFFF"/>
<stop offset="0.28" stop-color="#93FDFD"/>
<stop offset="0.45" stop-color="#8AF8F8"/>
<stop offset="0.6" stop-color="#7CEEF1"/>
<stop offset="0.73" stop-color="#67E2E5"/>
<stop offset="0.85" stop-color="#4CD1D7"/>
<stop offset="0.96" stop-color="#2CBDC5"/>
<stop offset="1" stop-color="#1EB4BE"/>
</linearGradient>
<linearGradient id="paint4_linear_372_3536" x1="48.2382" y1="64.6881" x2="42.3322" y2="80.9147" gradientUnits="userSpaceOnUse">
<stop stop-color="#96FFFF"/>
<stop offset="0.28" stop-color="#93FDFD"/>
<stop offset="0.45" stop-color="#8AF8F8"/>
<stop offset="0.6" stop-color="#7CEEF1"/>
<stop offset="0.73" stop-color="#67E2E5"/>
<stop offset="0.85" stop-color="#4CD1D7"/>
<stop offset="0.96" stop-color="#2CBDC5"/>
<stop offset="1" stop-color="#1EB4BE"/>
</linearGradient>
<linearGradient id="paint5_linear_372_3536" x1="33.8959" y1="60.8386" x2="29.6918" y2="72.3894" gradientUnits="userSpaceOnUse">
<stop stop-color="#96FFFF"/>
<stop offset="0.28" stop-color="#93FDFD"/>
<stop offset="0.45" stop-color="#8AF8F8"/>
<stop offset="0.6" stop-color="#7CEEF1"/>
<stop offset="0.73" stop-color="#67E2E5"/>
<stop offset="0.85" stop-color="#4CD1D7"/>
<stop offset="0.96" stop-color="#2CBDC5"/>
<stop offset="1" stop-color="#1EB4BE"/>
</linearGradient>
<linearGradient id="paint6_linear_372_3536" x1="62.8735" y1="60.8406" x2="58.6693" y2="72.3915" gradientUnits="userSpaceOnUse">
<stop stop-color="#96FFFF"/>
<stop offset="0.28" stop-color="#93FDFD"/>
<stop offset="0.45" stop-color="#8AF8F8"/>
<stop offset="0.6" stop-color="#7CEEF1"/>
<stop offset="0.73" stop-color="#67E2E5"/>
<stop offset="0.85" stop-color="#4CD1D7"/>
<stop offset="0.96" stop-color="#2CBDC5"/>
<stop offset="1" stop-color="#1EB4BE"/>
</linearGradient>
<clipPath id="clip0_372_3536">
<rect width="88.736" height="85" fill="white" transform="translate(0 -3)"/>
</clipPath>
</defs>
</svg>
