<svg width="112" height="83" viewBox="0 0 112 83" fill="none" xmlns="http://www.w3.org/2000/svg">
<g clip-path="url(#clip0_372_2974)">
<path d="M36.3354 42.4996C36.485 42.4996 36.6346 42.502 36.7818 42.5067C38.9976 30.9044 49.1975 22.1349 61.4472 22.1349C71.2497 22.1349 79.7411 27.7514 83.8781 35.9436C84.2076 35.9249 84.5419 35.9155 84.8761 35.9155C94.9405 35.9155 103.098 44.0726 103.098 54.137C103.098 64.2013 94.9405 72.3584 84.8761 72.3584H36.3354C28.0895 72.3584 21.4072 65.6738 21.4072 57.4279C21.4072 49.1819 28.0918 42.4973 36.3354 42.4973V42.4996Z" fill="#27AAE1"/>
<path d="M34.8419 62.8644C49.9383 62.8644 62.1764 50.6263 62.1764 35.5298C62.1764 20.4334 49.9383 8.19531 34.8419 8.19531C19.7454 8.19531 7.50735 20.4334 7.50735 35.5298C7.50735 50.6263 19.7454 62.8644 34.8419 62.8644Z" fill="url(#paint0_radial_372_2974)"/>
<g style="mix-blend-mode:multiply">
<path d="M34.8419 67.9245C52.733 67.9245 67.2366 53.4209 67.2366 35.5298C67.2366 17.6386 52.733 3.13501 34.8419 3.13501C16.9507 3.13501 2.44711 17.6386 2.44711 35.5298C2.44711 53.4209 16.9507 67.9245 34.8419 67.9245Z" fill="white"/>
<path d="M34.8419 67.9059C52.7227 67.9059 67.2179 53.4107 67.2179 35.5299C67.2179 17.6491 52.7227 3.15381 34.8419 3.15381C16.9611 3.15381 2.46582 17.6491 2.46582 35.5299C2.46582 53.4107 16.9611 67.9059 34.8419 67.9059Z" fill="#FFFFFE"/>
<path d="M34.8419 67.8848C52.7111 67.8848 67.1969 53.399 67.1969 35.5298C67.1969 17.6606 52.7111 3.1748 34.8419 3.1748C16.9727 3.1748 2.48685 17.6606 2.48685 35.5298C2.48685 53.399 16.9727 67.8848 34.8419 67.8848Z" fill="#FFFFFD"/>
<path d="M34.8419 67.8661C52.7007 67.8661 67.1782 53.3887 67.1782 35.5298C67.1782 17.6709 52.7007 3.19348 34.8419 3.19348C16.983 3.19348 2.50555 17.6709 2.50555 35.5298C2.50555 53.3887 16.983 67.8661 34.8419 67.8661Z" fill="#FFFFFC"/>
<path d="M34.8419 67.845C52.6891 67.845 67.1572 53.377 67.1572 35.5298C67.1572 17.6825 52.6891 3.21448 34.8419 3.21448C16.9946 3.21448 2.52658 17.6825 2.52658 35.5298C2.52658 53.377 16.9946 67.845 34.8419 67.845Z" fill="#FFFFFB"/>
<path d="M57.6787 58.3674C70.2913 45.7548 70.2913 25.3057 57.6787 12.6931C45.0661 0.0805409 24.617 0.0805341 12.0044 12.6931C-0.608198 25.3057 -0.608198 45.7548 12.0044 58.3674C24.617 70.98 45.0661 70.98 57.6787 58.3674Z" fill="#FFFFFA"/>
<path d="M57.6638 58.3525C70.2682 45.7481 70.2682 25.3124 57.6638 12.708C45.0594 0.103629 24.6237 0.103624 12.0193 12.708C-0.585102 25.3124 -0.585102 45.7482 12.0193 58.3525C24.6237 70.9569 45.0594 70.9569 57.6638 58.3525Z" fill="#FFFFF9"/>
<path d="M57.6506 58.3393C70.2476 45.7422 70.2476 25.3183 57.6506 12.7212C45.0535 0.124154 24.6296 0.124151 12.0325 12.7212C-0.564594 25.3183 -0.564594 45.7422 12.0325 58.3393C24.6296 70.9364 45.0535 70.9364 57.6506 58.3393Z" fill="#FFFFF8"/>
<path d="M57.6357 58.3244C70.2246 45.7356 70.2246 25.325 57.6357 12.7361C45.0468 0.147242 24.6362 0.147235 12.0474 12.7361C-0.541498 25.325 -0.541498 45.7356 12.0474 58.3244C24.6362 70.9133 45.0468 70.9133 57.6357 58.3244Z" fill="#FFFFF7"/>
<path d="M57.6225 58.3112C70.2041 45.7296 70.2041 25.3309 57.6225 12.7493C45.0409 0.167767 24.6422 0.167763 12.0606 12.7493C-0.52096 25.3309 -0.52096 45.7297 12.0606 58.3112C24.6422 70.8928 45.0409 70.8928 57.6225 58.3112Z" fill="#FFFFF6"/>
<path d="M57.6076 58.2963C70.1809 45.723 70.1809 25.3376 57.6076 12.7642C45.0342 0.190852 24.6488 0.190855 12.0755 12.7642C-0.497897 25.3376 -0.497897 45.723 12.0755 58.2963C24.6488 70.8697 45.0342 70.8697 57.6076 58.2963Z" fill="#FFFEF5"/>
<path d="M34.8419 67.7072C52.613 67.7072 67.0193 53.3009 67.0193 35.5298C67.0193 17.7587 52.613 3.35242 34.8419 3.35242C17.0708 3.35242 2.66449 17.7587 2.66449 35.5298C2.66449 53.3009 17.0708 67.7072 34.8419 67.7072Z" fill="#FFFEF4"/>
<path d="M34.8419 67.6861C52.6013 67.6861 66.9982 53.2892 66.9982 35.5298C66.9982 17.7703 52.6013 3.37341 34.8419 3.37341C17.0824 3.37341 2.68552 17.7703 2.68552 35.5298C2.68552 53.2892 17.0824 67.6861 34.8419 67.6861Z" fill="#FFFEF3"/>
<path d="M34.8419 67.6675C52.591 67.6675 66.9795 53.279 66.9795 35.5299C66.9795 17.7807 52.591 3.39221 34.8419 3.39221C17.0927 3.39221 2.70422 17.7807 2.70422 35.5299C2.70422 53.279 17.0927 67.6675 34.8419 67.6675Z" fill="#FFFEF2"/>
<path d="M34.8419 67.6464C52.5794 67.6464 66.9585 53.2673 66.9585 35.5298C66.9585 17.7923 52.5794 3.41321 34.8419 3.41321C17.1043 3.41321 2.72525 17.7923 2.72525 35.5298C2.72525 53.2673 17.1043 67.6464 34.8419 67.6464Z" fill="#FFFEF1"/>
<path d="M34.8419 67.6277C52.5691 67.6277 66.9398 53.257 66.9398 35.5298C66.9398 17.8026 52.5691 3.43188 34.8419 3.43188C17.1147 3.43188 2.74396 17.8026 2.74396 35.5298C2.74396 53.257 17.1147 67.6277 34.8419 67.6277Z" fill="#FFFEF0"/>
<path d="M34.8419 67.6066C52.5574 67.6066 66.9187 53.2453 66.9187 35.5298C66.9187 17.8142 52.5574 3.45288 34.8419 3.45288C17.1263 3.45288 2.76498 17.8142 2.76498 35.5298C2.76498 53.2453 17.1263 67.6066 34.8419 67.6066Z" fill="#FFFEEF"/>
<path d="M57.5101 58.1988C70.0296 45.6793 70.0296 25.3812 57.5101 12.8617C44.9906 0.342214 24.6925 0.342214 12.173 12.8617C-0.346514 25.3812 -0.346514 45.6793 12.173 58.1988C24.6925 70.7183 44.9906 70.7183 57.5101 58.1988Z" fill="#FFFEEE"/>
<path d="M57.4952 58.184C70.0065 45.6727 70.0065 25.3879 57.4952 12.8766C44.984 0.365302 24.6991 0.365304 12.1879 12.8766C-0.323419 25.3879 -0.323419 45.6727 12.1879 58.184C24.6991 70.6952 44.984 70.6952 57.4952 58.184Z" fill="#FFFEED"/>
<path d="M57.482 58.1707C69.986 45.6668 69.986 25.3938 57.482 12.8898C44.978 0.385828 24.7051 0.385828 12.2011 12.8898C-0.30291 25.3938 -0.30291 45.6668 12.2011 58.1707C24.7051 70.6747 44.978 70.6747 57.482 58.1707Z" fill="#FFFEEC"/>
<path d="M57.4671 58.1559C69.9629 45.6601 69.9629 25.4005 57.4671 12.9047C44.9714 0.408923 24.7117 0.408918 12.216 12.9047C-0.279815 25.4005 -0.279815 45.6601 12.216 58.1559C24.7117 70.6516 44.9714 70.6516 57.4671 58.1559Z" fill="#FFFEEB"/>
<path d="M57.4539 58.1426C69.9424 45.6542 69.9424 25.4064 57.4539 12.9179C44.9654 0.429441 24.7176 0.42944 12.2292 12.9179C-0.259306 25.4064 -0.259306 45.6542 12.2292 58.1426C24.7176 70.6311 44.9654 70.6311 57.4539 58.1426Z" fill="#FFFEEA"/>
<path d="M57.439 58.1278C69.9193 45.6475 69.9193 25.413 57.439 12.9328C44.9588 0.452534 24.7243 0.45253 12.244 12.9328C-0.23621 25.413 -0.23621 45.6475 12.244 58.1278C24.7243 70.608 44.9588 70.608 57.439 58.1278Z" fill="#FFFEE9"/>
<path d="M57.4258 58.1145C69.8988 45.6416 69.8988 25.419 57.4258 12.946C44.9529 0.473059 24.7302 0.473054 12.2573 12.946C-0.215672 25.4189 -0.215672 45.6416 12.2573 58.1145C24.7302 70.5875 44.9529 70.5875 57.4258 58.1145Z" fill="#FFFEE8"/>
<path d="M34.8419 67.4477C52.4697 67.4477 66.7598 53.1576 66.7598 35.5298C66.7598 17.902 52.4697 3.61182 34.8419 3.61182C17.2141 3.61182 2.92392 17.902 2.92392 35.5298C2.92392 53.1576 17.2141 67.4477 34.8419 67.4477Z" fill="#FFFEE7"/>
<path d="M34.8419 67.4291C52.4593 67.4291 66.7411 53.1473 66.7411 35.5299C66.7411 17.9124 52.4593 3.63062 34.8419 3.63062C17.2244 3.63062 2.94263 17.9124 2.94263 35.5299C2.94263 53.1473 17.2244 67.4291 34.8419 67.4291Z" fill="#FFFEE6"/>
<path d="M34.8419 67.408C52.4477 67.408 66.7201 53.1357 66.7201 35.5298C66.7201 17.924 52.4477 3.65161 34.8419 3.65161C17.236 3.65161 2.96365 17.924 2.96365 35.5298C2.96365 53.1357 17.236 67.408 34.8419 67.408Z" fill="#FFFEE5"/>
<path d="M34.8419 67.3893C52.4374 67.3893 66.7014 53.1253 66.7014 35.5298C66.7014 17.9343 52.4374 3.67029 34.8419 3.67029C17.2464 3.67029 2.98236 17.9343 2.98236 35.5298C2.98236 53.1253 17.2464 67.3893 34.8419 67.3893Z" fill="#FFFEE4"/>
<path d="M34.8419 67.3682C52.4258 67.3682 66.6803 53.1137 66.6803 35.5298C66.6803 17.9459 52.4258 3.69128 34.8419 3.69128C17.258 3.69128 3.00339 17.9459 3.00339 35.5298C3.00339 53.1137 17.258 67.3682 34.8419 67.3682Z" fill="#FFFEE3"/>
<path d="M34.8419 67.3496C52.4155 67.3496 66.6617 53.1034 66.6617 35.5299C66.6617 17.9563 52.4155 3.71008 34.8419 3.71008C17.2683 3.71008 3.02209 17.9563 3.02209 35.5299C3.02209 53.1034 17.2683 67.3496 34.8419 67.3496Z" fill="#FFFEE2"/>
<path d="M57.3266 58.0154C69.7448 45.5972 69.7448 25.4633 57.3266 13.0452C44.9085 0.626982 24.7746 0.626981 12.3564 13.0452C-0.061767 25.4633 -0.061767 45.5972 12.3564 58.0154C24.7746 70.4336 44.9085 70.4336 57.3266 58.0154Z" fill="#FFFDE1"/>
<path d="M57.3134 58.0022C69.7243 45.5913 69.7243 25.4693 57.3134 13.0584C44.9025 0.647508 24.7805 0.647508 12.3697 13.0584C-0.0412277 25.4693 -0.0412277 45.5913 12.3697 58.0022C24.7805 70.413 44.9025 70.413 57.3134 58.0022Z" fill="#FFFDE0"/>
<path d="M57.2986 57.9873C69.7012 45.5846 69.7012 25.4759 57.2986 13.0733C44.8959 0.670599 24.7872 0.670598 12.3845 13.0733C-0.0181316 25.4759 -0.0181316 45.5846 12.3845 57.9873C24.7872 70.3899 44.8959 70.3899 57.2986 57.9873Z" fill="#FFFDDF"/>
<path d="M57.2853 57.9741C69.6807 45.5787 69.6807 25.4818 57.2853 13.0865C44.89 0.691119 24.7931 0.69112 12.3977 13.0865C0.00237721 25.4818 0.00237721 45.5787 12.3977 57.9741C24.7931 70.3694 44.89 70.3694 57.2853 57.9741Z" fill="#FFFDDE"/>
<path d="M57.2704 57.9592C69.6576 45.572 69.6576 25.4885 57.2705 13.1014C44.8833 0.714209 24.7998 0.71421 12.4126 13.1014C0.025472 25.4885 0.025472 45.572 12.4126 57.9592C24.7998 70.3463 44.8833 70.3463 57.2704 57.9592Z" fill="#FFFDDD"/>
<path d="M57.2572 57.946C69.6371 45.5661 69.6371 25.4944 57.2572 13.1146C44.8774 0.734733 24.8057 0.734731 12.4259 13.1146C0.046012 25.4944 0.046012 45.5661 12.4259 57.946C24.8057 70.3258 44.8774 70.3258 57.2572 57.946Z" fill="#FFFDDC"/>
<path d="M57.2423 57.9311C69.614 45.5595 69.614 25.5011 57.2423 13.1295C44.8707 0.757826 24.8123 0.757821 12.4407 13.1295C0.0690769 25.5011 0.0690769 45.5595 12.4407 57.9311C24.8123 70.3027 44.8707 70.3027 57.2423 57.9311Z" fill="#FFFDDB"/>
<path d="M34.8419 67.1907C52.3277 67.1907 66.5027 53.0157 66.5027 35.5299C66.5027 18.0441 52.3277 3.86902 34.8419 3.86902C17.3561 3.86902 3.18103 18.0441 3.18103 35.5299C3.18103 53.0157 17.3561 67.1907 34.8419 67.1907Z" fill="#FFFDDA"/>
<path d="M34.8419 67.1696C52.3161 67.1696 66.4817 53.004 66.4817 35.5298C66.4817 18.0556 52.3161 3.89001 34.8419 3.89001C17.3677 3.89001 3.20206 18.0556 3.20206 35.5298C3.20206 53.004 17.3677 67.1696 34.8419 67.1696Z" fill="#FFFDD9"/>
<path d="M34.8419 67.1509C52.3057 67.1509 66.463 52.9937 66.463 35.5298C66.463 18.0659 52.3057 3.90869 34.8419 3.90869C17.378 3.90869 3.22076 18.0659 3.22076 35.5298C3.22076 52.9937 17.378 67.1509 34.8419 67.1509Z" fill="#FFFDD8"/>
<path d="M34.8419 67.1298C52.2941 67.1298 66.4419 52.982 66.4419 35.5298C66.4419 18.0775 52.2941 3.92969 34.8419 3.92969C17.3896 3.92969 3.24179 18.0775 3.24179 35.5298C3.24179 52.982 17.3896 67.1298 34.8419 67.1298Z" fill="#FFFDD7"/>
<path d="M34.8419 67.1112C52.2838 67.1112 66.4233 52.9718 66.4233 35.5299C66.4233 18.088 52.2838 3.94849 34.8419 3.94849C17.4 3.94849 3.2605 18.088 3.2605 35.5299C3.2605 52.9718 17.4 67.1112 34.8419 67.1112Z" fill="#FFFDD6"/>
<path d="M34.8419 67.0902C52.2722 67.0902 66.4022 52.9601 66.4022 35.5298C66.4022 18.0995 52.2722 3.96948 34.8419 3.96948C17.4116 3.96948 3.28152 18.0995 3.28152 35.5298C3.28152 52.9601 17.4116 67.0902 34.8419 67.0902Z" fill="#FFFDD5"/>
<path d="M57.1449 57.8336C69.4626 45.5158 69.4626 25.5447 57.1449 13.227C44.8271 0.909188 24.856 0.909183 12.5382 13.227C0.220458 25.5447 0.220458 45.5158 12.5382 57.8336C24.856 70.1514 44.8271 70.1514 57.1449 57.8336Z" fill="#FFFDD4"/>
<path d="M57.13 57.8187C69.4396 45.5091 69.4396 25.5514 57.13 13.2418C44.8204 0.932276 24.8627 0.932273 12.5531 13.2418C0.243551 25.5514 0.243553 45.5091 12.5531 57.8187C24.8627 70.1283 44.8204 70.1283 57.13 57.8187Z" fill="#FFFDD3"/>
<path d="M57.1167 57.8055C69.419 45.5032 69.419 25.5573 57.1167 13.2551C44.8145 0.9528 24.8686 0.952797 12.5663 13.2551C0.264063 25.5573 0.26406 45.5032 12.5663 57.8055C24.8686 70.1077 44.8145 70.1077 57.1167 57.8055Z" fill="#FFFDD2"/>
<path d="M57.1019 57.7906C69.3959 45.4966 69.3959 25.564 57.1019 13.2699C44.8078 0.975888 24.8752 0.975887 12.5812 13.2699C0.287156 25.564 0.287156 45.4966 12.5812 57.7906C24.8752 70.0847 44.8078 70.0847 57.1019 57.7906Z" fill="#FFFDD1"/>
<path d="M57.0886 57.7774C69.3754 45.4906 69.3754 25.5699 57.0886 13.2832C44.8019 0.996415 24.8811 0.996414 12.5944 13.2832C0.307664 25.5699 0.307666 45.4906 12.5944 57.7774C24.8812 70.0641 44.8019 70.0641 57.0886 57.7774Z" fill="#FFFDD0"/>
<path d="M57.0754 57.7642C69.3549 45.4847 69.3549 25.5758 57.0754 13.2964C44.796 1.01694 24.8871 1.01693 12.6076 13.2964C0.328206 25.5758 0.328204 45.4847 12.6076 57.7642C24.8871 70.0436 44.796 70.0436 57.0754 57.7642Z" fill="#FFFDCF"/>
<path d="M57.0606 57.7493C69.3318 45.4781 69.3318 25.5825 57.0606 13.3113C44.7893 1.04002 24.8938 1.04002 12.6225 13.3113C0.351299 25.5825 0.351299 45.4781 12.6225 57.7493C24.8938 70.0205 44.7893 70.0205 57.0606 57.7493Z" fill="#FFFDCE"/>
<path d="M34.8419 66.9336C52.1857 66.9336 66.2456 52.8737 66.2456 35.5298C66.2456 18.186 52.1857 4.1261 34.8419 4.1261C17.4981 4.1261 3.43814 18.186 3.43814 35.5298C3.43814 52.8737 17.4981 66.9336 34.8419 66.9336Z" fill="#FFFCCD"/>
<path d="M34.8419 66.9125C52.1741 66.9125 66.2246 52.862 66.2246 35.5298C66.2246 18.1976 52.1741 4.14709 34.8419 4.14709C17.5097 4.14709 3.45917 18.1976 3.45917 35.5298C3.45917 52.862 17.5097 66.9125 34.8419 66.9125Z" fill="#FFFCCC"/>
<path d="M34.8419 66.8938C52.1637 66.8938 66.2059 52.8516 66.2059 35.5298C66.2059 18.2079 52.1637 4.16577 34.8419 4.16577C17.52 4.16577 3.47787 18.2079 3.47787 35.5298C3.47787 52.8516 17.52 66.8938 34.8419 66.8938Z" fill="#FFFCCB"/>
<path d="M34.8419 66.8728C52.1521 66.8728 66.1849 52.8401 66.1849 35.5299C66.1849 18.2196 52.1521 4.18689 34.8419 4.18689C17.5316 4.18689 3.4989 18.2196 3.4989 35.5299C3.4989 52.8401 17.5316 66.8728 34.8419 66.8728Z" fill="#FFFCCA"/>
<path d="M34.8419 66.8541C52.1418 66.8541 66.1662 52.8298 66.1662 35.5298C66.1662 18.2299 52.1418 4.20557 34.8419 4.20557C17.542 4.20557 3.51761 18.2299 3.51761 35.5298C3.51761 52.8298 17.542 66.8541 34.8419 66.8541Z" fill="#FFFCC9"/>
<path d="M34.8419 66.833C52.1302 66.833 66.1451 52.8181 66.1451 35.5298C66.1451 18.2415 52.1302 4.22656 34.8419 4.22656C17.5536 4.22656 3.53864 18.2415 3.53864 35.5298C3.53864 52.8181 17.5536 66.833 34.8419 66.833Z" fill="#FFFCC8"/>
<path d="M56.9631 57.6518C69.1804 45.4344 69.1804 25.6261 56.9631 13.4088C44.7457 1.19138 24.9374 1.19138 12.72 13.4088C0.50265 25.6261 0.50265 45.4344 12.72 57.6518C24.9374 69.8692 44.7457 69.8692 56.9631 57.6518Z" fill="#FFFCC7"/>
<path d="M56.9482 57.6369C69.1573 45.4277 69.1573 25.6328 56.9482 13.4236C44.739 1.21448 24.9441 1.21447 12.7349 13.4236C0.525745 25.6328 0.525745 45.4278 12.7349 57.6369C24.9441 69.8461 44.739 69.8461 56.9482 57.6369Z" fill="#FFFCC6"/>
<path d="M56.9349 57.6237C69.1368 45.4218 69.1368 25.6387 56.9349 13.4369C44.7331 1.23501 24.95 1.235 12.7481 13.4369C0.546254 25.6387 0.546254 45.4218 12.7481 57.6237C24.95 69.8255 44.7331 69.8255 56.9349 57.6237Z" fill="#FFFCC5"/>
<path d="M56.9201 57.6088C69.1137 45.4152 69.1137 25.6454 56.9201 13.4517C44.7264 1.25809 24.9566 1.25809 12.763 13.4517C0.56935 25.6454 0.56935 45.4152 12.763 57.6088C24.9566 69.8025 44.7264 69.8025 56.9201 57.6088Z" fill="#FFFCC4"/>
<path d="M56.9069 57.5956C69.0932 45.4092 69.0932 25.6513 56.9069 13.465C44.7205 1.27862 24.9626 1.27861 12.7762 13.465C0.589889 25.6513 0.589889 45.4093 12.7762 57.5956C24.9626 69.7819 44.7205 69.7819 56.9069 57.5956Z" fill="#FFFCC3"/>
<path d="M56.892 57.5807C69.0701 45.4026 69.0701 25.658 56.892 13.4798C44.7138 1.30171 24.9692 1.3017 12.7911 13.4798C0.612954 25.658 0.612954 45.4026 12.7911 57.5807C24.9692 69.7588 44.7138 69.7588 56.892 57.5807Z" fill="#FFFCC2"/>
<path d="M34.8419 66.6952C52.054 66.6952 66.0072 52.742 66.0072 35.5298C66.0072 18.3177 52.054 4.3645 34.8419 4.3645C17.6297 4.3645 3.67654 18.3177 3.67654 35.5298C3.67654 52.742 17.6297 66.6952 34.8419 66.6952Z" fill="#FFFCC1"/>
<path d="M34.8419 66.6741C52.0424 66.6741 65.9862 52.7303 65.9862 35.5298C65.9862 18.3293 52.0424 4.3855 34.8419 4.3855C17.6414 4.3855 3.69757 18.3293 3.69757 35.5298C3.69757 52.7303 17.6414 66.6741 34.8419 66.6741Z" fill="#FFFCC0"/>
<path d="M34.8419 66.6554C52.0321 66.6554 65.9675 52.72 65.9675 35.5298C65.9675 18.3396 52.0321 4.40417 34.8419 4.40417C17.6517 4.40417 3.71628 18.3396 3.71628 35.5298C3.71628 52.72 17.6517 66.6554 34.8419 66.6554Z" fill="#FFFCBF"/>
<path d="M34.8419 66.6344C52.0205 66.6344 65.9464 52.7084 65.9464 35.5299C65.9464 18.3513 52.0205 4.42529 34.8419 4.42529C17.6633 4.42529 3.7373 18.3513 3.7373 35.5299C3.7373 52.7084 17.6633 66.6344 34.8419 66.6344Z" fill="#FFFCBE"/>
<path d="M34.8419 66.6157C52.0101 66.6157 65.9278 52.6981 65.9278 35.5298C65.9278 18.3616 52.0101 4.44397 34.8419 4.44397C17.6736 4.44397 3.75601 18.3616 3.75601 35.5298C3.75601 52.6981 17.6736 66.6157 34.8419 66.6157Z" fill="#FFFCBD"/>
<path d="M34.8419 66.5946C51.9985 66.5946 65.9067 52.6864 65.9067 35.5298C65.9067 18.3732 51.9985 4.46497 34.8419 4.46497C17.6852 4.46497 3.77704 18.3732 3.77704 35.5298C3.77704 52.6864 17.6852 66.5946 34.8419 66.5946Z" fill="#FFFCBC"/>
<path d="M34.8419 66.5759C51.9882 66.5759 65.888 52.6761 65.888 35.5298C65.888 18.3835 51.9882 4.48364 34.8419 4.48364C17.6956 4.48364 3.79575 18.3835 3.79575 35.5298C3.79575 52.6761 17.6956 66.5759 34.8419 66.5759Z" fill="#FFFCBB"/>
<path d="M56.7796 57.4683C68.8957 45.3523 68.8957 25.7083 56.7796 13.5922C44.6636 1.47616 25.0195 1.47615 12.9035 13.5922C0.787428 25.7083 0.787428 45.3523 12.9035 57.4683C25.0195 69.5844 44.6636 69.5844 56.7796 57.4683Z" fill="#FFFBBA"/>
<path d="M56.7664 57.4551C68.8751 45.3464 68.8751 25.7142 56.7664 13.6054C44.6576 1.49668 25.0254 1.49668 12.9167 13.6054C0.807937 25.7142 0.807937 45.3464 12.9167 57.4551C25.0254 69.5639 44.6576 69.5639 56.7664 57.4551Z" fill="#FFFBB9"/>
<path d="M56.7515 57.4402C68.852 45.3397 68.852 25.7208 56.7515 13.6203C44.651 1.51977 25.0321 1.51977 12.9316 13.6203C0.831033 25.7208 0.831033 45.3397 12.9316 57.4402C25.0321 69.5408 44.651 69.5408 56.7515 57.4402Z" fill="#FFFBB8"/>
<path d="M56.7383 57.427C68.8315 45.3338 68.8315 25.7268 56.7383 13.6335C44.6451 1.54029 25.038 1.54029 12.9448 13.6335C0.851572 25.7268 0.851572 45.3338 12.9448 57.427C25.038 69.5203 44.6451 69.5203 56.7383 57.427Z" fill="#FFFBB7"/>
<path d="M56.7234 57.4121C68.8084 45.3271 68.8084 25.7334 56.7234 13.6484C44.6384 1.56339 25.0447 1.56338 12.9597 13.6484C0.874637 25.7334 0.874637 45.3271 12.9597 57.4121C25.0447 69.4972 44.6384 69.4972 56.7234 57.4121Z" fill="#FFFBB6"/>
<path d="M56.7102 57.3989C68.7879 45.3212 68.7879 25.7393 56.7102 13.6616C44.6325 1.58391 25.0506 1.5839 12.9729 13.6616C0.895176 25.7393 0.895176 45.3212 12.9729 57.3989C25.0506 69.4766 44.6325 69.4766 56.7102 57.3989Z" fill="#FFFBB5"/>
<path d="M34.8419 66.4357C51.9107 66.4357 65.7478 52.5987 65.7478 35.5298C65.7478 18.4609 51.9107 4.6239 34.8419 4.6239C17.773 4.6239 3.93597 18.4609 3.93597 35.5298C3.93597 52.5987 17.773 66.4357 34.8419 66.4357Z" fill="#FFFBB4"/>
<path d="M34.8419 66.417C51.9004 66.417 65.7291 52.5883 65.7291 35.5298C65.7291 18.4713 51.9004 4.64258 34.8419 4.64258C17.7834 4.64258 3.95468 18.4713 3.95468 35.5298C3.95468 52.5883 17.7834 66.417 34.8419 66.417Z" fill="#FFFBB3"/>
<path d="M34.8419 66.396C51.8888 66.396 65.708 52.5768 65.708 35.5299C65.708 18.483 51.8888 4.6637 34.8419 4.6637C17.795 4.6637 3.97571 18.483 3.97571 35.5299C3.97571 52.5768 17.795 66.396 34.8419 66.396Z" fill="#FFFBB2"/>
<path d="M34.8419 66.3773C51.8785 66.3773 65.6894 52.5664 65.6894 35.5298C65.6894 18.4933 51.8785 4.68237 34.8419 4.68237C17.8053 4.68237 3.99442 18.4933 3.99442 35.5298C3.99442 52.5664 17.8053 66.3773 34.8419 66.3773Z" fill="#FFFBB1"/>
<path d="M34.8419 66.3562C51.8669 66.3562 65.6683 52.5548 65.6683 35.5298C65.6683 18.5048 51.8669 4.70337 34.8419 4.70337C17.8169 4.70337 4.01544 18.5048 4.01544 35.5298C4.01544 52.5548 17.8169 66.3562 34.8419 66.3562Z" fill="#FFFBB0"/>
<path d="M34.8419 66.3375C51.8565 66.3375 65.6496 52.5444 65.6496 35.5298C65.6496 18.5151 51.8565 4.72205 34.8419 4.72205C17.8272 4.72205 4.03415 18.5151 4.03415 35.5298C4.03415 52.5444 17.8272 66.3375 34.8419 66.3375Z" fill="#FFFBAF"/>
<path d="M34.8419 66.3166C51.8449 66.3166 65.6286 52.5329 65.6286 35.5299C65.6286 18.5268 51.8449 4.74316 34.8419 4.74316C17.8389 4.74316 4.05518 18.5268 4.05518 35.5299C4.05518 52.5329 17.8389 66.3166 34.8419 66.3166Z" fill="#FFFBAE"/>
<path d="M56.5978 57.2865C68.6135 45.2709 68.6135 25.7897 56.5978 13.774C44.5822 1.75836 25.1009 1.75835 13.0853 13.774C1.06962 25.7897 1.06962 45.2709 13.0853 57.2865C25.1009 69.3022 44.5822 69.3022 56.5978 57.2865Z" fill="#FFFBAD"/>
<path d="M56.5829 57.2717C68.5904 45.2642 68.5904 25.7963 56.5829 13.7889C44.5755 1.78145 25.1076 1.78145 13.1002 13.7889C1.09272 25.7963 1.09272 45.2642 13.1002 57.2717C25.1076 69.2791 44.5755 69.2791 56.5829 57.2717Z" fill="#FFFBAC"/>
<path d="M56.5697 57.2584C68.5698 45.2583 68.5698 25.8022 56.5697 13.8021C44.5696 1.80197 25.1135 1.80197 13.1134 13.8021C1.11322 25.8022 1.11322 45.2583 13.1134 57.2584C25.1135 69.2586 44.5696 69.2586 56.5697 57.2584Z" fill="#FFFBAB"/>
<path d="M56.5548 57.2436C68.5468 45.2516 68.5468 25.8089 56.5548 13.817C44.5629 1.82506 25.1202 1.82506 13.1282 13.817C1.13632 25.8089 1.13632 45.2516 13.1282 57.2436C25.1202 69.2355 44.5629 69.2355 56.5548 57.2436Z" fill="#FFFBAA"/>
<path d="M56.5416 57.2303C68.5262 45.2457 68.5262 25.8148 56.5416 13.8302C44.557 1.84558 25.1261 1.84558 13.1415 13.8302C1.15686 25.8148 1.15686 45.2457 13.1415 57.2303C25.1261 69.215 44.557 69.215 56.5416 57.2303Z" fill="#FFFBA9"/>
<path d="M56.5267 57.2155C68.5031 45.2391 68.5031 25.8215 56.5267 13.8451C44.5503 1.86868 25.1327 1.86867 13.1563 13.8451C1.17993 25.8215 1.17993 45.2391 13.1563 57.2155C25.1327 69.1919 44.5503 69.1919 56.5267 57.2155Z" fill="#FFFBA8"/>
<path d="M34.8419 66.1786C51.7687 66.1786 65.4907 52.4566 65.4907 35.5298C65.4907 18.6029 51.7687 4.88098 34.8419 4.88098C17.915 4.88098 4.19308 18.6029 4.19308 35.5298C4.19308 52.4566 17.915 66.1786 34.8419 66.1786Z" fill="#FFFBA7"/>
<path d="M34.8419 66.1576C51.7571 66.1576 65.4696 52.4451 65.4696 35.5299C65.4696 18.6146 51.7571 4.9021 34.8419 4.9021C17.9266 4.9021 4.21411 18.6146 4.21411 35.5299C4.21411 52.4451 17.9266 66.1576 34.8419 66.1576Z" fill="#FFFAA6"/>
<path d="M34.8419 66.1389C51.7468 66.1389 65.451 52.4348 65.451 35.5298C65.451 18.6249 51.7468 4.92078 34.8419 4.92078C17.937 4.92078 4.23282 18.6249 4.23282 35.5298C4.23282 52.4348 17.937 66.1389 34.8419 66.1389Z" fill="#FFFAA5"/>
<path d="M34.8419 66.1178C51.7352 66.1178 65.4299 52.4231 65.4299 35.5298C65.4299 18.6365 51.7352 4.94177 34.8419 4.94177C17.9486 4.94177 4.25385 18.6365 4.25385 35.5298C4.25385 52.4231 17.9486 66.1178 34.8419 66.1178Z" fill="#FFFAA4"/>
<path d="M34.8419 66.0991C51.7249 66.0991 65.4112 52.4128 65.4112 35.5298C65.4112 18.6468 51.7249 4.96045 34.8419 4.96045C17.9589 4.96045 4.27255 18.6468 4.27255 35.5298C4.27255 52.4128 17.9589 66.0991 34.8419 66.0991Z" fill="#FFFAA3"/>
<path d="M34.8419 66.0804C51.7145 66.0804 65.3925 52.4024 65.3925 35.5298C65.3925 18.6571 51.7145 4.97913 34.8419 4.97913C17.9692 4.97913 4.29123 18.6571 4.29123 35.5298C4.29123 52.4024 17.9692 66.0804 34.8419 66.0804Z" fill="#FFFAA2"/>
<path d="M56.4292 57.118C68.3518 45.1954 68.3518 25.8651 56.4292 13.9426C44.5067 2.02004 25.1764 2.02004 13.2539 13.9426C1.33131 25.8651 1.33131 45.1954 13.2539 57.118C25.1764 69.0405 44.5067 69.0405 56.4292 57.118Z" fill="#FFFAA1"/>
<path d="M56.416 57.1047C68.3312 45.1895 68.3312 25.8711 56.416 13.9558C44.5007 2.04056 25.1823 2.04056 13.2671 13.9558C1.35182 25.8711 1.35182 45.1895 13.2671 57.1047C25.1823 69.02 44.5007 69.02 56.416 57.1047Z" fill="#FFFAA0"/>
<path d="M56.4011 57.0899C68.3082 45.1828 68.3082 25.8777 56.4011 13.9707C44.4941 2.06365 25.189 2.06365 13.2819 13.9707C1.37491 25.8777 1.37491 45.1828 13.2819 57.0899C25.189 68.9969 44.4941 68.9969 56.4011 57.0899Z" fill="#FFFA9F"/>
<path d="M56.3879 57.0766C68.2876 45.1769 68.2876 25.8836 56.3879 13.9839C44.4882 2.08418 25.1949 2.08417 13.2952 13.9839C1.39545 25.8836 1.39545 45.1769 13.2952 57.0766C25.1949 68.9764 44.4882 68.9764 56.3879 57.0766Z" fill="#FFFA9E"/>
<path d="M56.373 57.0618C68.2645 45.1703 68.2645 25.8903 56.373 13.9988C44.4815 2.10726 25.2015 2.10726 13.31 13.9988C1.41851 25.8903 1.41851 45.1703 13.31 57.0618C25.2015 68.9533 44.4815 68.9533 56.373 57.0618Z" fill="#FFFA9D"/>
<path d="M56.3598 57.0485C68.244 45.1643 68.244 25.8962 56.3598 14.012C44.4756 2.12779 25.2075 2.12779 13.3233 14.012C1.43905 25.8962 1.43905 45.1643 13.3233 57.0485C25.2075 68.9328 44.4756 68.9328 56.3598 57.0485Z" fill="#FFFA9C"/>
<path d="M56.3449 57.0337C68.2209 45.1577 68.2209 25.9029 56.3449 14.0269C44.4689 2.15088 25.2141 2.15087 13.3381 14.0269C1.46215 25.9029 1.46215 45.1577 13.3381 57.0337C25.2141 68.9097 44.4689 68.9097 56.3449 57.0337Z" fill="#FFFA9B"/>
<path d="M34.8419 65.9215C51.6267 65.9215 65.2336 52.3146 65.2336 35.5298C65.2336 18.7449 51.6267 5.13806 34.8419 5.13806C18.057 5.13806 4.45016 18.7449 4.45016 35.5298C4.45016 52.3146 18.057 65.9215 34.8419 65.9215Z" fill="#FFFA9A"/>
<path d="M34.8419 65.9005C51.6151 65.9005 65.2126 52.3031 65.2126 35.5298C65.2126 18.7566 51.6151 5.15918 34.8419 5.15918C18.0686 5.15918 4.47122 18.7566 4.47122 35.5298C4.47122 52.3031 18.0686 65.9005 34.8419 65.9005Z" fill="#FFFA99"/>
<path d="M34.8419 65.8818C51.6048 65.8818 65.1938 52.2928 65.1938 35.5298C65.1938 18.7669 51.6048 5.17786 34.8419 5.17786C18.0789 5.17786 4.4899 18.7669 4.4899 35.5298C4.4899 52.2928 18.0789 65.8818 34.8419 65.8818Z" fill="#FFFA98"/>
<path d="M34.8419 65.8607C51.5932 65.8607 65.1728 52.2811 65.1728 35.5298C65.1728 18.7785 51.5932 5.19885 34.8419 5.19885C18.0906 5.19885 4.51096 18.7785 4.51096 35.5298C4.51096 52.2811 18.0906 65.8607 34.8419 65.8607Z" fill="#FFFA97"/>
<path d="M34.8419 65.842C51.5828 65.842 65.1541 52.2707 65.1541 35.5298C65.1541 18.7888 51.5828 5.21753 34.8419 5.21753C18.1009 5.21753 4.52963 18.7888 4.52963 35.5298C4.52963 52.2707 18.1009 65.842 34.8419 65.842Z" fill="#FFFA96"/>
<path d="M34.8419 65.821C51.5713 65.821 65.1331 52.2592 65.1331 35.5298C65.1331 18.8005 51.5713 5.23865 34.8419 5.23865C18.1125 5.23865 4.55069 18.8005 4.55069 35.5298C4.55069 52.2592 18.1125 65.821 34.8419 65.821Z" fill="#FFFA95"/>
<path d="M56.2474 56.9362C68.0696 45.114 68.0696 25.9465 56.2474 14.1244C44.4253 2.30224 25.2578 2.30224 13.4356 14.1244C1.6135 25.9465 1.6135 45.114 13.4356 56.9362C25.2578 68.7583 44.4253 68.7583 56.2474 56.9362Z" fill="#FFFA94"/>
<path d="M56.2326 56.9213C68.0465 45.1074 68.0465 25.9532 56.2326 14.1393C44.4186 2.32533 25.2645 2.32533 13.4505 14.1393C1.63659 25.9532 1.63659 45.1074 13.4505 56.9213C25.2645 68.7352 44.4186 68.7352 56.2326 56.9213Z" fill="#FFF993"/>
<path d="M56.2193 56.9081C68.0259 45.1014 68.0259 25.9591 56.2193 14.1525C44.4127 2.34585 25.2704 2.34585 13.4637 14.1525C1.6571 25.9591 1.6571 45.1014 13.4637 56.9081C25.2704 68.7147 44.4127 68.7147 56.2193 56.9081Z" fill="#FFF992"/>
<path d="M56.2044 56.8932C68.0029 45.0948 68.0029 25.9658 56.2044 14.1674C44.406 2.36895 25.277 2.36894 13.4786 14.1674C1.6802 25.9658 1.6802 45.0948 13.4786 56.8932C25.277 68.6916 44.406 68.6916 56.2044 56.8932Z" fill="#FFF991"/>
<path d="M56.1912 56.88C67.9824 45.0889 67.9824 25.9717 56.1912 14.1806C44.4001 2.38947 25.283 2.38946 13.4918 14.1806C1.70074 25.9717 1.70074 45.0889 13.4918 56.88C25.283 68.6711 44.4001 68.6711 56.1912 56.88Z" fill="#FFF990"/>
<path d="M56.1764 56.8651C67.9593 45.0822 67.9593 25.9784 56.1764 14.1955C44.3935 2.41256 25.2896 2.41255 13.5067 14.1954C1.72383 25.9783 1.72383 45.0822 13.5067 56.8651C25.2896 68.648 44.3935 68.648 56.1764 56.8651Z" fill="#FFF98F"/>
<path d="M56.1631 56.8519C67.9387 45.0763 67.9387 25.9843 56.1631 14.2087C44.3875 2.43308 25.2955 2.43308 13.5199 14.2087C1.74434 25.9843 1.74434 45.0763 13.5199 56.8519C25.2955 68.6275 44.3875 68.6275 56.1631 56.8519Z" fill="#FFF98E"/>
<path d="M34.8419 65.6621C51.4835 65.6621 64.9741 52.1714 64.9741 35.5298C64.9741 18.8883 51.4835 5.39758 34.8419 5.39758C18.2003 5.39758 4.70963 18.8883 4.70963 35.5298C4.70963 52.1714 18.2003 65.6621 34.8419 65.6621Z" fill="#FFF98D"/>
<path d="M34.8419 65.6434C51.4731 65.6434 64.9554 52.1611 64.9554 35.5298C64.9554 18.8986 51.4731 5.41626 34.8419 5.41626C18.2106 5.41626 4.7283 18.8986 4.7283 35.5298C4.7283 52.1611 18.2106 65.6434 34.8419 65.6434Z" fill="#FFF98C"/>
<path d="M34.8419 65.6223C51.4615 65.6223 64.9344 52.1494 64.9344 35.5298C64.9344 18.9101 51.4615 5.43726 34.8419 5.43726C18.2222 5.43726 4.74936 18.9101 4.74936 35.5298C4.74936 52.1494 18.2222 65.6223 34.8419 65.6223Z" fill="#FFF98B"/>
<path d="M34.8419 65.6036C51.4512 65.6036 64.9157 52.1391 64.9157 35.5298C64.9157 18.9204 51.4512 5.45593 34.8419 5.45593C18.2326 5.45593 4.76804 18.9204 4.76804 35.5298C4.76804 52.1391 18.2326 65.6036 34.8419 65.6036Z" fill="#FFF98A"/>
<path d="M34.8419 65.5826C51.4396 65.5826 64.8947 52.1275 64.8947 35.5298C64.8947 18.9321 51.4396 5.47705 34.8419 5.47705C18.2442 5.47705 4.78909 18.9321 4.78909 35.5298C4.78909 52.1275 18.2442 65.5826 34.8419 65.5826Z" fill="#FFF989"/>
<path d="M34.8419 65.5639C51.4292 65.5639 64.876 52.1172 64.876 35.5298C64.876 18.9425 51.4292 5.49573 34.8419 5.49573C18.2545 5.49573 4.80777 18.9425 4.80777 35.5298C4.80777 52.1172 18.2545 65.5639 34.8419 65.5639Z" fill="#FFF988"/>
<path d="M56.064 56.7527C67.7848 45.0319 67.7848 26.0287 56.064 14.3078C44.3432 2.58701 25.3399 2.58701 13.6191 14.3078C1.89828 26.0287 1.89828 45.0319 13.6191 56.7527C25.3399 68.4735 44.3432 68.4735 56.064 56.7527Z" fill="#FFF987"/>
<path d="M56.0507 56.7395C67.7643 45.026 67.7643 26.0346 56.0507 14.3211C44.3372 2.60753 25.3458 2.60753 13.6323 14.3211C1.91879 26.0346 1.91879 45.026 13.6323 56.7395C25.3458 68.453 44.3372 68.453 56.0507 56.7395Z" fill="#FFF986"/>
<path d="M56.0359 56.7246C67.7412 45.0193 67.7412 26.0412 56.0359 14.3359C44.3306 2.63062 25.3525 2.63062 13.6472 14.3359C1.94188 26.0412 1.94188 45.0193 13.6472 56.7246C25.3525 68.4299 44.3306 68.4299 56.0359 56.7246Z" fill="#FFF985"/>
<path d="M56.0227 56.7114C67.7207 45.0134 67.7207 26.0472 56.0227 14.3492C44.3247 2.65114 25.3584 2.65114 13.6604 14.3492C1.96242 26.0472 1.96242 45.0134 13.6604 56.7114C25.3584 68.4094 44.3247 68.4094 56.0227 56.7114Z" fill="#FFF984"/>
<path d="M56.0078 56.6965C67.6976 45.0067 67.6976 26.0538 56.0078 14.364C44.318 2.67423 25.3651 2.67423 13.6753 14.364C1.98548 26.0538 1.98548 45.0067 13.6753 56.6965C25.3651 68.3863 44.318 68.3863 56.0078 56.6965Z" fill="#FFF983"/>
<path d="M55.9946 56.6833C67.6771 45.0008 67.6771 26.0597 55.9946 14.3773C44.3121 2.69476 25.371 2.69476 13.6885 14.3772C2.00602 26.0597 2.00602 45.0008 13.6885 56.6833C25.371 68.3658 44.3121 68.3658 55.9946 56.6833Z" fill="#FFF982"/>
<path d="M34.8419 65.4237C51.3518 65.4237 64.7357 52.0398 64.7357 35.5298C64.7357 19.0199 51.3518 5.63599 34.8419 5.63599C18.332 5.63599 4.94803 19.0199 4.94803 35.5298C4.94803 52.0398 18.332 65.4237 34.8419 65.4237Z" fill="#FFF981"/>
<path d="M34.8419 65.405C51.3415 65.405 64.717 52.0294 64.717 35.5298C64.717 19.0302 51.3415 5.65466 34.8419 5.65466C18.3423 5.65466 4.96671 19.0302 4.96671 35.5298C4.96671 52.0294 18.3423 65.405 34.8419 65.405Z" fill="#FFF980"/>
<path d="M34.8419 65.3839C51.3299 65.3839 64.696 52.0178 64.696 35.5298C64.696 19.0418 51.3299 5.67566 34.8419 5.67566C18.3539 5.67566 4.98776 19.0418 4.98776 35.5298C4.98776 52.0178 18.3539 65.3839 34.8419 65.3839Z" fill="#FFF87F"/>
<path d="M34.8419 65.3652C51.3195 65.3652 64.6773 52.0074 64.6773 35.5298C64.6773 19.0521 51.3195 5.69434 34.8419 5.69434C18.3642 5.69434 5.00644 19.0521 5.00644 35.5298C5.00644 52.0074 18.3642 65.3652 34.8419 65.3652Z" fill="#FFF87E"/>
<path d="M34.8419 65.3442C51.3079 65.3442 64.6563 51.9959 64.6563 35.5298C64.6563 19.0638 51.3079 5.71545 34.8419 5.71545C18.3759 5.71545 5.0275 19.0638 5.0275 35.5298C5.0275 51.9959 18.3759 65.3442 34.8419 65.3442Z" fill="#FFF87D"/>
<path d="M34.8419 65.3255C51.2976 65.3255 64.6376 51.9855 64.6376 35.5298C64.6376 19.0741 51.2976 5.73413 34.8419 5.73413C18.3862 5.73413 5.04617 19.0741 5.04617 35.5298C5.04617 51.9855 18.3862 65.3255 34.8419 65.3255Z" fill="#FFF87C"/>
<path d="M34.8419 65.3044C51.286 65.3044 64.6165 51.9739 64.6165 35.5298C64.6165 19.0857 51.286 5.75513 34.8419 5.75513C18.3978 5.75513 5.06723 19.0857 5.06723 35.5298C5.06723 51.9739 18.3978 65.3044 34.8419 65.3044Z" fill="#FFF87B"/>
<path d="M55.8822 56.5709C67.5026 44.9505 67.5026 26.1101 55.8822 14.4896C44.2618 2.86921 25.4213 2.86921 13.8009 14.4896C2.18047 26.1101 2.18047 44.9505 13.8009 56.5709C25.4213 68.1913 44.2618 68.1913 55.8822 56.5709Z" fill="#FFF87A"/>
<path d="M55.8673 56.556C67.4795 44.9438 67.4795 26.1167 55.8673 14.5045C44.2551 2.8923 25.428 2.8923 13.8158 14.5045C2.20357 26.1167 2.20357 44.9438 13.8158 56.556C25.428 68.1683 44.2551 68.1682 55.8673 56.556Z" fill="#FFF879"/>
<path d="M55.8541 56.5428C67.459 44.9379 67.459 26.1226 55.8541 14.5177C44.2492 2.91282 25.4339 2.91282 13.829 14.5177C2.22407 26.1226 2.22407 44.9379 13.829 56.5428C25.4339 68.1477 44.2492 68.1477 55.8541 56.5428Z" fill="#FFF878"/>
<path d="M55.8392 56.5279C67.4359 44.9312 67.4359 26.1293 55.8392 14.5326C44.2425 2.93591 25.4406 2.93591 13.8439 14.5326C2.24717 26.1293 2.24717 44.9313 13.8439 56.5279C25.4406 68.1246 44.2425 68.1246 55.8392 56.5279Z" fill="#FFF877"/>
<path d="M55.826 56.5147C67.4154 44.9253 67.4154 26.1352 55.826 14.5458C44.2366 2.95644 25.4465 2.95644 13.8571 14.5458C2.26771 26.1352 2.26771 44.9253 13.8571 56.5147C25.4465 68.1041 44.2366 68.1041 55.826 56.5147Z" fill="#FFF876"/>
<path d="M55.8111 56.4998C67.3923 44.9187 67.3923 26.1419 55.8111 14.5607C44.23 2.97952 25.4532 2.97953 13.872 14.5607C2.2908 26.1419 2.2908 44.9187 13.872 56.4998C25.4532 68.081 44.23 68.081 55.8111 56.4998Z" fill="#FFF875"/>
<path d="M34.8419 65.1666C51.2098 65.1666 64.4786 51.8978 64.4786 35.5298C64.4786 19.1619 51.2098 5.89307 34.8419 5.89307C18.4739 5.89307 5.20511 19.1619 5.20511 35.5298C5.20511 51.8978 18.4739 65.1666 34.8419 65.1666Z" fill="#FFF874"/>
<path d="M34.8419 65.1479C51.1995 65.1479 64.4599 51.8874 64.4599 35.5298C64.4599 19.1722 51.1995 5.91174 34.8419 5.91174C18.4843 5.91174 5.22382 19.1722 5.22382 35.5298C5.22382 51.8874 18.4843 65.1479 34.8419 65.1479Z" fill="#FFF873"/>
<path d="M34.8419 65.1268C51.1879 65.1268 64.4389 51.8758 64.4389 35.5298C64.4389 19.1838 51.1879 5.93274 34.8419 5.93274C18.4959 5.93274 5.24484 19.1838 5.24484 35.5298C5.24484 51.8758 18.4959 65.1268 34.8419 65.1268Z" fill="#FFF872"/>
<path d="M34.8419 65.1082C51.1775 65.1082 64.4202 51.8655 64.4202 35.5299C64.4202 19.1942 51.1775 5.95154 34.8419 5.95154C18.5062 5.95154 5.26355 19.1942 5.26355 35.5299C5.26355 51.8655 18.5062 65.1082 34.8419 65.1082Z" fill="#FFF871"/>
<path d="M34.8419 65.0871C51.1659 65.0871 64.3992 51.8539 64.3992 35.5298C64.3992 19.2058 51.1659 5.97253 34.8419 5.97253C18.5178 5.97253 5.28458 19.2058 5.28458 35.5298C5.28458 51.8539 18.5178 65.0871 34.8419 65.0871Z" fill="#FFF870"/>
<path d="M34.8419 65.0684C51.1556 65.0684 64.3805 51.8435 64.3805 35.5298C64.3805 19.2161 51.1556 5.99121 34.8419 5.99121C18.5282 5.99121 5.30328 19.2161 5.30328 35.5298C5.30328 51.8435 18.5282 65.0684 34.8419 65.0684Z" fill="#FFF86F"/>
<path d="M34.8419 65.0473C51.144 65.0473 64.3594 51.8319 64.3594 35.5298C64.3594 19.2277 51.144 6.01221 34.8419 6.01221C18.5398 6.01221 5.32431 19.2277 5.32431 35.5298C5.32431 51.8319 18.5398 65.0473 34.8419 65.0473Z" fill="#FFF86E"/>
<path d="M55.7004 56.3891C67.2204 44.8691 67.2204 26.1915 55.7004 14.6714C44.1803 3.15141 25.5027 3.15141 13.9827 14.6714C2.46266 26.1915 2.46266 44.8691 13.9827 56.3891C25.5027 67.9091 44.1803 67.9091 55.7004 56.3891Z" fill="#FFF86D"/>
<path d="M55.6855 56.3742C67.1973 44.8624 67.1973 26.1981 55.6855 14.6863C44.1737 3.1745 25.5094 3.1745 13.9976 14.6863C2.48576 26.1981 2.48576 44.8624 13.9976 56.3742C25.5094 67.886 44.1737 67.886 55.6855 56.3742Z" fill="#FFF86C"/>
<path d="M55.6723 56.361C67.1768 44.8565 67.1768 26.204 55.6723 14.6995C44.1678 3.19503 25.5153 3.19502 14.0108 14.6995C2.5063 26.204 2.5063 44.8565 14.0108 56.361C25.5153 67.8655 44.1678 67.8655 55.6723 56.361Z" fill="#FFF76B"/>
<path d="M55.6574 56.3461C67.1537 44.8499 67.1537 26.2107 55.6574 14.7144C44.1611 3.21812 25.522 3.21811 14.0257 14.7144C2.52939 26.2107 2.52939 44.8499 14.0257 56.3461C25.522 67.8424 44.1611 67.8424 55.6574 56.3461Z" fill="#FFF76A"/>
<path d="M55.6442 56.3329C67.1332 44.8439 67.1332 26.2166 55.6442 14.7276C44.1552 3.23864 25.5279 3.23863 14.0389 14.7276C2.5499 26.2166 2.5499 44.8439 14.0389 56.3329C25.5279 67.8219 44.1552 67.8219 55.6442 56.3329Z" fill="#FFF769"/>
<path d="M55.6293 56.318C67.1101 44.8373 67.1101 26.2233 55.6293 14.7425C44.1485 3.26173 25.5345 3.26173 14.0538 14.7425C2.573 26.2233 2.573 44.8373 14.0538 56.318C25.5345 67.7988 44.1485 67.7988 55.6293 56.318Z" fill="#FFF768"/>
<path d="M34.8419 64.9095C51.0678 64.9095 64.2215 51.7557 64.2215 35.5298C64.2215 19.3039 51.0678 6.15015 34.8419 6.15015C18.6159 6.15015 5.46222 19.3039 5.46222 35.5298C5.46222 51.7557 18.6159 64.9095 34.8419 64.9095Z" fill="#FFF767"/>
<path d="M34.8419 64.8884C51.0562 64.8884 64.2005 51.7441 64.2005 35.5298C64.2005 19.3154 51.0562 6.17114 34.8419 6.17114C18.6276 6.17114 5.48325 19.3154 5.48325 35.5298C5.48325 51.7441 18.6276 64.8884 34.8419 64.8884Z" fill="#FFF766"/>
<path d="M34.8419 64.8698C51.0459 64.8698 64.1818 51.7339 64.1818 35.5299C64.1818 19.3259 51.0459 6.18994 34.8419 6.18994C18.6379 6.18994 5.50195 19.3259 5.50195 35.5299C5.50195 51.7339 18.6379 64.8698 34.8419 64.8698Z" fill="#FFF765"/>
<path d="M34.8419 64.8487C51.0342 64.8487 64.1608 51.7222 64.1608 35.5298C64.1608 19.3375 51.0342 6.21094 34.8419 6.21094C18.6495 6.21094 5.52298 19.3375 5.52298 35.5298C5.52298 51.7222 18.6495 64.8487 34.8419 64.8487Z" fill="#FFF764"/>
<path d="M34.8419 64.83C51.0239 64.83 64.1421 51.7118 64.1421 35.5298C64.1421 19.3478 51.0239 6.22961 34.8419 6.22961C18.6598 6.22961 5.54169 19.3478 5.54169 35.5298C5.54169 51.7118 18.6598 64.83 34.8419 64.83Z" fill="#FFF763"/>
<path d="M34.8419 64.8089C51.0123 64.8089 64.121 51.7002 64.121 35.5298C64.121 19.3593 51.0123 6.25061 34.8419 6.25061C18.6714 6.25061 5.56271 19.3593 5.56271 35.5298C5.56271 51.7002 18.6714 64.8089 34.8419 64.8089Z" fill="#FFF762"/>
<path d="M55.5318 56.2205C66.9587 44.7936 66.9587 26.2669 55.5318 14.84C44.1049 3.41309 25.5782 3.41309 14.1513 14.84C2.72435 26.2669 2.72435 44.7936 14.1513 56.2205C25.5782 67.6475 44.1049 67.6475 55.5318 56.2205Z" fill="#FFF761"/>
<path d="M55.5169 56.2057C66.9356 44.787 66.9356 26.2736 55.5169 14.8549C44.0982 3.43618 25.5848 3.43618 14.1661 14.8549C2.74744 26.2736 2.74744 44.787 14.1661 56.2057C25.5848 67.6244 44.0982 67.6244 55.5169 56.2057Z" fill="#FFF760"/>
<path d="M55.5037 56.1924C66.9151 44.781 66.9151 26.2795 55.5037 14.8681C44.0923 3.45671 25.5908 3.4567 14.1794 14.8681C2.76798 26.2795 2.76798 44.781 14.1794 56.1924C25.5908 67.6038 44.0923 67.6038 55.5037 56.1924Z" fill="#FFF75F"/>
<path d="M55.4888 56.1776C66.892 44.7744 66.892 26.2862 55.4888 14.883C44.0856 3.47979 25.5974 3.47979 14.1942 14.883C2.79105 26.2862 2.79105 44.7744 14.1942 56.1776C25.5974 67.5808 44.0856 67.5808 55.4888 56.1776Z" fill="#FFF75E"/>
<path d="M55.4756 56.1643C66.8715 44.7685 66.8715 26.2921 55.4756 14.8962C44.0797 3.50031 25.6034 3.50031 14.2075 14.8962C2.81158 26.2921 2.81158 44.7685 14.2075 56.1643C25.6034 67.5602 44.0797 67.5602 55.4756 56.1643Z" fill="#FFF75D"/>
<path d="M55.4607 56.1495C66.8484 44.7618 66.8484 26.2987 55.4607 14.9111C44.0731 3.52341 25.61 3.5234 14.2223 14.9111C2.83468 26.2987 2.83468 44.7618 14.2223 56.1495C25.61 67.5371 44.0731 67.5371 55.4607 56.1495Z" fill="#FFF75C"/>
<path d="M55.4475 56.1362C66.8279 44.7559 66.8279 26.3047 55.4475 14.9243C44.0671 3.54393 25.6159 3.54393 14.2356 14.9243C2.85519 26.3047 2.85519 44.7559 14.2356 56.1363C25.6159 67.5166 44.0671 67.5166 55.4475 56.1362Z" fill="#FFF75B"/>
<path d="M34.8419 64.65C50.9245 64.65 63.9621 51.6124 63.9621 35.5298C63.9621 19.4471 50.9245 6.40955 34.8419 6.40955C18.7592 6.40955 5.72165 19.4471 5.72165 35.5298C5.72165 51.6124 18.7592 64.65 34.8419 64.65Z" fill="#FFF75A"/>
<path d="M34.8419 64.6314C50.9142 64.6314 63.9434 51.6022 63.9434 35.5299C63.9434 19.4575 50.9142 6.42834 34.8419 6.42834C18.7696 6.42834 5.74036 19.4575 5.74036 35.5299C5.74036 51.6022 18.7696 64.6314 34.8419 64.6314Z" fill="#FFF759"/>
<path d="M34.8419 64.6103C50.9026 64.6103 63.9224 51.5905 63.9224 35.5298C63.9224 19.4691 50.9026 6.44934 34.8419 6.44934C18.7812 6.44934 5.76138 19.4691 5.76138 35.5298C5.76138 51.5905 18.7812 64.6103 34.8419 64.6103Z" fill="#FFF658"/>
<path d="M34.8419 64.5916C50.8923 64.5916 63.9037 51.5802 63.9037 35.5298C63.9037 19.4794 50.8923 6.46802 34.8419 6.46802C18.7915 6.46802 5.78009 19.4794 5.78009 35.5298C5.78009 51.5802 18.7915 64.5916 34.8419 64.5916Z" fill="#FFF657"/>
<path d="M34.8419 64.5705C50.8806 64.5705 63.8826 51.5685 63.8826 35.5298C63.8826 19.491 50.8806 6.48901 34.8419 6.48901C18.8031 6.48901 5.80112 19.491 5.80112 35.5298C5.80112 51.5685 18.8031 64.5705 34.8419 64.5705Z" fill="#FFF656"/>
<path d="M34.8419 64.5519C50.8703 64.5519 63.8639 51.5583 63.8639 35.5299C63.8639 19.5014 50.8703 6.50781 34.8419 6.50781C18.8134 6.50781 5.81982 19.5014 5.81982 35.5299C5.81982 51.5583 18.8134 64.5519 34.8419 64.5519Z" fill="#FFF655"/>
<path d="M55.3484 56.0371C66.674 44.7115 66.674 26.3491 55.3484 15.0235C44.0228 3.69786 25.6603 3.69786 14.3347 15.0235C3.00913 26.3491 3.00913 44.7115 14.3347 56.0371C25.6603 67.3627 44.0228 67.3627 55.3484 56.0371Z" fill="#FFF654"/>
<path d="M55.3351 56.0239C66.6534 44.7056 66.6534 26.355 55.3351 15.0367C44.0168 3.71838 25.6662 3.71838 14.3479 15.0367C3.02964 26.355 3.02964 44.7056 14.3479 56.0239C25.6662 67.3422 44.0168 67.3422 55.3351 56.0239Z" fill="#FFF653"/>
<path d="M55.3203 56.009C66.6303 44.6989 66.6303 26.3616 55.3203 15.0516C44.0102 3.74147 25.6729 3.74147 14.3628 15.0516C3.05273 26.3616 3.05273 44.6989 14.3628 56.009C25.6729 67.3191 44.0102 67.3191 55.3203 56.009Z" fill="#FFF652"/>
<path d="M55.307 55.9958C66.6098 44.693 66.6098 26.3676 55.307 15.0648C44.0043 3.762 25.6788 3.76199 14.3761 15.0648C3.07327 26.3676 3.07327 44.693 14.3761 55.9958C25.6788 67.2986 44.0043 67.2985 55.307 55.9958Z" fill="#FFF651"/>
<path d="M55.2921 55.9809C66.5867 44.6863 66.5867 26.3742 55.2921 15.0797C43.9976 3.78508 25.6855 3.78508 14.3909 15.0796C3.09633 26.3742 3.09633 44.6863 14.3909 55.9809C25.6855 67.2755 43.9976 67.2755 55.2921 55.9809Z" fill="#FFF650"/>
<path d="M55.2789 55.9677C66.5662 44.6804 66.5662 26.3801 55.2789 15.0929C43.9917 3.80561 25.6914 3.80561 14.4041 15.0929C3.11687 26.3801 3.11687 44.6804 14.4041 55.9677C25.6914 67.2549 43.9917 67.2549 55.2789 55.9677Z" fill="#FFF64F"/>
<path d="M55.2641 55.9528C66.5431 44.6737 66.5431 26.3868 55.2641 15.1077C43.985 3.8287 25.6981 3.82869 14.419 15.1077C3.13997 26.3868 3.13997 44.6738 14.419 55.9528C25.6981 67.2319 43.985 67.2319 55.2641 55.9528Z" fill="#FFF64E"/>
<path d="M34.8419 64.393C50.7825 64.393 63.705 51.4705 63.705 35.5299C63.705 19.5892 50.7825 6.66675 34.8419 6.66675C18.9012 6.66675 5.97876 19.5892 5.97876 35.5299C5.97876 51.4705 18.9012 64.393 34.8419 64.393Z" fill="#FFF64D"/>
<path d="M34.8419 64.3719C50.7709 64.3719 63.6839 51.4589 63.6839 35.5298C63.6839 19.6008 50.7709 6.68774 34.8419 6.68774C18.9128 6.68774 5.99979 19.6008 5.99979 35.5298C5.99979 51.4589 18.9128 64.3719 34.8419 64.3719Z" fill="#FFF64C"/>
<path d="M34.8419 64.3532C50.7606 64.3532 63.6653 51.4485 63.6653 35.5298C63.6653 19.6111 50.7606 6.70642 34.8419 6.70642C18.9232 6.70642 6.01849 19.6111 6.01849 35.5298C6.01849 51.4485 18.9232 64.3532 34.8419 64.3532Z" fill="#FFF64B"/>
<path d="M34.8419 64.3321C50.749 64.3321 63.6442 51.4369 63.6442 35.5298C63.6442 19.6227 50.749 6.72742 34.8419 6.72742C18.9348 6.72742 6.03952 19.6227 6.03952 35.5298C6.03952 51.4369 18.9348 64.3321 34.8419 64.3321Z" fill="#FFF64A"/>
<path d="M34.8419 64.3135C50.7387 64.3135 63.6255 51.4266 63.6255 35.5299C63.6255 19.6331 50.7387 6.74622 34.8419 6.74622C18.9451 6.74622 6.05823 19.6331 6.05823 35.5299C6.05823 51.4266 18.9451 64.3135 34.8419 64.3135Z" fill="#FFF649"/>
<path d="M34.8419 64.2924C50.727 64.2924 63.6045 51.415 63.6045 35.5298C63.6045 19.6447 50.727 6.76721 34.8419 6.76721C18.9567 6.76721 6.07925 19.6447 6.07925 35.5298C6.07925 51.415 18.9567 64.2924 34.8419 64.2924Z" fill="#FFF648"/>
<path d="M55.1665 55.8553C66.3917 44.6301 66.3917 26.4305 55.1665 15.2053C43.9414 3.98006 25.7417 3.98006 14.5165 15.2053C3.29132 26.4305 3.29132 44.6301 14.5165 55.8553C25.7417 67.0805 43.9414 67.0805 55.1665 55.8553Z" fill="#FFF647"/>
<path d="M55.1517 55.8404C66.3687 44.6234 66.3687 26.4371 55.1517 15.2201C43.9347 4.00315 25.7484 4.00315 14.5314 15.2201C3.31441 26.4371 3.31441 44.6234 14.5314 55.8404C25.7484 67.0574 43.9347 67.0574 55.1517 55.8404Z" fill="#FFF646"/>
<path d="M55.1384 55.8272C66.3481 44.6175 66.3481 26.443 55.1384 15.2334C43.9288 4.02367 25.7543 4.02367 14.5446 15.2334C3.33492 26.443 3.33492 44.6175 14.5446 55.8272C25.7543 67.0369 43.9288 67.0369 55.1384 55.8272Z" fill="#FFF645"/>
<path d="M55.1252 55.814C66.3276 44.6116 66.3276 26.449 55.1252 15.2466C43.9229 4.0442 25.7602 4.0442 14.5578 15.2466C3.35546 26.449 3.35546 44.6116 14.5578 55.814C25.7602 67.0164 43.9229 67.0163 55.1252 55.814Z" fill="#FFF544"/>
<path d="M55.1104 55.7991C66.3045 44.6049 66.3045 26.4556 55.1104 15.2614C43.9162 4.06729 25.7669 4.06728 14.5727 15.2614C3.37856 26.4556 3.37856 44.6049 14.5727 55.7991C25.7669 66.9933 43.9162 66.9933 55.1104 55.7991Z" fill="#FFF543"/>
<path d="M55.0971 55.7859C66.284 44.599 66.284 26.4615 55.0971 15.2747C43.9103 4.08781 25.7728 4.08781 14.5859 15.2747C3.39907 26.4615 3.39907 44.599 14.5859 55.7859C25.7728 66.9727 43.9103 66.9727 55.0971 55.7859Z" fill="#FFF542"/>
<path d="M55.0823 55.771C66.2609 44.5924 66.2609 26.4682 55.0823 15.2895C43.9036 4.1109 25.7795 4.1109 14.6008 15.2895C3.42216 26.4682 3.42216 44.5924 14.6008 55.771C25.7795 66.9496 43.9036 66.9496 55.0823 55.771Z" fill="#FFF541"/>
<path d="M34.8419 64.1359C50.6406 64.1359 63.4479 51.3285 63.4479 35.5298C63.4479 19.7312 50.6406 6.92383 34.8419 6.92383C19.0432 6.92383 6.23587 19.7312 6.23587 35.5298C6.23587 51.3285 19.0432 64.1359 34.8419 64.1359Z" fill="#FFF540"/>
<path d="M34.8419 64.1148C50.6289 64.1148 63.4269 51.3169 63.4269 35.5298C63.4269 19.7428 50.6289 6.94482 34.8419 6.94482C19.0548 6.94482 6.2569 19.7428 6.2569 35.5298C6.2569 51.3169 19.0548 64.1148 34.8419 64.1148Z" fill="#FFF53F"/>
<path d="M34.8419 64.0961C50.6186 64.0961 63.4082 51.3065 63.4082 35.5298C63.4082 19.7531 50.6186 6.9635 34.8419 6.9635C19.0652 6.9635 6.2756 19.7531 6.2756 35.5298C6.2756 51.3065 19.0652 64.0961 34.8419 64.0961Z" fill="#FFF53E"/>
<path d="M34.8419 64.0751C50.607 64.0751 63.3871 51.295 63.3871 35.5299C63.3871 19.7648 50.607 6.98462 34.8419 6.98462C19.0768 6.98462 6.29663 19.7648 6.29663 35.5299C6.29663 51.295 19.0768 64.0751 34.8419 64.0751Z" fill="#FFF53D"/>
<path d="M34.8419 64.0564C50.5967 64.0564 63.3684 51.2846 63.3684 35.5298C63.3684 19.7751 50.5967 7.0033 34.8419 7.0033C19.0871 7.0033 6.31534 19.7751 6.31534 35.5298C6.31534 51.2846 19.0871 64.0564 34.8419 64.0564Z" fill="#FFF53C"/>
<path d="M34.8419 64.0353C50.585 64.0353 63.3474 51.273 63.3474 35.5298C63.3474 19.7866 50.585 7.02429 34.8419 7.02429C19.0987 7.02429 6.33636 19.7866 6.33636 35.5298C6.33636 51.273 19.0987 64.0353 34.8419 64.0353Z" fill="#FFF53B"/>
<path d="M54.9847 55.6735C66.1095 44.5487 66.1095 26.5118 54.9847 15.3871C43.86 4.26226 25.8231 4.26226 14.6983 15.3871C3.57351 26.5118 3.57351 44.5487 14.6983 55.6735C25.8231 66.7983 43.86 66.7983 54.9847 55.6735Z" fill="#FFF53A"/>
<path d="M54.9699 55.6586C66.0864 44.542 66.0864 26.5185 54.9699 15.4019C43.8533 4.28536 25.8298 4.28535 14.7132 15.4019C3.59661 26.5185 3.59661 44.542 14.7132 55.6586C25.8298 66.7752 43.8533 66.7752 54.9699 55.6586Z" fill="#FFF539"/>
<path d="M54.9567 55.6454C66.0659 44.5361 66.0659 26.5244 54.9567 15.4152C43.8474 4.30588 25.8357 4.30587 14.7264 15.4151C3.61715 26.5244 3.61715 44.5361 14.7264 55.6454C25.8357 66.7547 43.8474 66.7547 54.9567 55.6454Z" fill="#FFF538"/>
<path d="M54.9418 55.6305C66.0429 44.5295 66.0429 26.5311 54.9418 15.43C43.8407 4.32897 25.8424 4.32896 14.7413 15.43C3.64024 26.5311 3.64024 44.5295 14.7413 55.6305C25.8424 66.7316 43.8407 66.7316 54.9418 55.6305Z" fill="#FFF537"/>
<path d="M54.9286 55.6173C66.0223 44.5235 66.0223 26.537 54.9286 15.4433C43.8348 4.34949 25.8483 4.34949 14.7545 15.4432C3.66075 26.537 3.66075 44.5235 14.7545 55.6173C25.8483 66.7111 43.8348 66.7111 54.9286 55.6173Z" fill="#FFF536"/>
<path d="M54.9137 55.6024C65.9992 44.5169 65.9992 26.5437 54.9137 15.4581C43.8282 4.37258 25.8549 4.37257 14.7694 15.4581C3.68385 26.5437 3.68385 44.5169 14.7694 55.6024C25.8549 66.688 43.8282 66.688 54.9137 55.6024Z" fill="#FFF535"/>
<path d="M34.8419 63.8975C50.5089 63.8975 63.2095 51.1968 63.2095 35.5298C63.2095 19.8628 50.5089 7.16223 34.8419 7.16223C19.1749 7.16223 6.47427 19.8628 6.47427 35.5298C6.47427 51.1968 19.1749 63.8975 34.8419 63.8975Z" fill="#FFF534"/>
<path d="M34.8419 63.8764C50.4973 63.8764 63.1885 51.1852 63.1885 35.5298C63.1885 19.8744 50.4973 7.18323 34.8419 7.18323C19.1865 7.18323 6.4953 19.8744 6.4953 35.5298C6.4953 51.1852 19.1865 63.8764 34.8419 63.8764Z" fill="#FFF533"/>
<path d="M34.8419 63.8577C50.4869 63.8577 63.1698 51.1748 63.1698 35.5298C63.1698 19.8847 50.4869 7.2019 34.8419 7.2019C19.1968 7.2019 6.51401 19.8847 6.51401 35.5298C6.51401 51.1748 19.1968 63.8577 34.8419 63.8577Z" fill="#FFF532"/>
<path d="M34.8419 63.8367C50.4753 63.8367 63.1487 51.1633 63.1487 35.5299C63.1487 19.8964 50.4753 7.22302 34.8419 7.22302C19.2084 7.22302 6.53503 19.8964 6.53503 35.5299C6.53503 51.1633 19.2084 63.8367 34.8419 63.8367Z" fill="#FFF431"/>
<path d="M34.8419 63.818C50.465 63.818 63.13 51.153 63.13 35.5298C63.13 19.9067 50.465 7.2417 34.8419 7.2417C19.2188 7.2417 6.55374 19.9067 6.55374 35.5298C6.55374 51.153 19.2188 63.818 34.8419 63.818Z" fill="#FFF430"/>
<path d="M34.8419 63.7969C50.4534 63.7969 63.109 51.1413 63.109 35.5298C63.109 19.9183 50.4534 7.2627 34.8419 7.2627C19.2304 7.2627 6.57477 19.9183 6.57477 35.5298C6.57477 51.1413 19.2304 63.7969 34.8419 63.7969Z" fill="#FFF42F"/>
<path d="M34.8419 63.7782C50.4431 63.7782 63.0903 51.131 63.0903 35.5298C63.0903 19.9286 50.4431 7.28137 34.8419 7.28137C19.2407 7.28137 6.59348 19.9286 6.59348 35.5298C6.59348 51.131 19.2407 63.7782 34.8419 63.7782Z" fill="#FFF42E"/>
<path d="M54.8013 55.49C65.8248 44.4666 65.8248 26.594 54.8013 15.5705C43.7778 4.54703 25.9052 4.54703 14.8818 15.5705C3.85829 26.594 3.85829 44.4666 14.8818 55.49C25.9052 66.5135 43.7778 66.5135 54.8013 55.49Z" fill="#FFF42D"/>
<path d="M54.7881 55.4768C65.8043 44.4606 65.8043 26.5999 54.7881 15.5837C43.7719 4.56755 25.9112 4.56755 14.895 15.5837C3.87883 26.5999 3.87883 44.4606 14.895 55.4768C25.9112 66.493 43.7719 66.493 54.7881 55.4768Z" fill="#FFF42C"/>
<path d="M54.7732 55.4619C65.7812 44.454 65.7812 26.6066 54.7732 15.5986C43.7652 4.59064 25.9178 4.59064 14.9099 15.5986C3.9019 26.6066 3.9019 44.454 14.9099 55.4619C25.9178 66.4699 43.7652 66.4699 54.7732 55.4619Z" fill="#FFF42B"/>
<path d="M54.76 55.4487C65.7606 44.4481 65.7606 26.6125 54.76 15.6118C43.7593 4.61117 25.9237 4.61117 14.9231 15.6118C3.92243 26.6125 3.92243 44.4481 14.9231 55.4487C25.9237 66.4494 43.7593 66.4494 54.76 55.4487Z" fill="#FFF42A"/>
<path d="M54.7451 55.4338C65.7376 44.4414 65.7376 26.6191 54.7451 15.6267C43.7527 4.63426 25.9304 4.63425 14.938 15.6267C3.94553 26.6191 3.94553 44.4414 14.938 55.4339C25.9304 66.4263 43.7527 66.4263 54.7451 55.4338Z" fill="#FFF429"/>
<path d="M54.7319 55.4206C65.717 44.4355 65.717 26.6251 54.7319 15.6399C43.7467 4.65478 25.9363 4.65478 14.9512 15.6399C3.96604 26.6251 3.96604 44.4355 14.9512 55.4206C25.9363 66.4058 43.7467 66.4058 54.7319 55.4206Z" fill="#FFF428"/>
<path d="M34.8419 63.638C50.3656 63.638 62.9501 51.0535 62.9501 35.5298C62.9501 20.0061 50.3656 7.42163 34.8419 7.42163C19.3182 7.42163 6.7337 20.0061 6.7337 35.5298C6.7337 51.0535 19.3182 63.638 34.8419 63.638Z" fill="#FFF427"/>
<path d="M34.8419 63.6193C50.3553 63.6193 62.9314 51.0432 62.9314 35.5298C62.9314 20.0164 50.3553 7.44031 34.8419 7.44031C19.3285 7.44031 6.75241 20.0164 6.75241 35.5298C6.75241 51.0432 19.3285 63.6193 34.8419 63.6193Z" fill="#FFF426"/>
<path d="M34.8419 63.5983C50.3437 63.5983 62.9103 51.0316 62.9103 35.5299C62.9103 20.0281 50.3437 7.46143 34.8419 7.46143C19.3401 7.46143 6.77344 20.0281 6.77344 35.5299C6.77344 51.0316 19.3401 63.5983 34.8419 63.5983Z" fill="#FFF425"/>
<path d="M34.8419 63.5796C50.3333 63.5796 62.8916 51.0213 62.8916 35.5298C62.8916 20.0384 50.3333 7.4801 34.8419 7.4801C19.3504 7.4801 6.79214 20.0384 6.79214 35.5298C6.79214 51.0213 19.3504 63.5796 34.8419 63.5796Z" fill="#FFF424"/>
<path d="M34.8419 63.5585C50.3217 63.5585 62.8706 51.0096 62.8706 35.5298C62.8706 20.05 50.3217 7.5011 34.8419 7.5011C19.3621 7.5011 6.81317 20.05 6.81317 35.5298C6.81317 51.0096 19.3621 63.5585 34.8419 63.5585Z" fill="#FFF423"/>
<path d="M34.8419 63.5398C50.3114 63.5398 62.8519 50.9993 62.8519 35.5298C62.8519 20.0603 50.3114 7.51978 34.8419 7.51978C19.3724 7.51978 6.83188 20.0603 6.83188 35.5298C6.83188 50.9993 19.3724 63.5398 34.8419 63.5398Z" fill="#FFF422"/>
<path d="M34.8419 63.5188C50.2998 63.5188 62.8308 50.9878 62.8308 35.5299C62.8308 20.072 50.2998 7.54089 34.8419 7.54089C19.384 7.54089 6.85291 20.072 6.85291 35.5299C6.85291 50.9878 19.384 63.5188 34.8419 63.5188Z" fill="#FFF421"/>
<path d="M54.6195 55.3082C65.5426 44.3852 65.5426 26.6754 54.6195 15.7523C43.6964 4.82923 25.9866 4.82923 15.0636 15.7523C4.14048 26.6754 4.14048 44.3852 15.0636 55.3082C25.9866 66.2313 43.6964 66.2313 54.6195 55.3082Z" fill="#FFF420"/>
<path d="M54.6046 55.2934C65.5195 44.3785 65.5195 26.682 54.6046 15.7672C43.6898 4.85232 25.9933 4.85232 15.0784 15.7672C4.16358 26.682 4.16358 44.3785 15.0784 55.2934C25.9933 66.2082 43.6898 66.2082 54.6046 55.2934Z" fill="#FFF41F"/>
<path d="M54.5914 55.2801C65.499 44.3726 65.499 26.688 54.5914 15.7804C43.6839 4.87285 25.9992 4.87285 15.0917 15.7804C4.18412 26.688 4.18412 44.3726 15.0917 55.2801C25.9992 66.1877 43.6839 66.1877 54.5914 55.2801Z" fill="#FFF41E"/>
<path d="M54.5766 55.2653C65.4759 44.3659 65.4759 26.6946 54.5766 15.7953C43.6772 4.89593 26.0059 4.89593 15.1066 15.7953C4.20721 26.6946 4.20721 44.3659 15.1066 55.2653C26.0059 66.1646 43.6772 66.1646 54.5766 55.2653Z" fill="#FFF31D"/>
<path d="M54.5633 55.252C65.4553 44.36 65.4553 26.7005 54.5633 15.8085C43.6713 4.91646 26.0118 4.91646 15.1198 15.8085C4.22772 26.7005 4.22772 44.36 15.1198 55.2521C26.0118 66.1441 43.6713 66.1441 54.5633 55.252Z" fill="#FFF31C"/>
<path d="M54.5484 55.2372C65.4323 44.3534 65.4323 26.7072 54.5484 15.8234C43.6646 4.93955 26.0185 4.93955 15.1346 15.8234C4.25082 26.7072 4.25082 44.3534 15.1346 55.2372C26.0185 66.121 43.6646 66.121 54.5484 55.2372Z" fill="#FFF31B"/>
<path d="M34.8419 63.3809C50.2236 63.3809 62.693 50.9115 62.693 35.5298C62.693 20.1481 50.2236 7.67871 34.8419 7.67871C19.4602 7.67871 6.99081 20.1481 6.99081 35.5298C6.99081 50.9115 19.4602 63.3809 34.8419 63.3809Z" fill="#FFF31A"/>
<path d="M34.8419 63.3599C50.212 63.3599 62.6719 50.9 62.6719 35.5299C62.6719 20.1598 50.212 7.69983 34.8419 7.69983C19.4718 7.69983 7.01184 20.1598 7.01184 35.5299C7.01184 50.9 19.4718 63.3599 34.8419 63.3599Z" fill="#FFF319"/>
<path d="M34.8419 63.3412C50.2017 63.3412 62.6532 50.8896 62.6532 35.5298C62.6532 20.1701 50.2017 7.71851 34.8419 7.71851C19.4821 7.71851 7.03055 20.1701 7.03055 35.5298C7.03055 50.8896 19.4821 63.3412 34.8419 63.3412Z" fill="#FFF318"/>
<path d="M34.8419 63.3225C50.1913 63.3225 62.6345 50.8793 62.6345 35.5298C62.6345 20.1804 50.1913 7.73718 34.8419 7.73718C19.4924 7.73718 7.04922 20.1804 7.04922 35.5298C7.04922 50.8793 19.4924 63.3225 34.8419 63.3225Z" fill="#FFF317"/>
<path d="M34.8419 63.3014C50.1797 63.3014 62.6135 50.8676 62.6135 35.5298C62.6135 20.192 50.1797 7.75818 34.8419 7.75818C19.5041 7.75818 7.07028 20.192 7.07028 35.5298C7.07028 50.8676 19.5041 63.3014 34.8419 63.3014Z" fill="#FFF316"/>
<path d="M34.8419 63.2827C50.1694 63.2827 62.5948 50.8573 62.5948 35.5298C62.5948 20.2023 50.1694 7.77686 34.8419 7.77686C19.5144 7.77686 7.08896 20.2023 7.08896 35.5298C7.08896 50.8573 19.5144 63.2827 34.8419 63.2827Z" fill="#FFF315"/>
<path d="M54.4509 55.1397C65.2809 44.3097 65.2809 26.7508 54.4509 15.9209C43.621 5.09091 26.0621 5.09091 15.2321 15.9209C4.40217 26.7508 4.40217 44.3097 15.2321 55.1397C26.0621 65.9696 43.621 65.9696 54.4509 55.1397Z" fill="#FFF314"/>
<path d="M54.4377 55.1264C65.2604 44.3038 65.2604 26.7568 54.4377 15.9341C43.6151 5.11143 26.068 5.11143 15.2454 15.9341C4.42271 26.7568 4.42271 44.3038 15.2454 55.1264C26.068 65.9491 43.6151 65.9491 54.4377 55.1264Z" fill="#FFF313"/>
<path d="M54.4228 55.1116C65.2373 44.2971 65.2373 26.7634 54.4228 15.949C43.6084 5.13453 26.0747 5.13452 15.2603 15.949C4.4458 26.7634 4.4458 44.2971 15.2603 55.1116C26.0747 65.926 43.6084 65.926 54.4228 55.1116Z" fill="#FFF312"/>
<path d="M54.4096 55.0983C65.2168 44.2912 65.2168 26.7693 54.4096 15.9622C43.6025 5.15505 26.0806 5.15505 15.2735 15.9622C4.46631 26.7693 4.46631 44.2912 15.2735 55.0984C26.0806 65.9055 43.6025 65.9055 54.4096 55.0983Z" fill="#FFF311"/>
<path d="M54.3947 55.0835C65.1937 44.2845 65.1937 26.776 54.3947 15.9771C43.5958 5.17814 26.0873 5.17814 15.2883 15.9771C4.48941 26.776 4.48941 44.2845 15.2883 55.0835C26.0873 65.8824 43.5958 65.8824 54.3947 55.0835Z" fill="#FFF310"/>
<path d="M54.3815 55.0703C65.1731 44.2786 65.1731 26.7819 54.3815 15.9903C43.5899 5.19866 26.0932 5.19866 15.3015 15.9903C4.50992 26.7819 4.50992 44.2786 15.3015 55.0703C26.0932 65.8619 43.5899 65.8619 54.3815 55.0703Z" fill="#FFF30F"/>
<path d="M54.3666 55.0554C65.1501 44.272 65.1501 26.7886 54.3666 16.0052C43.5832 5.22175 26.0998 5.22175 15.3164 16.0052C4.53301 26.7886 4.53301 44.272 15.3164 55.0554C26.0998 65.8388 43.5832 65.8388 54.3666 55.0554Z" fill="#FFF30E"/>
<path d="M34.8419 63.1237C50.0816 63.1237 62.4358 50.7695 62.4358 35.5298C62.4358 20.29 50.0816 7.93579 34.8419 7.93579C19.6021 7.93579 7.24789 20.29 7.24789 35.5298C7.24789 50.7695 19.6021 63.1237 34.8419 63.1237Z" fill="#FFF30D"/>
<path d="M34.8419 63.1028C50.07 63.1028 62.4148 50.758 62.4148 35.5298C62.4148 20.3017 50.07 7.95691 34.8419 7.95691C19.6138 7.95691 7.26895 20.3017 7.26895 35.5298C7.26895 50.758 19.6138 63.1028 34.8419 63.1028Z" fill="#FFF30C"/>
<path d="M34.8419 63.0841C50.0597 63.0841 62.3961 50.7476 62.3961 35.5298C62.3961 20.312 50.0597 7.97559 34.8419 7.97559C19.6241 7.97559 7.28763 20.312 7.28763 35.5298C7.28763 50.7476 19.6241 63.0841 34.8419 63.0841Z" fill="#FFF30B"/>
<path d="M34.8419 63.063C50.0481 63.063 62.3751 50.736 62.3751 35.5298C62.3751 20.3236 50.0481 7.99658 34.8419 7.99658C19.6357 7.99658 7.30869 20.3236 7.30869 35.5298C7.30869 50.736 19.6357 63.063 34.8419 63.063Z" fill="#FFF30A"/>
<path d="M34.8419 63.0443C50.0377 63.0443 62.3564 50.7256 62.3564 35.5298C62.3564 20.3339 50.0377 8.01526 34.8419 8.01526C19.646 8.01526 7.32736 20.3339 7.32736 35.5298C7.32736 50.7256 19.646 63.0443 34.8419 63.0443Z" fill="#FFF209"/>
<path d="M34.8419 63.0233C50.0261 63.0233 62.3354 50.7141 62.3354 35.5298C62.3354 20.3456 50.0261 8.03638 34.8419 8.03638C19.6577 8.03638 7.34842 20.3456 7.34842 35.5298C7.34842 50.7141 19.6577 63.0233 34.8419 63.0233Z" fill="#FFF208"/>
<path d="M54.2691 54.9579C64.9987 44.2283 64.9987 26.8322 54.2691 16.1027C43.5396 5.37311 26.1435 5.37311 15.414 16.1027C4.68439 26.8322 4.68439 44.2283 15.414 54.9579C26.1435 65.6874 43.5396 65.6874 54.2691 54.9579Z" fill="#FFF207"/>
<path d="M54.2542 54.943C64.9756 44.2216 64.9756 26.8389 54.2542 16.1176C43.5329 5.3962 26.1502 5.3962 15.4288 16.1176C4.70745 26.8389 4.70745 44.2216 15.4288 54.943C26.1502 65.6643 43.5329 65.6643 54.2542 54.943Z" fill="#FFF206"/>
<path d="M54.241 54.9298C64.9551 44.2157 64.9551 26.8448 54.241 16.1308C43.527 5.41672 26.1561 5.41672 15.442 16.1308C4.72799 26.8448 4.72799 44.2157 15.442 54.9298C26.1561 65.6438 43.527 65.6438 54.241 54.9298Z" fill="#FFF205"/>
<path d="M54.2262 54.9149C64.932 44.2091 64.932 26.8515 54.2262 16.1457C43.5203 5.43982 26.1628 5.43981 15.4569 16.1456C4.75109 26.8515 4.75109 44.2091 15.4569 54.9149C26.1628 65.6207 43.5203 65.6207 54.2262 54.9149Z" fill="#FFF204"/>
<path d="M54.2129 54.9017C64.9115 44.2031 64.9115 26.8574 54.2129 16.1589C43.5144 5.46034 26.1687 5.46034 15.4701 16.1589C4.7716 26.8574 4.7716 44.2031 15.4701 54.9017C26.1687 65.6002 43.5144 65.6002 54.2129 54.9017Z" fill="#FFF203"/>
<path d="M54.1981 54.8868C64.8884 44.1965 64.8884 26.8641 54.1981 16.1737C43.5078 5.48343 26.1753 5.48343 15.485 16.1737C4.79469 26.8641 4.79469 44.1965 15.485 54.8868C26.1753 65.5771 43.5078 65.5771 54.1981 54.8868Z" fill="#FFF202"/>
<path d="M54.1848 54.8736C64.8678 44.1906 64.8678 26.87 54.1848 16.187C43.5018 5.50395 26.1812 5.50395 15.4982 16.187C4.8152 26.87 4.8152 44.1906 15.4982 54.8736C26.1812 65.5566 43.5018 65.5566 54.1848 54.8736Z" fill="#FFF201"/>
<path d="M34.8419 62.8644C49.9383 62.8644 62.1764 50.6263 62.1764 35.5298C62.1764 20.4334 49.9383 8.19531 34.8419 8.19531C19.7454 8.19531 7.50735 20.4334 7.50735 35.5298C7.50735 50.6263 19.7454 62.8644 34.8419 62.8644Z" fill="#FFF200"/>
</g>
<path opacity="0.7" d="M36.3354 42.4996C36.485 42.4996 36.6346 42.502 36.7818 42.5067C38.9976 30.9044 49.1975 22.1349 61.4472 22.1349C71.2497 22.1349 79.7411 27.7514 83.8781 35.9436C84.2076 35.9249 84.5419 35.9155 84.8761 35.9155C94.9405 35.9155 103.098 44.0726 103.098 54.137C103.098 64.2013 94.9405 72.3584 84.8761 72.3584H36.3354C28.0895 72.3584 21.4072 65.6738 21.4072 57.4279C21.4072 49.1819 28.0918 42.4973 36.3354 42.4973V42.4996Z" fill="url(#paint1_linear_372_2974)"/>
<path style="mix-blend-mode:overlay" opacity="0.7" d="M36.3354 42.4996C36.485 42.4996 36.6346 42.502 36.7818 42.5067C38.9976 30.9044 49.1975 22.1349 61.4472 22.1349C71.2497 22.1349 79.7411 27.7514 83.8781 35.9436C84.2076 35.9249 84.5419 35.9155 84.8761 35.9155C94.9405 35.9155 103.098 44.0726 103.098 54.137C103.098 64.2013 94.9405 72.3584 84.8761 72.3584H36.3354C28.0895 72.3584 21.4072 65.6738 21.4072 57.4279C21.4072 49.1819 28.0918 42.4973 36.3354 42.4973V42.4996Z" fill="url(#paint2_linear_372_2974)"/>
<g style="mix-blend-mode:overlay" opacity="0.7">
<path d="M61.4472 23.3034C65.9628 23.3034 70.3616 24.5679 74.1643 26.9566C77.8666 29.2822 80.8653 32.5731 82.8333 36.4694L83.1769 37.1495L83.9389 37.1074C84.2567 37.0911 84.5699 37.0817 84.8738 37.0817C94.2767 37.0817 101.927 44.7317 101.927 54.1346C101.927 63.5374 94.2767 71.1874 84.8738 71.1874H36.3354C28.7486 71.1874 22.5758 65.0146 22.5758 57.4255C22.5758 49.8363 28.7486 43.6635 36.3354 43.6635C36.4733 43.6635 36.6112 43.6659 36.7468 43.6705L37.7424 43.7009L37.9294 42.7216C40.0797 31.4676 49.9688 23.2988 61.4472 23.2988M61.4472 22.1301C49.1975 22.1301 38.9976 30.8996 36.7818 42.5019C36.6346 42.4972 36.485 42.4949 36.3354 42.4949C28.0895 42.4949 21.4072 49.1795 21.4072 57.4255C21.4072 65.6714 28.0918 72.356 36.3354 72.356H84.8761C94.9405 72.356 103.098 64.1989 103.098 54.1346C103.098 44.0702 94.9405 35.9131 84.8761 35.9131C84.5419 35.9131 84.2076 35.9224 83.8781 35.9411C79.7411 27.749 71.2521 22.1325 61.4472 22.1325V22.1301Z" fill="white"/>
</g>
<path d="M58.1329 62.8924C58.2334 62.8924 58.3339 62.8924 58.4344 62.8971C59.9279 55.0836 66.7972 49.1772 75.0455 49.1772C81.6483 49.1772 87.3653 52.9613 90.1514 58.4773C90.3734 58.4656 90.5978 58.4586 90.8245 58.4586C97.6026 58.4586 103.095 63.9536 103.095 70.7293C103.095 77.5051 97.6003 83.0001 90.8245 83.0001H58.1329C52.5795 83.0001 48.0779 78.4985 48.0779 72.9451C48.0779 67.3917 52.5795 62.8901 58.1329 62.8901V62.8924Z" fill="#27AAE1"/>
<path opacity="0.7" d="M58.1329 62.8924C58.2334 62.8924 58.3339 62.8924 58.4344 62.8971C59.9279 55.0836 66.7972 49.1772 75.0455 49.1772C81.6483 49.1772 87.3653 52.9613 90.1514 58.4773C90.3734 58.4656 90.5978 58.4586 90.8245 58.4586C97.6026 58.4586 103.095 63.9536 103.095 70.7293C103.095 77.5051 97.6003 83.0001 90.8245 83.0001H58.1329C52.5795 83.0001 48.0779 78.4985 48.0779 72.9451C48.0779 67.3917 52.5795 62.8901 58.1329 62.8901V62.8924Z" fill="url(#paint3_linear_372_2974)"/>
<path style="mix-blend-mode:overlay" opacity="0.7" d="M58.1329 62.8924C58.2334 62.8924 58.3339 62.8924 58.4344 62.8971C59.9279 55.0836 66.7972 49.1772 75.0455 49.1772C81.6483 49.1772 87.3653 52.9613 90.1514 58.4773C90.3734 58.4656 90.5978 58.4586 90.8245 58.4586C97.6026 58.4586 103.095 63.9536 103.095 70.7293C103.095 77.5051 97.6003 83.0001 90.8245 83.0001H58.1329C52.5795 83.0001 48.0779 78.4985 48.0779 72.9451C48.0779 67.3917 52.5795 62.8901 58.1329 62.8901V62.8924Z" fill="url(#paint4_linear_372_2974)"/>
<g style="mix-blend-mode:overlay" opacity="0.7">
<path d="M75.0455 50.3459C81.0243 50.3459 86.4117 53.6625 89.1089 59.0032L89.4525 59.6857L90.2145 59.6436C90.4201 59.6319 90.6258 59.6273 90.8245 59.6273C96.9458 59.6273 101.927 64.608 101.927 70.7294C101.927 76.8507 96.9458 81.8315 90.8245 81.8315H58.1329C53.234 81.8315 49.2466 77.844 49.2466 72.9451C49.2466 68.0462 53.2316 64.0588 58.1329 64.0588C58.2217 64.0588 58.3105 64.0587 58.3994 64.0634L59.395 64.0915L59.582 63.1145C60.9961 55.7146 67.4984 50.3436 75.0455 50.3436M75.0455 49.1749C66.7972 49.1749 59.9256 55.0812 58.4344 62.8948C58.3339 62.8924 58.2334 62.8901 58.1329 62.8901C52.5795 62.8901 48.0779 67.3917 48.0779 72.9451C48.0779 78.4985 52.5795 83.0001 58.1329 83.0001H90.8245C97.6026 83.0001 103.095 77.5051 103.095 70.7294C103.095 63.9536 97.6003 58.4586 90.8245 58.4586C90.5978 58.4586 90.3757 58.4656 90.1514 58.4773C87.3653 52.9613 81.6483 49.1773 75.0455 49.1773V49.1749Z" fill="white"/>
</g>
</g>
<defs>
<radialGradient id="paint0_radial_372_2974" cx="0" cy="0" r="1" gradientUnits="userSpaceOnUse" gradientTransform="translate(14.795 10.1914) scale(28.0544)">
<stop stop-color="white"/>
<stop offset="0.11" stop-color="#FFFEFA"/>
<stop offset="0.24" stop-color="#FFFEED"/>
<stop offset="0.37" stop-color="#FFFCD7"/>
<stop offset="0.5" stop-color="#FFFBB8"/>
<stop offset="0.64" stop-color="#FFF990"/>
<stop offset="0.78" stop-color="#FFF65F"/>
<stop offset="0.91" stop-color="#FFF427"/>
<stop offset="1" stop-color="#FFF200"/>
</radialGradient>
<linearGradient id="paint1_linear_372_2974" x1="62.2512" y1="23.5139" x2="62.2512" y2="63.631" gradientUnits="userSpaceOnUse">
<stop stop-color="#96FFFF"/>
<stop offset="0.28" stop-color="#93FDFD"/>
<stop offset="0.45" stop-color="#8AF8F8"/>
<stop offset="0.6" stop-color="#7CEEF1"/>
<stop offset="0.73" stop-color="#67E2E5"/>
<stop offset="0.85" stop-color="#4CD1D7"/>
<stop offset="0.96" stop-color="#2CBDC5"/>
<stop offset="1" stop-color="#1EB4BE"/>
</linearGradient>
<linearGradient id="paint2_linear_372_2974" x1="62.2512" y1="23.5139" x2="62.2512" y2="63.631" gradientUnits="userSpaceOnUse">
<stop stop-color="#96FFFF"/>
<stop offset="0.28" stop-color="#93FDFD"/>
<stop offset="0.45" stop-color="#8AF8F8"/>
<stop offset="0.6" stop-color="#7CEEF1"/>
<stop offset="0.73" stop-color="#67E2E5"/>
<stop offset="0.85" stop-color="#4CD1D7"/>
<stop offset="0.96" stop-color="#2CBDC5"/>
<stop offset="1" stop-color="#1EB4BE"/>
</linearGradient>
<linearGradient id="paint3_linear_372_2974" x1="75.5877" y1="50.1051" x2="75.5877" y2="77.1241" gradientUnits="userSpaceOnUse">
<stop stop-color="#96FFFF"/>
<stop offset="0.28" stop-color="#93FDFD"/>
<stop offset="0.45" stop-color="#8AF8F8"/>
<stop offset="0.6" stop-color="#7CEEF1"/>
<stop offset="0.73" stop-color="#67E2E5"/>
<stop offset="0.85" stop-color="#4CD1D7"/>
<stop offset="0.96" stop-color="#2CBDC5"/>
<stop offset="1" stop-color="#1EB4BE"/>
</linearGradient>
<linearGradient id="paint4_linear_372_2974" x1="75.5877" y1="50.1051" x2="75.5877" y2="77.1241" gradientUnits="userSpaceOnUse">
<stop stop-color="#96FFFF"/>
<stop offset="0.28" stop-color="#93FDFD"/>
<stop offset="0.45" stop-color="#8AF8F8"/>
<stop offset="0.6" stop-color="#7CEEF1"/>
<stop offset="0.73" stop-color="#67E2E5"/>
<stop offset="0.85" stop-color="#4CD1D7"/>
<stop offset="0.96" stop-color="#2CBDC5"/>
<stop offset="1" stop-color="#1EB4BE"/>
</linearGradient>
<clipPath id="clip0_372_2974">
<rect width="111.916" height="85" fill="white" transform="translate(0 -2)"/>
</clipPath>
</defs>
</svg>
