<svg width="89" height="82" viewBox="0 0 89 82" fill="none" xmlns="http://www.w3.org/2000/svg">
<g clip-path="url(#clip0_372_3250)">
<path d="M28.8096 32.2828C28.9282 32.2828 29.0468 32.2846 29.1636 32.2883C30.9204 23.0891 39.0077 16.136 48.7202 16.136C56.4925 16.136 63.2251 20.5892 66.5052 27.0846C66.7665 27.0698 67.0315 27.0624 67.2965 27.0624C75.2763 27.0624 81.744 33.53 81.744 41.5098C81.744 49.4896 75.2763 55.9572 67.2965 55.9572H28.8096C22.2716 55.9572 16.9715 50.6571 16.9715 44.1191C16.9715 37.581 22.2716 32.2809 28.8096 32.2809V32.2828Z" fill="#27AAE1"/>
<path d="M27.6254 48.4296C39.5951 48.4296 49.2984 38.7263 49.2984 26.7566C49.2984 14.7869 39.5951 5.08362 27.6254 5.08362C15.6558 5.08362 5.95242 14.7869 5.95242 26.7566C5.95242 38.7263 15.6558 48.4296 27.6254 48.4296Z" fill="url(#paint0_radial_372_3250)"/>
<g style="mix-blend-mode:multiply">
<path d="M27.6254 52.4417C41.8109 52.4417 53.3105 40.9421 53.3105 26.7565C53.3105 12.571 41.8109 1.07141 27.6254 1.07141C13.4399 1.07141 1.94028 12.571 1.94028 26.7565C1.94028 40.9421 13.4399 52.4417 27.6254 52.4417Z" fill="white"/>
<path d="M27.6254 52.4269C41.8027 52.4269 53.2957 40.9339 53.2957 26.7566C53.2957 12.5793 41.8027 1.0863 27.6254 1.0863C13.4481 1.0863 1.95511 12.5793 1.95511 26.7566C1.95511 40.9339 13.4481 52.4269 27.6254 52.4269Z" fill="#FFFFFE"/>
<path d="M27.6254 52.4102C41.7935 52.4102 53.279 40.9246 53.279 26.7565C53.279 12.5884 41.7935 1.10291 27.6254 1.10291C13.4573 1.10291 1.97177 12.5884 1.97177 26.7565C1.97177 40.9246 13.4573 52.4102 27.6254 52.4102Z" fill="#FFFFFD"/>
<path d="M27.6254 52.3954C41.7853 52.3954 53.2642 40.9165 53.2642 26.7566C53.2642 12.5967 41.7853 1.1178 27.6254 1.1178C13.4655 1.1178 1.9866 12.5967 1.9866 26.7566C1.9866 40.9165 13.4655 52.3954 27.6254 52.3954Z" fill="#FFFFFC"/>
<path d="M27.6254 52.3788C41.7761 52.3788 53.2475 40.9074 53.2475 26.7566C53.2475 12.6059 41.7761 1.13452 27.6254 1.13452C13.4747 1.13452 2.0033 12.6059 2.0033 26.7566C2.0033 40.9074 13.4747 52.3788 27.6254 52.3788Z" fill="#FFFFFB"/>
<path d="M45.7322 44.864C55.7325 34.8638 55.7325 18.6501 45.7322 8.64987C35.732 -1.35041 19.5183 -1.35041 9.51805 8.64986C-0.482226 18.6501 -0.482226 34.8638 9.51805 44.8641C19.5183 54.8643 35.732 54.8643 45.7322 44.864Z" fill="#FFFFFA"/>
<path d="M45.7204 44.8523C55.7142 34.8585 55.7142 18.6554 45.7204 8.66166C35.7267 -1.3321 19.5236 -1.3321 9.52984 8.66165C-0.463916 18.6554 -0.463916 34.8585 9.52984 44.8523C19.5236 54.846 35.7267 54.846 45.7204 44.8523Z" fill="#FFFFF9"/>
<path d="M45.71 44.8418C55.6979 34.8538 55.6979 18.6601 45.71 8.67214C35.722 -1.31583 19.5283 -1.31583 9.54033 8.67214C-0.447644 18.6601 -0.447644 34.8538 9.54033 44.8418C19.5283 54.8297 35.722 54.8297 45.71 44.8418Z" fill="#FFFFF8"/>
<path d="M45.6982 44.83C55.6796 34.8485 55.6796 18.6654 45.6982 8.68394C35.7167 -1.29752 19.5336 -1.29752 9.55212 8.68393C-0.429334 18.6654 -0.429334 34.8485 9.55212 44.83C19.5336 54.8114 35.7167 54.8114 45.6982 44.83Z" fill="#FFFFF7"/>
<path d="M45.6877 44.8195C55.6634 34.8438 55.6634 18.6701 45.6877 8.69442C35.712 -1.28125 19.5383 -1.28125 9.5626 8.69441C-0.413062 18.6701 -0.413062 34.8438 9.5626 44.8195C19.5383 54.7952 35.712 54.7952 45.6877 44.8195Z" fill="#FFFFF6"/>
<path d="M45.6759 44.8077C55.645 34.8386 55.645 18.6754 45.6759 8.70621C35.7067 -1.26294 19.5436 -1.26294 9.5744 8.70621C-0.394754 18.6754 -0.394754 34.8386 9.5744 44.8077C19.5436 54.7769 35.7067 54.7769 45.6759 44.8077Z" fill="#FFFEF5"/>
<path d="M27.6254 52.2693C41.7157 52.2693 53.1382 40.8469 53.1382 26.7566C53.1382 12.6662 41.7157 1.24377 27.6254 1.24377C13.5351 1.24377 2.11261 12.6662 2.11261 26.7566C2.11261 40.8469 13.5351 52.2693 27.6254 52.2693Z" fill="#FFFEF4"/>
<path d="M27.6254 52.2527C41.7065 52.2527 53.1215 40.8377 53.1215 26.7566C53.1215 12.6755 41.7065 1.2605 27.6254 1.2605C13.5443 1.2605 2.1293 12.6755 2.1293 26.7566C2.1293 40.8377 13.5443 52.2527 27.6254 52.2527Z" fill="#FFFEF3"/>
<path d="M27.6254 52.2378C41.6983 52.2378 53.1067 40.8295 53.1067 26.7565C53.1067 12.6836 41.6983 1.27527 27.6254 1.27527C13.5525 1.27527 2.14413 12.6836 2.14413 26.7565C2.14413 40.8295 13.5525 52.2378 27.6254 52.2378Z" fill="#FFFEF2"/>
<path d="M27.6254 52.2212C41.6891 52.2212 53.09 40.8203 53.09 26.7566C53.09 12.6929 41.6891 1.29199 27.6254 1.29199C13.5617 1.29199 2.1608 12.6929 2.1608 26.7566C2.1608 40.8203 13.5617 52.2212 27.6254 52.2212Z" fill="#FFFEF1"/>
<path d="M27.6254 52.2063C41.6809 52.2063 53.0752 40.8121 53.0752 26.7565C53.0752 12.701 41.6809 1.30676 27.6254 1.30676C13.5699 1.30676 2.17563 12.701 2.17563 26.7565C2.17563 40.8121 13.5699 52.2063 27.6254 52.2063Z" fill="#FFFEF0"/>
<path d="M27.6254 52.1897C41.6717 52.1897 53.0585 40.8029 53.0585 26.7566C53.0585 12.7103 41.6717 1.32349 27.6254 1.32349C13.5791 1.32349 2.19232 12.7103 2.19232 26.7566C2.19232 40.8029 13.5791 52.1897 27.6254 52.1897Z" fill="#FFFEEF"/>
<path d="M45.5986 44.7304C55.525 34.8039 55.525 18.71 45.5986 8.78352C35.6721 -1.14293 19.5782 -1.14293 9.65172 8.78352C-0.274735 18.71 -0.274735 34.8039 9.65172 44.7304C19.5782 54.6568 35.6721 54.6568 45.5986 44.7304Z" fill="#FFFEEE"/>
<path d="M45.5868 44.7186C55.5067 34.7987 55.5067 18.7153 45.5868 8.79532C35.6669 -1.12462 19.5835 -1.12462 9.66351 8.79532C-0.256425 18.7153 -0.256425 34.7987 9.66351 44.7186C19.5835 54.6385 35.6669 54.6385 45.5868 44.7186Z" fill="#FFFEED"/>
<path d="M45.5763 44.7081C55.4905 34.794 55.4905 18.7199 45.5763 8.8058C35.6622 -1.10835 19.5881 -1.10835 9.674 8.8058C-0.240153 18.72 -0.240153 34.794 9.674 44.7081C19.5881 54.6223 35.6622 54.6223 45.5763 44.7081Z" fill="#FFFEEC"/>
<path d="M45.5645 44.6963C55.4721 34.7887 55.4721 18.7252 45.5645 8.8176C35.6569 -1.09004 19.5934 -1.09004 9.68576 8.81759C-0.221873 18.7252 -0.221873 34.7887 9.68576 44.6963C19.5934 54.604 35.6569 54.604 45.5645 44.6963Z" fill="#FFFEEB"/>
<path d="M45.554 44.6858C55.4559 34.784 55.4559 18.7299 45.554 8.82808C35.6522 -1.07377 19.5981 -1.07377 9.69625 8.82808C-0.205602 18.7299 -0.205602 34.784 9.69625 44.6858C19.5981 54.5877 35.6522 54.5877 45.554 44.6858Z" fill="#FFFEEA"/>
<path d="M45.5422 44.674C55.4376 34.7787 55.4376 18.7352 45.5422 8.83987C35.6469 -1.05546 19.6034 -1.05546 9.70804 8.83987C-0.18729 18.7352 -0.18729 34.7787 9.70804 44.674C19.6034 54.5694 35.6469 54.5694 45.5422 44.674Z" fill="#FFFEE9"/>
<path d="M45.5317 44.6636C55.4213 34.774 55.4213 18.7399 45.5317 8.85036C35.6422 -1.03919 19.6081 -1.03919 9.71853 8.85035C-0.171019 18.7399 -0.171019 34.774 9.71853 44.6636C19.6081 54.5531 35.6422 54.5531 45.5317 44.6636Z" fill="#FFFEE8"/>
<path d="M27.6254 52.0636C41.6021 52.0636 52.9325 40.7333 52.9325 26.7565C52.9325 12.7798 41.6021 1.44946 27.6254 1.44946C13.6487 1.44946 2.31833 12.7798 2.31833 26.7565C2.31833 40.7333 13.6487 52.0636 27.6254 52.0636Z" fill="#FFFEE7"/>
<path d="M27.6254 52.0489C41.5939 52.0489 52.9177 40.7251 52.9177 26.7566C52.9177 12.7881 41.5939 1.46436 27.6254 1.46436C13.6569 1.46436 2.33316 12.7881 2.33316 26.7566C2.33316 40.7251 13.6569 52.0489 27.6254 52.0489Z" fill="#FFFEE6"/>
<path d="M27.6254 52.0321C41.5847 52.0321 52.901 40.7159 52.901 26.7565C52.901 12.7972 41.5847 1.48096 27.6254 1.48096C13.6661 1.48096 2.34982 12.7972 2.34982 26.7565C2.34982 40.7159 13.6661 52.0321 27.6254 52.0321Z" fill="#FFFEE5"/>
<path d="M27.6254 52.0174C41.5765 52.0174 52.8862 40.7077 52.8862 26.7566C52.8862 12.8055 41.5765 1.49585 27.6254 1.49585C13.6743 1.49585 2.36465 12.8055 2.36465 26.7566C2.36465 40.7077 13.6743 52.0174 27.6254 52.0174Z" fill="#FFFEE4"/>
<path d="M27.6254 52.0007C41.5673 52.0007 52.8695 40.6986 52.8695 26.7566C52.8695 12.8147 41.5673 1.51257 27.6254 1.51257C13.6835 1.51257 2.38135 12.8147 2.38135 26.7566C2.38135 40.6986 13.6835 52.0007 27.6254 52.0007Z" fill="#FFFEE3"/>
<path d="M27.6254 51.9858C41.5591 51.9858 52.8546 40.6903 52.8546 26.7566C52.8546 12.8229 41.5591 1.52734 27.6254 1.52734C13.6917 1.52734 2.39615 12.8229 2.39615 26.7566C2.39615 40.6903 13.6917 51.9858 27.6254 51.9858Z" fill="#FFFEE2"/>
<path d="M45.4531 44.5849C55.2992 34.7388 55.2992 18.7751 45.4531 8.92898C35.607 -0.917142 19.6433 -0.917142 9.79716 8.92898C-0.0489651 18.7751 -0.0489651 34.7388 9.79716 44.5849C19.6433 54.4311 35.607 54.4311 45.4531 44.5849Z" fill="#FFFDE1"/>
<path d="M45.4426 44.5745C55.283 34.7341 55.283 18.7798 45.4426 8.93946C35.6023 -0.900868 19.648 -0.900869 9.80764 8.93946C-0.0326923 18.7798 -0.0326923 34.7341 9.80764 44.5745C19.648 54.4148 35.6023 54.4148 45.4426 44.5745Z" fill="#FFFDE0"/>
<path d="M45.4308 44.5627C55.2647 34.7288 55.2647 18.7851 45.4308 8.95126C35.597 -0.882562 19.6533 -0.882562 9.81944 8.95126C-0.0143817 18.7851 -0.0143817 34.7288 9.81944 44.5627C19.6533 54.3965 35.597 54.3965 45.4308 44.5627Z" fill="#FFFDDF"/>
<path d="M45.4204 44.5522C55.2484 34.7241 55.2484 18.7898 45.4204 8.96174C35.5923 -0.866289 19.6579 -0.866288 9.82992 8.96174C0.00188976 18.7898 0.00188976 34.7241 9.82992 44.5522C19.6579 54.3802 35.5923 54.3802 45.4204 44.5522Z" fill="#FFFDDE"/>
<path d="M45.4086 44.5404C55.2301 34.7189 55.2301 18.795 45.4086 8.97353C35.5871 -0.847982 19.6632 -0.847981 9.84171 8.97353C0.0202004 18.795 0.020201 34.7189 9.84172 44.5404C19.6632 54.3619 35.5871 54.3619 45.4086 44.5404Z" fill="#FFFDDD"/>
<path d="M45.3981 44.5299C55.2138 34.7142 55.2138 18.7997 45.3981 8.98402C35.5824 -0.83171 19.6679 -0.83171 9.8522 8.98402C0.0364718 18.7997 0.0364718 34.7142 9.8522 44.5299C19.6679 54.3456 35.5824 54.3456 45.3981 44.5299Z" fill="#FFFDDC"/>
<path d="M45.3863 44.5181C55.1955 34.7089 55.1955 18.805 45.3863 8.99581C35.5771 -0.8134 19.6732 -0.813406 9.864 8.99581C0.0547831 18.805 0.0547831 34.7089 9.864 44.5181C19.6732 54.3273 35.5771 54.3273 45.3863 44.5181Z" fill="#FFFDDB"/>
<path d="M27.6254 51.8598C41.4896 51.8598 52.7287 40.6207 52.7287 26.7566C52.7287 12.8924 41.4896 1.65332 27.6254 1.65332C13.7613 1.65332 2.52219 12.8924 2.52219 26.7566C2.52219 40.6207 13.7613 51.8598 27.6254 51.8598Z" fill="#FFFDDA"/>
<path d="M27.6254 51.8432C41.4803 51.8432 52.712 40.6115 52.712 26.7566C52.712 12.9017 41.4803 1.67004 27.6254 1.67004C13.7705 1.67004 2.53885 12.9017 2.53885 26.7566C2.53885 40.6115 13.7705 51.8432 27.6254 51.8432Z" fill="#FFFDD9"/>
<path d="M27.6254 51.8283C41.4721 51.8283 52.6971 40.6033 52.6971 26.7565C52.6971 12.9098 41.4721 1.68481 27.6254 1.68481C13.7787 1.68481 2.55368 12.9098 2.55368 26.7565C2.55368 40.6033 13.7787 51.8283 27.6254 51.8283Z" fill="#FFFDD8"/>
<path d="M27.6254 51.8116C41.463 51.8116 52.6805 40.5941 52.6805 26.7566C52.6805 12.9191 41.463 1.70154 27.6254 1.70154C13.7879 1.70154 2.57037 12.9191 2.57037 26.7566C2.57037 40.5941 13.7879 51.8116 27.6254 51.8116Z" fill="#FFFDD7"/>
<path d="M27.6254 51.7968C41.4547 51.7968 52.6656 40.5859 52.6656 26.7565C52.6656 12.9272 41.4547 1.71631 27.6254 1.71631C13.7961 1.71631 2.58517 12.9272 2.58517 26.7565C2.58517 40.5859 13.7961 51.7968 27.6254 51.7968Z" fill="#FFFDD6"/>
<path d="M27.6254 51.7801C41.4455 51.7801 52.649 40.5767 52.649 26.7566C52.649 12.9365 41.4455 1.73303 27.6254 1.73303C13.8053 1.73303 2.60187 12.9365 2.60187 26.7566C2.60187 40.5767 13.8053 51.7801 27.6254 51.7801Z" fill="#FFFDD5"/>
<path d="M45.309 44.4408C55.0755 34.6743 55.0755 18.8396 45.309 9.07313C35.5425 -0.693388 19.7078 -0.693393 9.94131 9.07312C0.174801 18.8396 0.174801 34.6743 9.94131 44.4408C19.7078 54.2073 35.5425 54.2073 45.309 44.4408Z" fill="#FFFDD4"/>
<path d="M45.2972 44.429C55.0572 34.669 55.0572 18.8449 45.2972 9.08492C35.5372 -0.675083 19.7131 -0.675086 9.95311 9.08492C0.193109 18.8449 0.193111 34.669 9.95311 44.429C19.7131 54.189 35.5372 54.189 45.2972 44.429Z" fill="#FFFDD3"/>
<path d="M45.2867 44.4185C55.0409 34.6643 55.0409 18.8496 45.2867 9.0954C35.5325 -0.658811 19.7178 -0.658813 9.96359 9.0954C0.209384 18.8496 0.209382 34.6643 9.96359 44.4185C19.7178 54.1727 35.5325 54.1727 45.2867 44.4185Z" fill="#FFFDD2"/>
<path d="M45.2749 44.4067C55.0226 34.659 55.0226 18.8549 45.2749 9.10719C35.5272 -0.640504 19.7231 -0.640505 9.97539 9.10719C0.227693 18.8549 0.227693 34.659 9.97539 44.4067C19.7231 54.1544 35.5272 54.1544 45.2749 44.4067Z" fill="#FFFDD1"/>
<path d="M45.2644 44.3962C55.0063 34.6543 55.0063 18.8596 45.2644 9.11768C35.5225 -0.624229 19.7278 -0.624232 9.98587 9.11768C0.243965 18.8596 0.243966 34.6543 9.98587 44.3962C19.7278 54.1382 35.5225 54.1381 45.2644 44.3962Z" fill="#FFFDD0"/>
<path d="M45.254 44.3858C54.9901 34.6496 54.9901 18.8643 45.254 9.12816C35.5178 -0.607958 19.7325 -0.607961 9.99636 9.12816C0.260238 18.8643 0.260236 34.6496 9.99635 44.3858C19.7325 54.1219 35.5178 54.1219 45.254 44.3858Z" fill="#FFFDCF"/>
<path d="M45.2422 44.374C54.9718 34.6444 54.9718 18.8696 45.2422 9.13995C35.5126 -0.589649 19.7378 -0.589649 10.0081 9.13995C0.278546 18.8696 0.278546 34.6444 10.0081 44.374C19.7378 54.1036 35.5126 54.1036 45.2422 44.374Z" fill="#FFFDCE"/>
<path d="M27.6254 51.6559C41.3769 51.6559 52.5248 40.5081 52.5248 26.7566C52.5248 13.005 41.3769 1.85718 27.6254 1.85718C13.8738 1.85718 2.72601 13.005 2.72601 26.7566C2.72601 40.5081 13.8738 51.6559 27.6254 51.6559Z" fill="#FFFCCD"/>
<path d="M27.6254 51.6393C41.3677 51.6393 52.5081 40.4989 52.5081 26.7566C52.5081 13.0143 41.3677 1.8739 27.6254 1.8739C13.8831 1.8739 2.74271 13.0143 2.74271 26.7566C2.74271 40.4989 13.8831 51.6393 27.6254 51.6393Z" fill="#FFFCCC"/>
<path d="M27.6254 51.6244C41.3596 51.6244 52.4933 40.4907 52.4933 26.7565C52.4933 13.0224 41.3596 1.88867 27.6254 1.88867C13.8913 1.88867 2.75754 13.0224 2.75754 26.7565C2.75754 40.4907 13.8913 51.6244 27.6254 51.6244Z" fill="#FFFCCB"/>
<path d="M27.6254 51.6078C41.3503 51.6078 52.4766 40.4815 52.4766 26.7566C52.4766 13.0317 41.3503 1.9054 27.6254 1.9054C13.9005 1.9054 2.7742 13.0317 2.7742 26.7566C2.7742 40.4815 13.9005 51.6078 27.6254 51.6078Z" fill="#FFFCCA"/>
<path d="M27.6254 51.5929C41.3422 51.5929 52.4618 40.4733 52.4618 26.7565C52.4618 13.0398 41.3422 1.92017 27.6254 1.92017C13.9087 1.92017 2.78903 13.0398 2.78903 26.7565C2.78903 40.4733 13.9087 51.5929 27.6254 51.5929Z" fill="#FFFCC9"/>
<path d="M27.6254 51.5763C41.333 51.5763 52.4451 40.4641 52.4451 26.7566C52.4451 13.049 41.333 1.93689 27.6254 1.93689C13.9179 1.93689 2.80573 13.049 2.80573 26.7566C2.80573 40.4641 13.9179 51.5763 27.6254 51.5763Z" fill="#FFFCC8"/>
<path d="M45.1648 44.2966C54.8517 34.6097 54.8517 18.9042 45.1648 9.21727C35.4779 -0.469639 19.7723 -0.469639 10.0854 9.21727C0.398533 18.9042 0.398533 34.6097 10.0854 44.2966C19.7723 53.9836 35.4779 53.9836 45.1648 44.2966Z" fill="#FFFCC7"/>
<path d="M45.153 44.2849C54.8334 34.6045 54.8334 18.9095 45.153 9.22906C35.4726 -0.451329 19.7776 -0.451334 10.0972 9.22906C0.416844 18.9094 0.416844 34.6045 10.0972 44.2849C19.7776 53.9653 35.4726 53.9652 45.153 44.2849Z" fill="#FFFCC6"/>
<path d="M45.1425 44.2744C54.8171 34.5998 54.8171 18.9141 45.1425 9.23955C35.4679 -0.435055 19.7823 -0.435061 10.1077 9.23954C0.433117 18.9141 0.433117 34.5998 10.1077 44.2744C19.7823 53.949 35.4679 53.949 45.1425 44.2744Z" fill="#FFFCC5"/>
<path d="M45.1308 44.2626C54.7988 34.5945 54.7988 18.9194 45.1308 9.25134C35.4627 -0.416748 19.7876 -0.416753 10.1195 9.25133C0.451428 18.9194 0.451428 34.5945 10.1195 44.2626C19.7876 53.9307 35.4627 53.9307 45.1308 44.2626Z" fill="#FFFCC4"/>
<path d="M45.1203 44.2521C54.7826 34.5898 54.7826 18.9241 45.1203 9.26182C35.458 -0.400475 19.7923 -0.40048 10.13 9.26182C0.467699 18.9241 0.467699 34.5898 10.13 44.2521C19.7923 53.9144 35.458 53.9144 45.1203 44.2521Z" fill="#FFFCC3"/>
<path d="M45.1085 44.2403C54.7643 34.5845 54.7643 18.9294 45.1085 9.27362C35.4527 -0.382169 19.7976 -0.382173 10.1418 9.27361C0.48601 18.9294 0.48601 34.5845 10.1418 44.2403C19.7976 53.8961 35.4527 53.8961 45.1085 44.2403Z" fill="#FFFCC2"/>
<path d="M27.6254 51.467C41.2726 51.467 52.3358 40.4038 52.3358 26.7566C52.3358 13.1095 41.2726 2.04626 27.6254 2.04626C13.9782 2.04626 2.91504 13.1095 2.91504 26.7566C2.91504 40.4038 13.9782 51.467 27.6254 51.467Z" fill="#FFFCC1"/>
<path d="M27.6254 51.4502C41.2634 51.4502 52.3191 40.3945 52.3191 26.7565C52.3191 13.1186 41.2634 2.06287 27.6254 2.06287C13.9875 2.06287 2.93173 13.1186 2.93173 26.7565C2.93173 40.3945 13.9875 51.4502 27.6254 51.4502Z" fill="#FFFCC0"/>
<path d="M27.6254 51.4355C41.2552 51.4355 52.3043 40.3864 52.3043 26.7566C52.3043 13.1269 41.2552 2.07776 27.6254 2.07776C13.9957 2.07776 2.94656 13.1269 2.94656 26.7566C2.94656 40.3864 13.9957 51.4355 27.6254 51.4355Z" fill="#FFFCBF"/>
<path d="M27.6254 51.4187C41.2459 51.4187 52.2876 40.3771 52.2876 26.7565C52.2876 13.136 41.2459 2.09436 27.6254 2.09436C14.0049 2.09436 2.96323 13.136 2.96323 26.7565C2.96323 40.3771 14.0049 51.4187 27.6254 51.4187Z" fill="#FFFCBE"/>
<path d="M27.6254 51.4039C41.2378 51.4039 52.2728 40.369 52.2728 26.7566C52.2728 13.1442 41.2378 2.10925 27.6254 2.10925C14.0131 2.10925 2.97806 13.1442 2.97806 26.7566C2.97806 40.369 14.0131 51.4039 27.6254 51.4039Z" fill="#FFFCBD"/>
<path d="M27.6254 51.3873C41.2286 51.3873 52.2561 40.3598 52.2561 26.7566C52.2561 13.1535 41.2286 2.12598 27.6254 2.12598C14.0223 2.12598 2.99475 13.1535 2.99475 26.7566C2.99475 40.3598 14.0223 51.3873 27.6254 51.3873Z" fill="#FFFCBC"/>
<path d="M27.6254 51.3724C41.2204 51.3724 52.2412 40.3515 52.2412 26.7566C52.2412 13.1616 41.2204 2.14075 27.6254 2.14075C14.0304 2.14075 3.00955 13.1616 3.00955 26.7566C3.00955 40.3515 14.0304 51.3724 27.6254 51.3724Z" fill="#FFFCBB"/>
<path d="M45.0194 44.1512C54.626 34.5446 54.626 18.9693 45.0194 9.36272C35.4128 -0.243852 19.8375 -0.24385 10.2309 9.36272C0.624335 18.9693 0.624335 34.5446 10.2309 44.1512C19.8375 53.7578 35.4128 53.7578 45.0194 44.1512Z" fill="#FFFBBA"/>
<path d="M45.0089 44.1407C54.6097 34.5399 54.6097 18.974 45.0089 9.3732C35.4081 -0.227578 19.8422 -0.227579 10.2414 9.3732C0.640607 18.974 0.640607 34.5399 10.2414 44.1407C19.8422 53.7415 35.4081 53.7415 45.0089 44.1407Z" fill="#FFFBB9"/>
<path d="M44.9971 44.1289C54.5914 34.5346 54.5914 18.9793 44.9971 9.385C35.4028 -0.209272 19.8475 -0.209272 10.2532 9.385C0.658917 18.9793 0.658917 34.5346 10.2532 44.1289C19.8475 53.7232 35.4028 53.7232 44.9971 44.1289Z" fill="#FFFBB8"/>
<path d="M44.9866 44.1184C54.5751 34.53 54.5751 18.984 44.9866 9.39548C35.3981 -0.192998 19.8521 -0.192999 10.2637 9.39548C0.67519 18.984 0.67519 34.53 10.2637 44.1184C19.8521 53.7069 35.3981 53.7069 44.9866 44.1184Z" fill="#FFFBB7"/>
<path d="M44.9748 44.1066C54.5568 34.5247 54.5568 18.9892 44.9748 9.40728C35.3929 -0.174688 19.8574 -0.174694 10.2755 9.40727C0.693501 18.9892 0.693501 34.5247 10.2755 44.1066C19.8574 53.6886 35.3929 53.6886 44.9748 44.1066Z" fill="#FFFBB6"/>
<path d="M44.9643 44.0962C54.5405 34.52 54.5405 18.9939 44.9643 9.41776C35.3882 -0.158419 19.8621 -0.158418 10.2859 9.41776C0.709772 18.9939 0.709772 34.52 10.2859 44.0962C19.8621 53.6723 35.3882 53.6723 44.9643 44.0962Z" fill="#FFFBB5"/>
<path d="M27.6254 51.2613C41.159 51.2613 52.1301 40.2902 52.1301 26.7566C52.1301 13.2231 41.159 2.25195 27.6254 2.25195C14.0919 2.25195 3.12076 13.2231 3.12076 26.7566C3.12076 40.2902 14.0919 51.2613 27.6254 51.2613Z" fill="#FFFBB4"/>
<path d="M27.6254 51.2464C41.1508 51.2464 52.1152 40.2819 52.1152 26.7566C52.1152 13.2312 41.1508 2.26672 27.6254 2.26672C14.1001 2.26672 3.13559 13.2312 3.13559 26.7566C3.13559 40.2819 14.1001 51.2464 27.6254 51.2464Z" fill="#FFFBB3"/>
<path d="M27.6254 51.2297C41.1416 51.2297 52.0986 40.2727 52.0986 26.7566C52.0986 13.2405 41.1416 2.28345 27.6254 2.28345C14.1093 2.28345 3.15225 13.2405 3.15225 26.7566C3.15225 40.2727 14.1093 51.2297 27.6254 51.2297Z" fill="#FFFBB2"/>
<path d="M27.6254 51.2149C41.1334 51.2149 52.0837 40.2645 52.0837 26.7565C52.0837 13.2486 41.1334 2.29822 27.6254 2.29822C14.1175 2.29822 3.16708 13.2486 3.16708 26.7565C3.16708 40.2645 14.1175 51.2149 27.6254 51.2149Z" fill="#FFFBB1"/>
<path d="M27.6254 51.1982C41.1242 51.1982 52.0671 40.2553 52.0671 26.7566C52.0671 13.2578 41.1242 2.31494 27.6254 2.31494C14.1267 2.31494 3.18378 13.2578 3.18378 26.7566C3.18378 40.2553 14.1267 51.1982 27.6254 51.1982Z" fill="#FFFBB0"/>
<path d="M27.6254 51.1834C41.116 51.1834 52.0522 40.2471 52.0522 26.7565C52.0522 13.266 41.116 2.32971 27.6254 2.32971C14.1348 2.32971 3.19858 13.266 3.19858 26.7565C3.19858 40.2471 14.1348 51.1834 27.6254 51.1834Z" fill="#FFFBAF"/>
<path d="M27.6254 51.1667C41.1068 51.1667 52.0356 40.2379 52.0356 26.7566C52.0356 13.2752 41.1068 2.34644 27.6254 2.34644C14.1441 2.34644 3.21527 13.2752 3.21527 26.7566C3.21527 40.2379 14.1441 51.1667 27.6254 51.1667Z" fill="#FFFBAE"/>
<path d="M44.8752 44.007C54.4022 34.4801 54.4022 19.0338 44.8752 9.50687C35.3483 -0.0200976 19.902 -0.020101 10.375 9.50686C0.848071 19.0338 0.848071 34.4801 10.375 44.0071C19.902 53.534 35.3483 53.534 44.8752 44.007Z" fill="#FFFBAD"/>
<path d="M44.8634 43.9953C54.3839 34.4748 54.3839 19.0391 44.8634 9.51866C35.343 -0.00179108 19.9073 -0.00179108 10.3868 9.51866C0.866379 19.0391 0.866379 34.4748 10.3868 43.9953C19.9073 53.5157 35.343 53.5157 44.8634 43.9953Z" fill="#FFFBAC"/>
<path d="M44.8529 43.9848C54.3676 34.4701 54.3676 19.0438 44.8529 9.52914C35.3383 0.0144817 19.912 0.0144823 10.3973 9.52914C0.88265 19.0438 0.88265 34.4701 10.3973 43.9848C19.912 53.4994 35.3383 53.4994 44.8529 43.9848Z" fill="#FFFBAB"/>
<path d="M44.8412 43.973C54.3493 34.4648 54.3493 19.0491 44.8412 9.54094C35.333 0.0327882 19.9173 0.0327869 10.4091 9.54094C0.900961 19.0491 0.900961 34.4648 10.4091 43.973C19.9173 53.4811 35.333 53.4811 44.8412 43.973Z" fill="#FFFBAA"/>
<path d="M44.8307 43.9625C54.333 34.4601 54.333 19.0538 44.8307 9.55142C35.3283 0.0490623 19.9219 0.049063 10.4196 9.55142C0.917234 19.0538 0.917234 34.4601 10.4196 43.9625C19.9219 53.4649 35.3283 53.4649 44.8307 43.9625Z" fill="#FFFBA9"/>
<path d="M44.8189 43.9507C54.3147 34.4549 54.3147 19.0591 44.8189 9.56322C35.323 0.0673716 19.9272 0.0673675 10.4314 9.56321C0.935544 19.0591 0.935544 34.4549 10.4314 43.9507C19.9272 53.4465 35.323 53.4465 44.8189 43.9507Z" fill="#FFFBA8"/>
<path d="M27.6254 51.0574C41.0464 51.0574 51.9262 40.1776 51.9262 26.7566C51.9262 13.3357 41.0464 2.45581 27.6254 2.45581C14.2045 2.45581 3.32462 13.3357 3.32462 26.7566C3.32462 40.1776 14.2045 51.0574 27.6254 51.0574Z" fill="#FFFBA7"/>
<path d="M27.6254 51.0407C41.0372 51.0407 51.9095 40.1683 51.9095 26.7565C51.9095 13.3448 41.0372 2.47241 27.6254 2.47241C14.2137 2.47241 3.34128 13.3448 3.34128 26.7565C3.34128 40.1683 14.2137 51.0407 27.6254 51.0407Z" fill="#FFFAA6"/>
<path d="M27.6254 51.0259C41.029 51.0259 51.8947 40.1602 51.8947 26.7566C51.8947 13.353 41.029 2.4873 27.6254 2.4873C14.2218 2.4873 3.35611 13.353 3.35611 26.7566C3.35611 40.1602 14.2218 51.0259 27.6254 51.0259Z" fill="#FFFAA5"/>
<path d="M27.6254 51.0093C41.0198 51.0093 51.878 40.151 51.878 26.7567C51.878 13.3623 41.0198 2.50403 27.6254 2.50403C14.2311 2.50403 3.3728 13.3623 3.3728 26.7567C3.3728 40.151 14.2311 51.0093 27.6254 51.0093Z" fill="#FFFAA4"/>
<path d="M27.6254 50.9944C41.0116 50.9944 51.8632 40.1428 51.8632 26.7566C51.8632 13.3704 41.0116 2.5188 27.6254 2.5188C14.2392 2.5188 3.3876 13.3704 3.3876 26.7566C3.3876 40.1428 14.2392 50.9944 27.6254 50.9944Z" fill="#FFFAA3"/>
<path d="M27.6254 50.9795C41.0034 50.9795 51.8484 40.1345 51.8484 26.7565C51.8484 13.3786 41.0034 2.53357 27.6254 2.53357C14.2474 2.53357 3.40244 13.3786 3.40244 26.7565C3.40244 40.1345 14.2474 50.9795 27.6254 50.9795Z" fill="#FFFAA2"/>
<path d="M44.7416 43.8734C54.1947 34.4202 54.1947 19.0937 44.7416 9.64053C35.2884 0.187383 19.9619 0.187377 10.5087 9.64052C1.05556 19.0937 1.05556 34.4202 10.5087 43.8734C19.9619 53.3265 35.2884 53.3265 44.7416 43.8734Z" fill="#FFFAA1"/>
<path d="M44.7311 43.8629C54.1784 34.4155 54.1784 19.0984 44.7311 9.65101C35.2837 0.203656 19.9665 0.203651 10.5192 9.65101C1.07183 19.0984 1.07183 34.4156 10.5192 43.8629C19.9665 53.3103 35.2837 53.3103 44.7311 43.8629Z" fill="#FFFAA0"/>
<path d="M44.7193 43.8511C54.1601 34.4103 54.1601 19.1036 44.7193 9.6628C35.2785 0.221962 19.9718 0.221958 10.531 9.6628C1.09014 19.1036 1.09014 34.4103 10.531 43.8511C19.9718 53.292 35.2785 53.292 44.7193 43.8511Z" fill="#FFFA9F"/>
<path d="M44.7088 43.8406C54.1439 34.4056 54.1439 19.1083 44.7088 9.67329C35.2738 0.238235 19.9765 0.238232 10.5415 9.67328C1.10642 19.1083 1.10642 34.4056 10.5415 43.8406C19.9765 53.2757 35.2738 53.2757 44.7088 43.8406Z" fill="#FFFA9E"/>
<path d="M44.697 43.8288C54.1256 34.4003 54.1256 19.1136 44.697 9.68508C35.2685 0.256539 19.9818 0.256539 10.5533 9.68508C1.12472 19.1136 1.12472 34.4003 10.5533 43.8288C19.9818 53.2574 35.2685 53.2574 44.697 43.8288Z" fill="#FFFA9D"/>
<path d="M44.6865 43.8184C54.1093 34.3956 54.1093 19.1183 44.6865 9.69556C35.2638 0.272816 19.9865 0.272812 10.5637 9.69556C1.141 19.1183 1.141 34.3956 10.5637 43.8184C19.9865 53.2411 35.2638 53.2411 44.6865 43.8184Z" fill="#FFFA9C"/>
<path d="M44.6748 43.8066C54.091 34.3903 54.091 19.1236 44.6748 9.70736C35.2585 0.291122 19.9918 0.291117 10.5755 9.70735C1.15931 19.1236 1.15931 34.3903 10.5755 43.8066C19.9918 53.2228 35.2585 53.2228 44.6748 43.8066Z" fill="#FFFA9B"/>
<path d="M27.6254 50.8536C40.9338 50.8536 51.7224 40.065 51.7224 26.7566C51.7224 13.4482 40.9338 2.65967 27.6254 2.65967C14.317 2.65967 3.52844 13.4482 3.52844 26.7566C3.52844 40.065 14.317 50.8536 27.6254 50.8536Z" fill="#FFFA9A"/>
<path d="M27.6254 50.8368C40.9246 50.8368 51.7057 40.0557 51.7057 26.7565C51.7057 13.4574 40.9246 2.67627 27.6254 2.67627C14.3262 2.67627 3.54514 13.4574 3.54514 26.7565C3.54514 40.0557 14.3262 50.8368 27.6254 50.8368Z" fill="#FFFA99"/>
<path d="M27.6254 50.8221C40.9164 50.8221 51.6909 40.0476 51.6909 26.7566C51.6909 13.4656 40.9164 2.69116 27.6254 2.69116C14.3344 2.69116 3.55997 13.4656 3.55997 26.7566C3.55997 40.0476 14.3344 50.8221 27.6254 50.8221Z" fill="#FFFA98"/>
<path d="M27.6254 50.8053C40.9072 50.8053 51.6742 40.0383 51.6742 26.7565C51.6742 13.4748 40.9072 2.70776 27.6254 2.70776C14.3436 2.70776 3.57663 13.4748 3.57663 26.7565C3.57663 40.0383 14.3436 50.8053 27.6254 50.8053Z" fill="#FFFA97"/>
<path d="M27.6254 50.7905C40.899 50.7905 51.6594 40.0302 51.6594 26.7566C51.6594 13.483 40.899 2.72266 27.6254 2.72266C14.3518 2.72266 3.59146 13.483 3.59146 26.7566C3.59146 40.0302 14.3518 50.7905 27.6254 50.7905Z" fill="#FFFA96"/>
<path d="M27.6254 50.7739C40.8898 50.7739 51.6427 40.021 51.6427 26.7566C51.6427 13.4923 40.8898 2.73938 27.6254 2.73938C14.3611 2.73938 3.60815 13.4923 3.60815 26.7566C3.60815 40.021 14.3611 50.7739 27.6254 50.7739Z" fill="#FFFA95"/>
<path d="M44.5974 43.7292C53.971 34.3557 53.971 19.1582 44.5974 9.78467C35.2239 0.411133 20.0264 0.411132 10.6529 9.78467C1.27933 19.1582 1.27933 34.3557 10.6529 43.7292C20.0264 53.1028 35.2239 53.1028 44.5974 43.7292Z" fill="#FFFA94"/>
<path d="M44.5856 43.7174C53.9527 34.3504 53.9527 19.1635 44.5856 9.79647C35.2186 0.429443 20.0317 0.429437 10.6647 9.79646C1.29764 19.1635 1.29764 34.3504 10.6647 43.7175C20.0317 53.0845 35.2186 53.0845 44.5856 43.7174Z" fill="#FFF993"/>
<path d="M44.5752 43.707C53.9364 34.3457 53.9364 19.1682 44.5752 9.80695C35.2139 0.445713 20.0364 0.445713 10.6751 9.80695C1.31391 19.1682 1.31391 34.3457 10.6751 43.707C20.0364 53.0682 35.2139 53.0682 44.5752 43.707Z" fill="#FFF992"/>
<path d="M44.5633 43.6952C53.9181 34.3405 53.9181 19.1735 44.5633 9.81874C35.2086 0.464022 20.0416 0.464017 10.6869 9.81874C1.33219 19.1735 1.33219 34.3405 10.6869 43.6952C20.0416 53.0499 35.2086 53.0499 44.5633 43.6952Z" fill="#FFF991"/>
<path d="M44.5529 43.6847C53.9018 34.3358 53.9018 19.1782 44.5529 9.82923C35.204 0.480295 20.0464 0.480291 10.6974 9.82922C1.34849 19.1782 1.34849 34.3358 10.6974 43.6847C20.0464 53.0336 35.204 53.0336 44.5529 43.6847Z" fill="#FFF990"/>
<path d="M44.5411 43.6729C53.8835 34.3305 53.8835 19.1834 44.5411 9.84102C35.1987 0.498601 20.0516 0.498598 10.7092 9.84101C1.36677 19.1834 1.36677 34.3305 10.7092 43.6729C20.0516 53.0153 35.1987 53.0153 44.5411 43.6729Z" fill="#FFF98F"/>
<path d="M44.5306 43.6624C53.8672 34.3258 53.8672 19.1881 44.5306 9.8515C35.194 0.514875 20.0563 0.514871 10.7197 9.8515C1.38304 19.1881 1.38304 34.3258 10.7197 43.6624C20.0563 52.999 35.194 52.999 44.5306 43.6624Z" fill="#FFF98E"/>
<path d="M27.6254 50.6479C40.8202 50.6479 51.5167 39.9514 51.5167 26.7566C51.5167 13.5618 40.8202 2.86536 27.6254 2.86536C14.4306 2.86536 3.73416 13.5618 3.73416 26.7566C3.73416 39.9514 14.4306 50.6479 27.6254 50.6479Z" fill="#FFF98D"/>
<path d="M27.6254 50.633C40.812 50.633 51.5018 39.9431 51.5018 26.7566C51.5018 13.57 40.812 2.88013 27.6254 2.88013C14.4388 2.88013 3.74899 13.57 3.74899 26.7566C3.74899 39.9431 14.4388 50.633 27.6254 50.633Z" fill="#FFF98C"/>
<path d="M27.6254 50.6163C40.8028 50.6163 51.4851 39.934 51.4851 26.7566C51.4851 13.5792 40.8028 2.89685 27.6254 2.89685C14.448 2.89685 3.76566 13.5792 3.76566 26.7566C3.76566 39.934 14.448 50.6163 27.6254 50.6163Z" fill="#FFF98B"/>
<path d="M27.6254 50.6015C40.7946 50.6015 51.4703 39.9257 51.4703 26.7565C51.4703 13.5874 40.7946 2.91162 27.6254 2.91162C14.4562 2.91162 3.78049 13.5874 3.78049 26.7565C3.78049 39.9257 14.4562 50.6015 27.6254 50.6015Z" fill="#FFF98A"/>
<path d="M27.6254 50.5848C40.7854 50.5848 51.4537 39.9166 51.4537 26.7566C51.4537 13.5966 40.7854 2.92834 27.6254 2.92834C14.4654 2.92834 3.79718 13.5966 3.79718 26.7566C3.79718 39.9166 14.4654 50.5848 27.6254 50.5848Z" fill="#FFF989"/>
<path d="M27.6254 50.5699C40.7772 50.5699 51.4388 39.9083 51.4388 26.7565C51.4388 13.6047 40.7772 2.94312 27.6254 2.94312C14.4736 2.94312 3.81198 13.6047 3.81198 26.7565C3.81198 39.9083 14.4736 50.5699 27.6254 50.5699Z" fill="#FFF988"/>
<path d="M44.452 43.5838C53.7452 34.2906 53.7452 19.2233 44.452 9.93012C35.1588 0.63692 20.0915 0.63692 10.7983 9.93012C1.5051 19.2233 1.5051 34.2906 10.7983 43.5838C20.0915 52.877 35.1588 52.877 44.452 43.5838Z" fill="#FFF987"/>
<path d="M44.4415 43.5733C53.7289 34.2859 53.7289 19.228 44.4415 9.94061C35.1541 0.653193 20.0962 0.653194 10.8088 9.94061C1.52137 19.228 1.52137 34.2859 10.8088 43.5733C20.0962 52.8607 35.1541 52.8607 44.4415 43.5733Z" fill="#FFF986"/>
<path d="M44.4297 43.5615C53.7106 34.2806 53.7106 19.2333 44.4297 9.9524C35.1488 0.6715 20.1015 0.671498 10.8206 9.9524C1.53968 19.2333 1.53968 34.2806 10.8206 43.5615C20.1015 52.8424 35.1488 52.8424 44.4297 43.5615Z" fill="#FFF985"/>
<path d="M44.4192 43.551C53.6943 34.2759 53.6943 19.238 44.4192 9.96288C35.1441 0.687772 20.1062 0.687772 10.8311 9.96288C1.55595 19.238 1.55595 34.2759 10.8311 43.551C20.1062 52.8261 35.1441 52.8261 44.4192 43.551Z" fill="#FFF984"/>
<path d="M44.4074 43.5392C53.676 34.2706 53.676 19.2433 44.4074 9.97468C35.1388 0.706079 20.1115 0.706079 10.8429 9.97468C1.57426 19.2433 1.57426 34.2706 10.8429 43.5392C20.1115 52.8078 35.1388 52.8078 44.4074 43.5392Z" fill="#FFF983"/>
<path d="M44.3969 43.5288C53.6597 34.2659 53.6597 19.248 44.3969 9.98516C35.1341 0.722352 20.1162 0.72235 10.8533 9.98516C1.59053 19.248 1.59053 34.2659 10.8533 43.5288C20.1162 52.7916 35.1341 52.7916 44.3969 43.5288Z" fill="#FFF982"/>
<path d="M27.6254 50.4588C40.7158 50.4588 51.3276 39.8469 51.3276 26.7565C51.3276 13.6662 40.7158 3.05432 27.6254 3.05432C14.535 3.05432 3.92319 13.6662 3.92319 26.7565C3.92319 39.8469 14.535 50.4588 27.6254 50.4588Z" fill="#FFF981"/>
<path d="M27.6254 50.444C40.7076 50.444 51.3128 39.8388 51.3128 26.7566C51.3128 13.6744 40.7076 3.06921 27.6254 3.06921C14.5432 3.06921 3.93802 13.6744 3.93802 26.7566C3.93802 39.8388 14.5432 50.444 27.6254 50.444Z" fill="#FFF980"/>
<path d="M27.6254 50.4273C40.6984 50.4273 51.2961 39.8295 51.2961 26.7565C51.2961 13.6836 40.6984 3.08582 27.6254 3.08582C14.5524 3.08582 3.95468 13.6836 3.95468 26.7565C3.95468 39.8295 14.5524 50.4273 27.6254 50.4273Z" fill="#FFF87F"/>
<path d="M27.6254 50.4125C40.6902 50.4125 51.2813 39.8214 51.2813 26.7566C51.2813 13.6918 40.6902 3.10071 27.6254 3.10071C14.5606 3.10071 3.96951 13.6918 3.96951 26.7566C3.96951 39.8214 14.5606 50.4125 27.6254 50.4125Z" fill="#FFF87E"/>
<path d="M27.6254 50.3959C40.681 50.3959 51.2646 39.8122 51.2646 26.7567C51.2646 13.7011 40.681 3.11743 27.6254 3.11743C14.5698 3.11743 3.98621 13.7011 3.98621 26.7567C3.98621 39.8122 14.5698 50.3959 27.6254 50.3959Z" fill="#FFF87D"/>
<path d="M27.6254 50.381C40.6728 50.381 51.2498 39.804 51.2498 26.7566C51.2498 13.7092 40.6728 3.1322 27.6254 3.1322C14.578 3.1322 4.00101 13.7092 4.00101 26.7566C4.00101 39.804 14.578 50.381 27.6254 50.381Z" fill="#FFF87C"/>
<path d="M27.6254 50.3644C40.6636 50.3644 51.2331 39.7948 51.2331 26.7566C51.2331 13.7185 40.6636 3.14893 27.6254 3.14893C14.5872 3.14893 4.0177 13.7185 4.0177 26.7566C4.0177 39.7948 14.5872 50.3644 27.6254 50.3644Z" fill="#FFF87B"/>
<path d="M44.3078 43.4396C53.5214 34.2261 53.5214 19.2879 44.3078 10.0743C35.0942 0.860673 20.1561 0.860672 10.9425 10.0743C1.72886 19.2879 1.72886 34.2261 10.9425 43.4397C20.1561 52.6532 35.0942 52.6532 44.3078 43.4396Z" fill="#FFF87A"/>
<path d="M44.2961 43.4279C53.5031 34.2208 53.5031 19.2931 44.2961 10.0861C35.089 0.878979 20.1613 0.878977 10.9543 10.0861C1.74717 19.2931 1.74717 34.2208 10.9543 43.4279C20.1613 52.6349 35.089 52.6349 44.2961 43.4279Z" fill="#FFF879"/>
<path d="M44.2856 43.4174C53.4869 34.2161 53.4869 19.2978 44.2856 10.0965C35.0843 0.895252 20.166 0.89525 10.9647 10.0965C1.76344 19.2978 1.76344 34.2161 10.9647 43.4174C20.166 52.6187 35.0843 52.6187 44.2856 43.4174Z" fill="#FFF878"/>
<path d="M44.2738 43.4056C53.4686 34.2108 53.4686 19.3031 44.2738 10.1083C35.079 0.91356 20.1713 0.913558 10.9765 10.1083C1.78175 19.3031 1.78175 34.2108 10.9765 43.4056C20.1713 52.6004 35.079 52.6004 44.2738 43.4056Z" fill="#FFF877"/>
<path d="M44.2633 43.3951C53.4523 34.2061 53.4523 19.3078 44.2633 10.1188C35.0743 0.929834 20.176 0.929831 10.987 10.1188C1.79803 19.3078 1.79803 34.2061 10.987 43.3951C20.176 52.5841 35.0743 52.5841 44.2633 43.3951Z" fill="#FFF876"/>
<path d="M44.2515 43.3833C53.434 34.2008 53.434 19.3131 44.2515 10.1306C35.069 0.948139 20.1813 0.948138 10.9988 10.1306C1.81633 19.3131 1.81633 34.2008 10.9988 43.3833C20.1813 52.5658 35.069 52.5658 44.2515 43.3833Z" fill="#FFF875"/>
<path d="M27.6254 50.2549C40.6032 50.2549 51.1238 39.7344 51.1238 26.7566C51.1238 13.7788 40.6032 3.25818 27.6254 3.25818C14.6476 3.25818 4.12704 13.7788 4.12704 26.7566C4.12704 39.7344 14.6476 50.2549 27.6254 50.2549Z" fill="#FFF874"/>
<path d="M27.6254 50.2402C40.595 50.2402 51.1089 39.7262 51.1089 26.7566C51.1089 13.787 40.595 3.27307 27.6254 3.27307C14.6558 3.27307 4.14185 13.787 4.14185 26.7566C4.14185 39.7262 14.6558 50.2402 27.6254 50.2402Z" fill="#FFF873"/>
<path d="M27.6254 50.2234C40.5858 50.2234 51.0923 39.7169 51.0923 26.7565C51.0923 13.7961 40.5858 3.28967 27.6254 3.28967C14.665 3.28967 4.15854 13.7961 4.15854 26.7565C4.15854 39.7169 14.665 50.2234 27.6254 50.2234Z" fill="#FFF872"/>
<path d="M27.6254 50.2087C40.5776 50.2087 51.0775 39.7088 51.0775 26.7566C51.0775 13.8044 40.5776 3.30457 27.6254 3.30457C14.6732 3.30457 4.17337 13.8044 4.17337 26.7566C4.17337 39.7088 14.6732 50.2087 27.6254 50.2087Z" fill="#FFF871"/>
<path d="M27.6254 50.1919C40.5684 50.1919 51.0608 39.6995 51.0608 26.7565C51.0608 13.8135 40.5684 3.32117 27.6254 3.32117C14.6824 3.32117 4.19003 13.8135 4.19003 26.7565C4.19003 39.6995 14.6824 50.1919 27.6254 50.1919Z" fill="#FFF870"/>
<path d="M27.6254 50.1771C40.5602 50.1771 51.0459 39.6914 51.0459 26.7566C51.0459 13.8218 40.5602 3.33606 27.6254 3.33606C14.6906 3.33606 4.20486 13.8218 4.20486 26.7566C4.20486 39.6914 14.6906 50.1771 27.6254 50.1771Z" fill="#FFF86F"/>
<path d="M27.6254 50.1605C40.551 50.1605 51.0293 39.6822 51.0293 26.7566C51.0293 13.8311 40.551 3.35278 27.6254 3.35278C14.6998 3.35278 4.22156 13.8311 4.22156 26.7566C4.22156 39.6822 14.6998 50.1605 27.6254 50.1605Z" fill="#FFF86E"/>
<path d="M44.1637 43.2955C53.2977 34.1615 53.2977 19.3524 44.1637 10.2184C35.0297 1.08442 20.2206 1.08442 11.0866 10.2184C1.9526 19.3524 1.9526 34.1615 11.0866 43.2955C20.2206 52.4295 35.0297 52.4295 44.1637 43.2955Z" fill="#FFF86D"/>
<path d="M44.1519 43.2837C53.2794 34.1562 53.2794 19.3577 44.1519 10.2302C35.0244 1.10273 20.2259 1.10273 11.0984 10.2302C1.97091 19.3577 1.97091 34.1562 11.0984 43.2837C20.2259 52.4112 35.0244 52.4112 44.1519 43.2837Z" fill="#FFF86C"/>
<path d="M44.1414 43.2732C53.2631 34.1515 53.2631 19.3624 44.1414 10.2407C35.0197 1.11901 20.2305 1.119 11.1089 10.2407C1.98718 19.3624 1.98718 34.1515 11.1089 43.2732C20.2305 52.3949 35.0197 52.3949 44.1414 43.2732Z" fill="#FFF76B"/>
<path d="M44.1296 43.2614C53.2448 34.1463 53.2448 19.3677 44.1296 10.2525C35.0144 1.13731 20.2358 1.13731 11.1207 10.2525C2.00549 19.3677 2.00549 34.1463 11.1207 43.2614C20.2358 52.3766 35.0144 52.3766 44.1296 43.2614Z" fill="#FFF76A"/>
<path d="M44.1191 43.2509C53.2285 34.1416 53.2285 19.3723 44.1191 10.263C35.0097 1.15359 20.2405 1.15358 11.1311 10.263C2.02176 19.3723 2.02176 34.1416 11.1311 43.251C20.2405 52.3603 35.0097 52.3603 44.1191 43.2509Z" fill="#FFF769"/>
<path d="M44.1073 43.2392C53.2102 34.1363 53.2102 19.3776 44.1073 10.2748C35.0045 1.17189 20.2458 1.17189 11.1429 10.2748C2.04007 19.3776 2.04007 34.1363 11.1429 43.2392C20.2458 52.342 35.0045 52.342 44.1073 43.2392Z" fill="#FFF768"/>
<path d="M27.6254 50.0511C40.4906 50.0511 50.9199 39.6218 50.9199 26.7566C50.9199 13.8914 40.4906 3.46204 27.6254 3.46204C14.7602 3.46204 4.33087 13.8914 4.33087 26.7566C4.33087 39.6218 14.7602 50.0511 27.6254 50.0511Z" fill="#FFF767"/>
<path d="M27.6254 50.0345C40.4814 50.0345 50.9033 39.6126 50.9033 26.7566C50.9033 13.9006 40.4814 3.47876 27.6254 3.47876C14.7694 3.47876 4.34756 13.9006 4.34756 26.7566C4.34756 39.6126 14.7694 50.0345 27.6254 50.0345Z" fill="#FFF766"/>
<path d="M27.6254 50.0196C40.4732 50.0196 50.8884 39.6044 50.8884 26.7566C50.8884 13.9087 40.4732 3.49353 27.6254 3.49353C14.7776 3.49353 4.3624 13.9087 4.3624 26.7566C4.3624 39.6044 14.7776 50.0196 27.6254 50.0196Z" fill="#FFF765"/>
<path d="M27.6254 50.0029C40.464 50.0029 50.8717 39.5952 50.8717 26.7566C50.8717 13.918 40.464 3.51025 27.6254 3.51025C14.7868 3.51025 4.37906 13.918 4.37906 26.7566C4.37906 39.5952 14.7868 50.0029 27.6254 50.0029Z" fill="#FFF764"/>
<path d="M27.6254 49.9881C40.4558 49.9881 50.8569 39.587 50.8569 26.7565C50.8569 13.9261 40.4558 3.52502 27.6254 3.52502C14.795 3.52502 4.39389 13.9261 4.39389 26.7565C4.39389 39.587 14.795 49.9881 27.6254 49.9881Z" fill="#FFF763"/>
<path d="M27.6254 49.9714C40.4466 49.9714 50.8403 39.5778 50.8403 26.7566C50.8403 13.9354 40.4466 3.54175 27.6254 3.54175C14.8042 3.54175 4.41058 13.9354 4.41058 26.7566C4.41058 39.5778 14.8042 49.9714 27.6254 49.9714Z" fill="#FFF762"/>
<path d="M44.03 43.1618C53.0902 34.1017 53.0902 19.4122 44.03 10.3521C34.9699 1.2919 20.2804 1.2919 11.2203 10.3521C2.16009 19.4122 2.16009 34.1017 11.2203 43.1618C20.2804 52.222 34.9699 52.222 44.03 43.1618Z" fill="#FFF761"/>
<path d="M44.0182 43.1501C53.0719 34.0964 53.0719 19.4175 44.0182 10.3639C34.9646 1.31021 20.2857 1.31021 11.2321 10.3639C2.1784 19.4175 2.1784 34.0964 11.2321 43.1501C20.2857 52.2037 34.9646 52.2037 44.0182 43.1501Z" fill="#FFF760"/>
<path d="M44.0078 43.1396C53.0556 34.0917 53.0556 19.4222 44.0078 10.3744C34.9599 1.32648 20.2904 1.32648 11.2425 10.3743C2.19467 19.4222 2.19467 34.0917 11.2425 43.1396C20.2904 52.1874 34.9599 52.1874 44.0078 43.1396Z" fill="#FFF75F"/>
<path d="M43.996 43.1278C53.0373 34.0864 53.0373 19.4275 43.996 10.3861C34.9546 1.34479 20.2957 1.34479 11.2543 10.3861C2.21298 19.4275 2.21298 34.0864 11.2543 43.1278C20.2957 52.1691 34.9546 52.1691 43.996 43.1278Z" fill="#FFF75E"/>
<path d="M43.9855 43.1173C53.021 34.0817 53.021 19.4322 43.9855 10.3966C34.9499 1.36106 20.3004 1.36106 11.2648 10.3966C2.22925 19.4322 2.22925 34.0817 11.2648 43.1173C20.3004 52.1529 34.9499 52.1529 43.9855 43.1173Z" fill="#FFF75D"/>
<path d="M43.9737 43.1055C53.0027 34.0764 53.0027 19.4375 43.9737 10.4084C34.9446 1.37937 20.3057 1.37937 11.2766 10.4084C2.24756 19.4375 2.24756 34.0765 11.2766 43.1055C20.3057 52.1345 34.9446 52.1345 43.9737 43.1055Z" fill="#FFF75C"/>
<path d="M43.9632 43.095C52.9865 34.0718 52.9865 19.4422 43.9632 10.4189C34.9399 1.39565 20.3104 1.39564 11.2871 10.4189C2.26383 19.4422 2.26383 34.0718 11.2871 43.095C20.3104 52.1183 34.9399 52.1183 43.9632 43.095Z" fill="#FFF75B"/>
<path d="M27.6254 49.8454C40.377 49.8454 50.7142 39.5082 50.7142 26.7565C50.7142 14.0049 40.377 3.66772 27.6254 3.66772C14.8738 3.66772 4.53659 14.0049 4.53659 26.7565C4.53659 39.5082 14.8738 49.8454 27.6254 49.8454Z" fill="#FFF75A"/>
<path d="M27.6254 49.8306C40.3688 49.8306 50.6994 39.5 50.6994 26.7566C50.6994 14.0132 40.3688 3.68262 27.6254 3.68262C14.882 3.68262 4.55142 14.0132 4.55142 26.7566C4.55142 39.5 14.882 49.8306 27.6254 49.8306Z" fill="#FFF759"/>
<path d="M27.6254 49.8139C40.3596 49.8139 50.6827 39.4907 50.6827 26.7565C50.6827 14.0223 40.3596 3.69922 27.6254 3.69922C14.8912 3.69922 4.56808 14.0223 4.56808 26.7565C4.56808 39.4907 14.8912 49.8139 27.6254 49.8139Z" fill="#FFF658"/>
<path d="M27.6254 49.7991C40.3514 49.7991 50.6679 39.4826 50.6679 26.7566C50.6679 14.0306 40.3514 3.71411 27.6254 3.71411C14.8994 3.71411 4.58292 14.0306 4.58292 26.7566C4.58292 39.4826 14.8994 49.7991 27.6254 49.7991Z" fill="#FFF657"/>
<path d="M27.6254 49.7825C40.3422 49.7825 50.6512 39.4735 50.6512 26.7566C50.6512 14.0398 40.3422 3.73083 27.6254 3.73083C14.9086 3.73083 4.59961 14.0398 4.59961 26.7566C4.59961 39.4735 14.9086 49.7825 27.6254 49.7825Z" fill="#FFF656"/>
<path d="M27.6254 49.7676C40.334 49.7676 50.6364 39.4652 50.6364 26.7566C50.6364 14.048 40.334 3.74561 27.6254 3.74561C14.9168 3.74561 4.61441 14.048 4.61441 26.7566C4.61441 39.4652 14.9168 49.7676 27.6254 49.7676Z" fill="#FFF655"/>
<path d="M43.8846 43.0164C52.8644 34.0366 52.8644 19.4774 43.8846 10.4975C34.9047 1.51769 20.3455 1.51769 11.3657 10.4975C2.38586 19.4774 2.38586 34.0366 11.3657 43.0164C20.3455 51.9962 34.9047 51.9962 43.8846 43.0164Z" fill="#FFF654"/>
<path d="M43.8741 43.0059C52.8481 34.0319 52.8481 19.4821 43.8741 10.508C34.9 1.53396 20.3502 1.53396 11.3762 10.508C2.40213 19.4821 2.40213 34.0319 11.3762 43.0059C20.3502 51.98 34.9 51.98 43.8741 43.0059Z" fill="#FFF653"/>
<path d="M43.8623 42.9941C52.8298 34.0266 52.8298 19.4873 43.8623 10.5198C34.8947 1.55227 20.3555 1.55227 11.388 10.5198C2.42044 19.4873 2.42044 34.0266 11.388 42.9941C20.3555 51.9616 34.8947 51.9616 43.8623 42.9941Z" fill="#FFF652"/>
<path d="M43.8518 42.9836C52.8135 34.0219 52.8135 19.492 43.8518 10.5303C34.8901 1.56854 20.3602 1.56854 11.3985 10.5303C2.43671 19.492 2.43671 34.0219 11.3985 42.9836C20.3602 51.9454 34.8901 51.9454 43.8518 42.9836Z" fill="#FFF651"/>
<path d="M43.84 42.9718C52.7952 34.0166 52.7952 19.4973 43.84 10.5421C34.8848 1.58685 20.3655 1.58685 11.4103 10.5421C2.45502 19.4973 2.45502 34.0166 11.4103 42.9718C20.3655 51.9271 34.8848 51.9271 43.84 42.9718Z" fill="#FFF650"/>
<path d="M43.8295 42.9614C52.779 34.0119 52.779 19.502 43.8295 10.5526C34.8801 1.60312 20.3702 1.60312 11.4207 10.5526C2.47129 19.502 2.47129 34.0119 11.4207 42.9614C20.3702 51.9108 34.8801 51.9108 43.8295 42.9614Z" fill="#FFF64F"/>
<path d="M43.8177 42.9496C52.7607 34.0066 52.7607 19.5073 43.8177 10.5644C34.8748 1.62143 20.3755 1.62143 11.4325 10.5644C2.4896 19.5073 2.4896 34.0066 11.4325 42.9496C20.3755 51.8925 34.8748 51.8925 43.8177 42.9496Z" fill="#FFF64E"/>
<path d="M27.6254 49.6415C40.2644 49.6415 50.5104 39.3956 50.5104 26.7566C50.5104 14.1175 40.2644 3.87158 27.6254 3.87158C14.9864 3.87158 4.74045 14.1175 4.74045 26.7566C4.74045 39.3956 14.9864 49.6415 27.6254 49.6415Z" fill="#FFF64D"/>
<path d="M27.6254 49.6249C40.2552 49.6249 50.4937 39.3864 50.4937 26.7566C50.4937 14.1268 40.2552 3.88831 27.6254 3.88831C14.9956 3.88831 4.75711 14.1268 4.75711 26.7566C4.75711 39.3864 14.9956 49.6249 27.6254 49.6249Z" fill="#FFF64C"/>
<path d="M27.6254 49.61C40.247 49.61 50.4789 39.3782 50.4789 26.7565C50.4789 14.1349 40.247 3.90308 27.6254 3.90308C15.0038 3.90308 4.77194 14.1349 4.77194 26.7565C4.77194 39.3782 15.0038 49.61 27.6254 49.61Z" fill="#FFF64B"/>
<path d="M27.6254 49.5934C40.2378 49.5934 50.4622 39.369 50.4622 26.7566C50.4622 14.1442 40.2378 3.9198 27.6254 3.9198C15.013 3.9198 4.78864 14.1442 4.78864 26.7566C4.78864 39.369 15.013 49.5934 27.6254 49.5934Z" fill="#FFF64A"/>
<path d="M27.6254 49.5785C40.2296 49.5785 50.4474 39.3608 50.4474 26.7565C50.4474 14.1523 40.2296 3.93457 27.6254 3.93457C15.0212 3.93457 4.80344 14.1523 4.80344 26.7565C4.80344 39.3608 15.0212 49.5785 27.6254 49.5785Z" fill="#FFF649"/>
<path d="M27.6254 49.5619C40.2204 49.5619 50.4307 39.3516 50.4307 26.7566C50.4307 14.1616 40.2204 3.95129 27.6254 3.95129C15.0304 3.95129 4.82013 14.1616 4.82013 26.7566C4.82013 39.3516 15.0304 49.5619 27.6254 49.5619Z" fill="#FFF648"/>
<path d="M43.7404 42.8722C52.6407 33.972 52.6407 19.5419 43.7404 10.6417C34.8402 1.74145 20.4101 1.74144 11.5099 10.6417C2.60962 19.5419 2.60962 33.972 11.5099 42.8722C20.4101 51.7725 34.8402 51.7725 43.7404 42.8722Z" fill="#FFF647"/>
<path d="M43.7286 42.8605C52.6224 33.9667 52.6224 19.5472 43.7286 10.6535C34.8349 1.75975 20.4154 1.75975 11.5216 10.6535C2.62793 19.5472 2.62793 33.9667 11.5216 42.8605C20.4154 51.7542 34.8349 51.7542 43.7286 42.8605Z" fill="#FFF646"/>
<path d="M43.7182 42.85C52.6061 33.962 52.6061 19.5519 43.7182 10.6639C34.8302 1.77602 20.4201 1.77602 11.5321 10.6639C2.6442 19.5519 2.64421 33.962 11.5321 42.85C20.4201 51.7379 34.8302 51.7379 43.7182 42.85Z" fill="#FFF645"/>
<path d="M43.7077 42.8395C52.5898 33.9573 52.5898 19.5566 43.7077 10.6744C34.8255 1.7923 20.4247 1.79229 11.5426 10.6744C2.66048 19.5566 2.66048 33.9574 11.5426 42.8395C20.4247 51.7216 34.8255 51.7216 43.7077 42.8395Z" fill="#FFF544"/>
<path d="M43.6959 42.8277C52.5715 33.9521 52.5715 19.5618 43.6959 10.6862C34.8203 1.8106 20.43 1.8106 11.5544 10.6862C2.67879 19.5618 2.67879 33.9521 11.5544 42.8277C20.43 51.7033 34.8203 51.7033 43.6959 42.8277Z" fill="#FFF543"/>
<path d="M43.6854 42.8172C52.5552 33.9474 52.5552 19.5665 43.6854 10.6967C34.8156 1.82688 20.4347 1.82688 11.5649 10.6967C2.69506 19.5665 2.69506 33.9474 11.5649 42.8172C20.4347 51.687 34.8156 51.687 43.6854 42.8172Z" fill="#FFF542"/>
<path d="M43.6736 42.8054C52.5369 33.9421 52.5369 19.5718 43.6736 10.7085C34.8103 1.84518 20.44 1.84518 11.5767 10.7085C2.71337 19.5718 2.71337 33.9421 11.5767 42.8054C20.44 51.6687 34.8103 51.6687 43.6736 42.8054Z" fill="#FFF541"/>
<path d="M27.6254 49.4377C40.1518 49.4377 50.3065 39.283 50.3065 26.7566C50.3065 14.2301 40.1518 4.07544 27.6254 4.07544C15.099 4.07544 4.94427 14.2301 4.94427 26.7566C4.94427 39.283 15.099 49.4377 27.6254 49.4377Z" fill="#FFF540"/>
<path d="M27.6254 49.421C40.1426 49.421 50.2899 39.2738 50.2899 26.7566C50.2899 14.2394 40.1426 4.09216 27.6254 4.09216C15.1082 4.09216 4.96097 14.2394 4.96097 26.7566C4.96097 39.2738 15.1082 49.421 27.6254 49.421Z" fill="#FFF53F"/>
<path d="M27.6254 49.4062C40.1345 49.4062 50.275 39.2656 50.275 26.7566C50.275 14.2475 40.1345 4.10693 27.6254 4.10693C15.1164 4.10693 4.9758 14.2475 4.9758 26.7566C4.9758 39.2656 15.1164 49.4062 27.6254 49.4062Z" fill="#FFF53E"/>
<path d="M27.6254 49.3895C40.1252 49.3895 50.2583 39.2564 50.2583 26.7566C50.2583 14.2568 40.1252 4.12366 27.6254 4.12366C15.1256 4.12366 4.99246 14.2568 4.99246 26.7566C4.99246 39.2564 15.1256 49.3895 27.6254 49.3895Z" fill="#FFF53D"/>
<path d="M27.6254 49.3747C40.117 49.3747 50.2435 39.2482 50.2435 26.7565C50.2435 14.2649 40.117 4.13843 27.6254 4.13843C15.1338 4.13843 5.00729 14.2649 5.00729 26.7565C5.00729 39.2482 15.1338 49.3747 27.6254 49.3747Z" fill="#FFF53C"/>
<path d="M27.6254 49.358C40.1079 49.358 50.2269 39.239 50.2269 26.7566C50.2269 14.2742 40.1079 4.15515 27.6254 4.15515C15.143 4.15515 5.02399 14.2742 5.02399 26.7566C5.02399 39.239 15.143 49.358 27.6254 49.358Z" fill="#FFF53B"/>
<path d="M43.5963 42.7281C52.4169 33.9075 52.4169 19.6064 43.5963 10.7858C34.7757 1.9652 20.4746 1.96519 11.654 10.7858C2.83339 19.6064 2.83339 33.9075 11.654 42.7281C20.4746 51.5487 34.7757 51.5487 43.5963 42.7281Z" fill="#FFF53A"/>
<path d="M43.5845 42.7163C52.3986 33.9022 52.3986 19.6117 43.5845 10.7976C34.7704 1.9835 20.4799 1.9835 11.6658 10.7976C2.8517 19.6117 2.8517 33.9022 11.6658 42.7163C20.4799 51.5304 34.7704 51.5304 43.5845 42.7163Z" fill="#FFF539"/>
<path d="M43.574 42.7058C52.3823 33.8975 52.3823 19.6164 43.574 10.8081C34.7657 1.99978 20.4846 1.99977 11.6763 10.8081C2.86797 19.6164 2.86797 33.8975 11.6763 42.7058C20.4846 51.5141 34.7657 51.5141 43.574 42.7058Z" fill="#FFF538"/>
<path d="M43.5622 42.694C52.364 33.8922 52.364 19.6217 43.5622 10.8199C34.7604 2.01808 20.4899 2.01808 11.6881 10.8199C2.88628 19.6217 2.88628 33.8922 11.6881 42.694C20.4899 51.4958 34.7604 51.4958 43.5622 42.694Z" fill="#FFF537"/>
<path d="M43.5517 42.6835C52.3478 33.8875 52.3478 19.6264 43.5517 10.8304C34.7557 2.03436 20.4946 2.03435 11.6986 10.8304C2.90255 19.6264 2.90255 33.8875 11.6986 42.6836C20.4946 51.4796 34.7557 51.4796 43.5517 42.6835Z" fill="#FFF536"/>
<path d="M43.5399 42.6718C52.3294 33.8823 52.3294 19.6317 43.5399 10.8422C34.7504 2.05266 20.4998 2.05266 11.7103 10.8422C2.92083 19.6317 2.92083 33.8823 11.7103 42.6718C20.4998 51.4613 34.7504 51.4613 43.5399 42.6718Z" fill="#FFF535"/>
<path d="M27.6254 49.2487C40.0474 49.2487 50.1175 39.1787 50.1175 26.7566C50.1175 14.3346 40.0474 4.26453 27.6254 4.26453C15.2034 4.26453 5.1333 14.3346 5.1333 26.7566C5.1333 39.1787 15.2034 49.2487 27.6254 49.2487Z" fill="#FFF534"/>
<path d="M27.6254 49.232C40.0382 49.232 50.1008 39.1694 50.1008 26.7565C50.1008 14.3437 40.0382 4.28113 27.6254 4.28113C15.2126 4.28113 5.14999 14.3437 5.14999 26.7565C5.14999 39.1694 15.2126 49.232 27.6254 49.232Z" fill="#FFF533"/>
<path d="M27.6254 49.2172C40.0301 49.2172 50.086 39.1613 50.086 26.7566C50.086 14.352 40.0301 4.29602 27.6254 4.29602C15.2208 4.29602 5.16483 14.352 5.16483 26.7566C5.16483 39.1613 15.2208 49.2172 27.6254 49.2172Z" fill="#FFF532"/>
<path d="M27.6254 49.2004C40.0208 49.2004 50.0693 39.152 50.0693 26.7565C50.0693 14.3611 40.0208 4.31262 27.6254 4.31262C15.23 4.31262 5.18149 14.3611 5.18149 26.7565C5.18149 39.152 15.23 49.2004 27.6254 49.2004Z" fill="#FFF431"/>
<path d="M27.6254 49.1857C40.0127 49.1857 50.0545 39.1438 50.0545 26.7566C50.0545 14.3694 40.0127 4.32751 27.6254 4.32751C15.2382 4.32751 5.19632 14.3694 5.19632 26.7566C5.19632 39.1438 15.2382 49.1857 27.6254 49.1857Z" fill="#FFF430"/>
<path d="M27.6254 49.1691C40.0035 49.1691 50.0378 39.1347 50.0378 26.7566C50.0378 14.3786 40.0035 4.34424 27.6254 4.34424C15.2474 4.34424 5.21301 14.3786 5.21301 26.7566C5.21301 39.1347 15.2474 49.1691 27.6254 49.1691Z" fill="#FFF42F"/>
<path d="M27.6254 49.1542C39.9952 49.1542 50.023 39.1264 50.023 26.7566C50.023 14.3867 39.9952 4.35901 27.6254 4.35901C15.2556 4.35901 5.22781 14.3867 5.22781 26.7566C5.22781 39.1264 15.2556 49.1542 27.6254 49.1542Z" fill="#FFF42E"/>
<path d="M43.4508 42.5826C52.1911 33.8424 52.1911 19.6716 43.4508 10.9313C34.7105 2.19098 20.5397 2.19098 11.7994 10.9313C3.05916 19.6716 3.05916 33.8424 11.7994 42.5826C20.5397 51.3229 34.7105 51.3229 43.4508 42.5826Z" fill="#FFF42D"/>
<path d="M43.4403 42.5722C52.1748 33.8377 52.1748 19.6762 43.4403 10.9418C34.7058 2.20726 20.5444 2.20725 11.8099 10.9418C3.07543 19.6762 3.07543 33.8377 11.8099 42.5722C20.5444 51.3067 34.7058 51.3067 43.4403 42.5722Z" fill="#FFF42C"/>
<path d="M43.4285 42.5604C52.1565 33.8324 52.1565 19.6815 43.4285 10.9535C34.7006 2.22556 20.5497 2.22556 11.8217 10.9535C3.09374 19.6815 3.09374 33.8324 11.8217 42.5604C20.5497 51.2884 34.7006 51.2884 43.4285 42.5604Z" fill="#FFF42B"/>
<path d="M43.4181 42.5499C52.1403 33.8277 52.1403 19.6862 43.4181 10.964C34.6959 2.24184 20.5544 2.24183 11.8322 10.964C3.11001 19.6862 3.11001 33.8277 11.8322 42.5499C20.5544 51.2721 34.6959 51.2721 43.4181 42.5499Z" fill="#FFF42A"/>
<path d="M43.4063 42.5381C52.122 33.8224 52.122 19.6915 43.4063 10.9758C34.6906 2.26014 20.5597 2.26014 11.844 10.9758C3.12832 19.6915 3.12832 33.8224 11.844 42.5381C20.5597 51.2538 34.6906 51.2538 43.4063 42.5381Z" fill="#FFF429"/>
<path d="M43.3958 42.5276C52.1057 33.8177 52.1057 19.6962 43.3958 10.9863C34.6859 2.27641 20.5644 2.27642 11.8545 10.9863C3.14459 19.6962 3.14459 33.8177 11.8545 42.5276C20.5644 51.2375 34.6859 51.2375 43.3958 42.5276Z" fill="#FFF428"/>
<path d="M27.6254 49.043C39.9338 49.043 49.9118 39.065 49.9118 26.7566C49.9118 14.4482 39.9338 4.47021 27.6254 4.47021C15.317 4.47021 5.33902 14.4482 5.33902 26.7566C5.33902 39.065 15.317 49.043 27.6254 49.043Z" fill="#FFF427"/>
<path d="M27.6254 49.0281C39.9257 49.0281 49.897 39.0568 49.897 26.7566C49.897 14.4563 39.9257 4.48499 27.6254 4.48499C15.3252 4.48499 5.35385 14.4563 5.35385 26.7566C5.35385 39.0568 15.3252 49.0281 27.6254 49.0281Z" fill="#FFF426"/>
<path d="M27.6254 49.0115C39.9164 49.0115 49.8803 39.0476 49.8803 26.7566C49.8803 14.4656 39.9164 4.50171 27.6254 4.50171C15.3344 4.50171 5.37051 14.4656 5.37051 26.7566C5.37051 39.0476 15.3344 49.0115 27.6254 49.0115Z" fill="#FFF425"/>
<path d="M27.6254 48.9966C39.9083 48.9966 49.8655 39.0394 49.8655 26.7565C49.8655 14.4737 39.9083 4.51648 27.6254 4.51648C15.3426 4.51648 5.38535 14.4737 5.38535 26.7565C5.38535 39.0394 15.3426 48.9966 27.6254 48.9966Z" fill="#FFF424"/>
<path d="M27.6254 48.98C39.8991 48.98 49.8488 39.0302 49.8488 26.7566C49.8488 14.483 39.8991 4.5332 27.6254 4.5332C15.3518 4.5332 5.40204 14.483 5.40204 26.7566C5.40204 39.0302 15.3518 48.98 27.6254 48.98Z" fill="#FFF423"/>
<path d="M27.6254 48.9651C39.8909 48.9651 49.834 39.022 49.834 26.7565C49.834 14.4911 39.8909 4.54797 27.6254 4.54797C15.36 4.54797 5.41684 14.4911 5.41684 26.7565C5.41684 39.022 15.36 48.9651 27.6254 48.9651Z" fill="#FFF422"/>
<path d="M27.6254 48.9485C39.8817 48.9485 49.8173 39.0128 49.8173 26.7566C49.8173 14.5003 39.8817 4.5647 27.6254 4.5647C15.3692 4.5647 5.43353 14.5003 5.43353 26.7566C5.43353 39.0128 15.3692 48.9485 27.6254 48.9485Z" fill="#FFF421"/>
<path d="M43.3067 42.4385C51.9674 33.7778 51.9674 19.7361 43.3067 11.0754C34.646 2.41473 20.6043 2.41473 11.9436 11.0754C3.28292 19.7361 3.28292 33.7778 11.9436 42.4385C20.6043 51.0992 34.646 51.0992 43.3067 42.4385Z" fill="#FFF420"/>
<path d="M43.2949 42.4267C51.9491 33.7725 51.9491 19.7414 43.2949 11.0872C34.6407 2.43304 20.6096 2.43304 11.9554 11.0872C3.30123 19.7414 3.30123 33.7725 11.9554 42.4267C20.6096 51.0809 34.6407 51.0809 43.2949 42.4267Z" fill="#FFF41F"/>
<path d="M43.2844 42.4162C51.9328 33.7679 51.9328 19.7461 43.2844 11.0977C34.636 2.44931 20.6143 2.44931 11.9659 11.0977C3.31751 19.7461 3.31751 33.7679 11.9659 42.4162C20.6143 51.0646 34.636 51.0646 43.2844 42.4162Z" fill="#FFF41E"/>
<path d="M43.2726 42.4044C51.9145 33.7626 51.9145 19.7513 43.2726 11.1095C34.6308 2.46762 20.6195 2.46762 11.9777 11.1095C3.33581 19.7513 3.33581 33.7626 11.9777 42.4044C20.6195 51.0463 34.6308 51.0463 43.2726 42.4044Z" fill="#FFF31D"/>
<path d="M43.2621 42.3939C51.8982 33.7579 51.8982 19.756 43.2621 11.12C34.6261 2.4839 20.6242 2.48389 11.9882 11.12C3.35209 19.756 3.35209 33.7579 11.9882 42.394C20.6242 51.03 34.6261 51.03 43.2621 42.3939Z" fill="#FFF31C"/>
<path d="M43.2504 42.3822C51.8799 33.7526 51.8799 19.7613 43.2504 11.1318C34.6208 2.5022 20.6295 2.5022 12 11.1318C3.3704 19.7613 3.3704 33.7526 12 42.3822C20.6295 51.0117 34.6208 51.0117 43.2504 42.3822Z" fill="#FFF31B"/>
<path d="M27.6254 48.8392C39.8213 48.8392 49.708 38.9525 49.708 26.7566C49.708 14.5608 39.8213 4.67407 27.6254 4.67407C15.4296 4.67407 5.54288 14.5608 5.54288 26.7566C5.54288 38.9525 15.4296 48.8392 27.6254 48.8392Z" fill="#FFF31A"/>
<path d="M27.6254 48.8224C39.812 48.8224 49.6913 38.9432 49.6913 26.7565C49.6913 14.5699 39.812 4.69067 27.6254 4.69067C15.4388 4.69067 5.55954 14.5699 5.55954 26.7565C5.55954 38.9432 15.4388 48.8224 27.6254 48.8224Z" fill="#FFF319"/>
<path d="M27.6254 48.8076C39.8039 48.8076 49.6764 38.9351 49.6764 26.7566C49.6764 14.5782 39.8039 4.70557 27.6254 4.70557C15.447 4.70557 5.57437 14.5782 5.57437 26.7566C5.57437 38.9351 15.447 48.8076 27.6254 48.8076Z" fill="#FFF318"/>
<path d="M27.6254 48.791C39.7947 48.791 49.6598 38.9259 49.6598 26.7567C49.6598 14.5874 39.7947 4.72229 27.6254 4.72229C15.4562 4.72229 5.59106 14.5874 5.59106 26.7567C5.59106 38.9259 15.4562 48.791 27.6254 48.791Z" fill="#FFF317"/>
<path d="M27.6254 48.7761C39.7865 48.7761 49.6449 38.9176 49.6449 26.7566C49.6449 14.5955 39.7865 4.73706 27.6254 4.73706C15.4643 4.73706 5.60587 14.5955 5.60587 26.7566C5.60587 38.9176 15.4643 48.7761 27.6254 48.7761Z" fill="#FFF316"/>
<path d="M27.6254 48.7612C39.7783 48.7612 49.6301 38.9094 49.6301 26.7565C49.6301 14.6037 39.7783 4.75183 27.6254 4.75183C15.4725 4.75183 5.6207 14.6037 5.6207 26.7565C5.6207 38.9094 15.4725 48.7612 27.6254 48.7612Z" fill="#FFF315"/>
<path d="M43.173 42.3048C51.7599 33.718 51.7599 19.7959 43.173 11.2091C34.5862 2.62222 20.6641 2.62221 12.0772 11.2091C3.49038 19.7959 3.49038 33.718 12.0772 42.3048C20.6641 50.8917 34.5862 50.8917 43.173 42.3048Z" fill="#FFF314"/>
<path d="M43.1625 42.2944C51.7436 33.7133 51.7436 19.8006 43.1625 11.2196C34.5815 2.63849 20.6688 2.63848 12.0877 11.2196C3.50666 19.8006 3.50666 33.7133 12.0877 42.2944C20.6688 50.8754 34.5815 50.8754 43.1625 42.2944Z" fill="#FFF313"/>
<path d="M43.1507 42.2826C51.7253 33.708 51.7253 19.8059 43.1507 11.2314C34.5762 2.65679 20.6741 2.65679 12.0995 11.2313C3.52497 19.8059 3.52497 33.708 12.0995 42.2826C20.6741 50.8571 34.5762 50.8571 43.1507 42.2826Z" fill="#FFF312"/>
<path d="M43.1403 42.2721C51.709 33.7033 51.709 19.8106 43.1403 11.2418C34.5715 2.67307 20.6788 2.67307 12.11 11.2418C3.54124 19.8106 3.54124 33.7033 12.11 42.2721C20.6788 50.8409 34.5715 50.8408 43.1403 42.2721Z" fill="#FFF311"/>
<path d="M43.1285 42.2603C51.6907 33.698 51.6907 19.8159 43.1285 11.2536C34.5662 2.69137 20.6841 2.69137 12.1218 11.2536C3.55955 19.8159 3.55955 33.698 12.1218 42.2603C20.6841 50.8225 34.5662 50.8225 43.1285 42.2603Z" fill="#FFF310"/>
<path d="M43.118 42.2498C51.6744 33.6933 51.6744 19.8206 43.118 11.2641C34.5615 2.70765 20.6887 2.70764 12.1323 11.2641C3.57582 19.8206 3.57582 33.6933 12.1323 42.2498C20.6887 50.8063 34.5615 50.8063 43.118 42.2498Z" fill="#FFF30F"/>
<path d="M43.1062 42.238C51.6561 33.6881 51.6561 19.8259 43.1062 11.2759C34.5562 2.72595 20.694 2.72595 12.1441 11.2759C3.59413 19.8259 3.59413 33.6881 12.1441 42.238C20.694 50.788 34.5562 50.788 43.1062 42.238Z" fill="#FFF30E"/>
<path d="M27.6254 48.6353C39.7087 48.6353 49.5041 38.8399 49.5041 26.7566C49.5041 14.6734 39.7087 4.87793 27.6254 4.87793C15.5421 4.87793 5.7467 14.6734 5.7467 26.7566C5.7467 38.8399 15.5421 48.6353 27.6254 48.6353Z" fill="#FFF30D"/>
<path d="M27.6254 48.6186C39.6995 48.6186 49.4874 38.8306 49.4874 26.7565C49.4874 14.6825 39.6995 4.89453 27.6254 4.89453C15.5514 4.89453 5.7634 14.6825 5.7634 26.7565C5.7634 38.8306 15.5514 48.6186 27.6254 48.6186Z" fill="#FFF30C"/>
<path d="M27.6254 48.6038C39.6913 48.6038 49.4726 38.8225 49.4726 26.7566C49.4726 14.6907 39.6913 4.90942 27.6254 4.90942C15.5596 4.90942 5.77823 14.6907 5.77823 26.7566C5.77823 38.8225 15.5596 48.6038 27.6254 48.6038Z" fill="#FFF30B"/>
<path d="M27.6254 48.587C39.6821 48.587 49.4559 38.8132 49.4559 26.7565C49.4559 14.6999 39.6821 4.92603 27.6254 4.92603C15.5687 4.92603 5.79489 14.6999 5.79489 26.7565C5.79489 38.8132 15.5687 48.587 27.6254 48.587Z" fill="#FFF30A"/>
<path d="M27.6254 48.5723C39.6739 48.5723 49.4411 38.8051 49.4411 26.7566C49.4411 14.7081 39.6739 4.94092 27.6254 4.94092C15.5769 4.94092 5.80972 14.7081 5.80972 26.7566C5.80972 38.8051 15.5769 48.5723 27.6254 48.5723Z" fill="#FFF209"/>
<path d="M27.6254 48.5557C39.6647 48.5557 49.4244 38.7959 49.4244 26.7566C49.4244 14.7174 39.6647 4.95764 27.6254 4.95764C15.5862 4.95764 5.82642 14.7174 5.82642 26.7566C5.82642 38.7959 15.5862 48.5557 27.6254 48.5557Z" fill="#FFF208"/>
<path d="M43.0289 42.1607C51.5361 33.6534 51.5361 19.8605 43.0289 11.3532C34.5216 2.84597 20.7287 2.84596 12.2214 11.3532C3.71415 19.8605 3.71415 33.6534 12.2214 42.1607C20.7287 50.668 34.5216 50.6679 43.0289 42.1607Z" fill="#FFF207"/>
<path d="M43.0171 42.1489C51.5178 33.6482 51.5178 19.8658 43.0171 11.365C34.5164 2.86427 20.7339 2.86427 12.2332 11.365C3.73246 19.8657 3.73246 33.6482 12.2332 42.1489C20.7339 50.6496 34.5164 50.6496 43.0171 42.1489Z" fill="#FFF206"/>
<path d="M43.0066 42.1384C51.5016 33.6435 51.5016 19.8704 43.0066 11.3755C34.5117 2.88055 20.7386 2.88055 12.2437 11.3755C3.74873 19.8704 3.74873 33.6435 12.2437 42.1384C20.7386 50.6334 34.5117 50.6334 43.0066 42.1384Z" fill="#FFF205"/>
<path d="M42.9948 42.1266C51.4833 33.6382 51.4833 19.8757 42.9948 11.3873C34.5064 2.89885 20.7439 2.89885 12.2555 11.3873C3.76704 19.8757 3.76704 33.6382 12.2555 42.1266C20.7439 50.6151 34.5064 50.6151 42.9948 42.1266Z" fill="#FFF204"/>
<path d="M42.9843 42.1161C51.467 33.6335 51.467 19.8804 42.9843 11.3978C34.5017 2.91513 20.7486 2.91512 12.266 11.3978C3.78331 19.8804 3.78331 33.6335 12.266 42.1161C20.7486 50.5988 34.5017 50.5988 42.9843 42.1161Z" fill="#FFF203"/>
<path d="M42.9725 42.1044C51.4487 33.6282 51.4487 19.8857 42.9725 11.4096C34.4964 2.93343 20.7539 2.93343 12.2778 11.4096C3.80162 19.8857 3.80162 33.6282 12.2778 42.1044C20.7539 50.5805 34.4964 50.5805 42.9725 42.1044Z" fill="#FFF202"/>
<path d="M42.9621 42.0939C51.4324 33.6235 51.4324 19.8904 42.9621 11.4201C34.4917 2.94971 20.7586 2.9497 12.2882 11.42C3.81789 19.8904 3.81789 33.6235 12.2882 42.0939C20.7586 50.5642 34.4917 50.5642 42.9621 42.0939Z" fill="#FFF201"/>
<path d="M27.6254 48.4296C39.5951 48.4296 49.2984 38.7263 49.2984 26.7566C49.2984 14.7869 39.5951 5.08362 27.6254 5.08362C15.6558 5.08362 5.95242 14.7869 5.95242 26.7566C5.95242 38.7263 15.6558 48.4296 27.6254 48.4296Z" fill="#FFF200"/>
</g>
<path opacity="0.7" d="M28.8096 32.2828C28.9282 32.2828 29.0468 32.2846 29.1636 32.2883C30.9204 23.0891 39.0077 16.136 48.7202 16.136C56.4925 16.136 63.2251 20.5892 66.5052 27.0846C66.7665 27.0698 67.0315 27.0624 67.2965 27.0624C75.2763 27.0624 81.744 33.53 81.744 41.5098C81.744 49.4896 75.2763 55.9572 67.2965 55.9572H28.8096C22.2716 55.9572 16.9715 50.6571 16.9715 44.1191C16.9715 37.581 22.2716 32.2809 28.8096 32.2809V32.2828Z" fill="url(#paint1_linear_372_3250)"/>
<path style="mix-blend-mode:overlay" opacity="0.7" d="M28.8096 32.2828C28.9282 32.2828 29.0468 32.2846 29.1636 32.2883C30.9204 23.0891 39.0077 16.136 48.7202 16.136C56.4925 16.136 63.2251 20.5892 66.5052 27.0846C66.7665 27.0698 67.0315 27.0624 67.2965 27.0624C75.2763 27.0624 81.744 33.53 81.744 41.5098C81.744 49.4896 75.2763 55.9572 67.2965 55.9572H28.8096C22.2716 55.9572 16.9715 50.6571 16.9715 44.1191C16.9715 37.581 22.2716 32.2809 28.8096 32.2809V32.2828Z" fill="url(#paint2_linear_372_3250)"/>
<g style="mix-blend-mode:overlay" opacity="0.7">
<path d="M48.7202 17.0626C52.3006 17.0626 55.7883 18.0652 58.8034 19.9592C61.7388 21.8031 64.1165 24.4124 65.6769 27.5016L65.9493 28.0409L66.5534 28.0075C66.8054 27.9946 67.0538 27.9871 67.2947 27.9871C74.75 27.9871 80.8155 34.0526 80.8155 41.508C80.8155 48.9633 74.75 55.0288 67.2947 55.0288H28.8096C22.7942 55.0288 17.8981 50.1346 17.8981 44.1173C17.8981 38.1 22.7923 33.2057 28.8096 33.2057C28.9189 33.2057 29.0283 33.2076 29.1358 33.2113L29.9252 33.2354L30.0735 32.4589C31.7784 23.5358 39.6192 17.0589 48.7202 17.0589M48.7202 16.1323C39.0077 16.1323 30.9204 23.0855 29.1636 32.2847C29.045 32.281 28.9282 32.2791 28.8096 32.2791C22.2716 32.2791 16.9715 37.5792 16.9715 44.1173C16.9715 50.6553 22.2716 55.9554 28.8096 55.9554H67.2965C75.2763 55.9554 81.744 49.4878 81.744 41.508C81.744 33.5282 75.2763 27.0606 67.2965 27.0606C67.0315 27.0606 66.7665 27.068 66.5052 27.0828C63.2251 20.5874 56.4943 16.1342 48.7202 16.1342V16.1323Z" fill="white"/>
</g>
<path opacity="0.7" d="M50.4585 77.9249C49.2891 81.1383 45.7347 82.7969 42.5213 81.6257C39.3079 80.4563 37.6493 76.9019 38.8205 73.6885C39.9917 70.4751 48.9241 64.0371 48.9241 64.0371C48.9241 64.0371 51.6297 74.7096 50.4603 77.9249H50.4585Z" fill="url(#paint3_linear_372_3250)"/>
<g style="mix-blend-mode:overlay" opacity="0.7">
<path d="M48.8184 64.3206C49.2076 65.9217 51.3425 75.0042 50.301 77.8674C49.7506 79.3796 48.6442 80.5879 47.1858 81.268C45.7273 81.9481 44.091 82.0204 42.5788 81.47C41.0666 80.9196 39.8583 79.8132 39.1782 78.3548C38.498 76.8963 38.4258 75.2599 38.9762 73.7478C40.0177 70.8846 47.4915 65.2972 48.8184 64.3225M48.9204 64.0408C48.9204 64.0408 39.9862 70.4769 38.8168 73.6922C37.6474 76.9074 39.3042 80.46 42.5176 81.6293C45.731 82.7987 49.2854 81.142 50.4548 77.9285C51.6242 74.7151 48.9185 64.0408 48.9185 64.0408H48.9204Z" fill="white"/>
</g>
<path opacity="0.7" d="M35.6052 70.262C34.7731 72.5506 32.2435 73.7293 29.9549 72.8972C27.6662 72.0651 26.4876 69.5355 27.3196 67.2468C28.1517 64.9581 34.5118 60.3771 34.5118 60.3771C34.5118 60.3771 36.4373 67.9751 35.6052 70.262Z" fill="url(#paint4_linear_372_3250)"/>
<g style="mix-blend-mode:overlay" opacity="0.7">
<path d="M34.4377 60.5772C34.7157 61.7169 36.2335 68.1827 35.4922 70.2212C35.1012 71.2979 34.3136 72.1578 33.2739 72.6415C32.2361 73.1252 31.0705 73.177 29.9938 72.7842C28.9171 72.3931 28.0572 71.6055 27.5735 70.5659C27.0898 69.5281 27.038 68.3625 27.4308 67.2858C28.1721 65.2473 33.4926 61.2703 34.4377 60.5772ZM34.51 60.3752C34.51 60.3752 28.1517 64.9563 27.3178 67.245C26.4839 69.5337 27.6643 72.0633 29.953 72.8954C32.2417 73.7274 34.7713 72.5488 35.6034 70.2601C36.4354 67.9714 34.51 60.3752 34.51 60.3752Z" fill="white"/>
</g>
<path opacity="0.7" d="M64.5835 70.262C63.7514 72.5506 61.2218 73.7293 58.9331 72.8972C56.6444 72.0651 55.4658 69.5355 56.2979 67.2468C57.13 64.9581 63.4901 60.3771 63.4901 60.3771C63.4901 60.3771 65.4156 67.9751 64.5835 70.262Z" fill="url(#paint5_linear_372_3250)"/>
<g style="mix-blend-mode:overlay" opacity="0.7">
<path d="M63.416 60.5772C63.6939 61.7169 65.2117 68.1827 64.4704 70.2212C64.0794 71.2979 63.2918 72.1578 62.2522 72.6415C61.2144 73.1252 60.0487 73.177 58.972 72.7842C57.8953 72.3931 57.0355 71.6055 56.5518 70.5659C56.0681 69.5281 56.0162 68.3625 56.4091 67.2858C57.1504 65.2473 62.4708 61.2703 63.416 60.5772ZM63.4882 60.3752C63.4882 60.3752 57.13 64.9563 56.296 67.245C55.464 69.5337 56.6426 72.0633 58.9313 72.8954C61.2199 73.7274 63.7495 72.5488 64.5816 70.2601C65.4137 67.9714 63.4882 60.3752 63.4882 60.3752Z" fill="white"/>
</g>
</g>
<defs>
<radialGradient id="paint0_radial_372_3250" cx="0" cy="0" r="1" gradientUnits="userSpaceOnUse" gradientTransform="translate(11.7307 6.66624) scale(22.2438)">
<stop stop-color="white"/>
<stop offset="0.11" stop-color="#FFFEFA"/>
<stop offset="0.24" stop-color="#FFFEED"/>
<stop offset="0.37" stop-color="#FFFCD7"/>
<stop offset="0.5" stop-color="#FFFBB8"/>
<stop offset="0.64" stop-color="#FFF990"/>
<stop offset="0.78" stop-color="#FFF65F"/>
<stop offset="0.91" stop-color="#FFF427"/>
<stop offset="1" stop-color="#FFF200"/>
</radialGradient>
<linearGradient id="paint1_linear_372_3250" x1="49.3577" y1="17.2294" x2="49.3577" y2="49.0374" gradientUnits="userSpaceOnUse">
<stop stop-color="#96FFFF"/>
<stop offset="0.28" stop-color="#93FDFD"/>
<stop offset="0.45" stop-color="#8AF8F8"/>
<stop offset="0.6" stop-color="#7CEEF1"/>
<stop offset="0.73" stop-color="#67E2E5"/>
<stop offset="0.85" stop-color="#4CD1D7"/>
<stop offset="0.96" stop-color="#2CBDC5"/>
<stop offset="1" stop-color="#1EB4BE"/>
</linearGradient>
<linearGradient id="paint2_linear_372_3250" x1="49.3577" y1="17.2294" x2="49.3577" y2="49.0374" gradientUnits="userSpaceOnUse">
<stop stop-color="#96FFFF"/>
<stop offset="0.28" stop-color="#93FDFD"/>
<stop offset="0.45" stop-color="#8AF8F8"/>
<stop offset="0.6" stop-color="#7CEEF1"/>
<stop offset="0.73" stop-color="#67E2E5"/>
<stop offset="0.85" stop-color="#4CD1D7"/>
<stop offset="0.96" stop-color="#2CBDC5"/>
<stop offset="1" stop-color="#1EB4BE"/>
</linearGradient>
<linearGradient id="paint3_linear_372_3250" x1="48.6823" y1="64.688" x2="42.7756" y2="80.9163" gradientUnits="userSpaceOnUse">
<stop stop-color="#96FFFF"/>
<stop offset="0.28" stop-color="#93FDFD"/>
<stop offset="0.45" stop-color="#8AF8F8"/>
<stop offset="0.6" stop-color="#7CEEF1"/>
<stop offset="0.73" stop-color="#67E2E5"/>
<stop offset="0.85" stop-color="#4CD1D7"/>
<stop offset="0.96" stop-color="#2CBDC5"/>
<stop offset="1" stop-color="#1EB4BE"/>
</linearGradient>
<linearGradient id="paint4_linear_372_3250" x1="34.3411" y1="60.8408" x2="30.1369" y2="72.3917" gradientUnits="userSpaceOnUse">
<stop stop-color="#96FFFF"/>
<stop offset="0.28" stop-color="#93FDFD"/>
<stop offset="0.45" stop-color="#8AF8F8"/>
<stop offset="0.6" stop-color="#7CEEF1"/>
<stop offset="0.73" stop-color="#67E2E5"/>
<stop offset="0.85" stop-color="#4CD1D7"/>
<stop offset="0.96" stop-color="#2CBDC5"/>
<stop offset="1" stop-color="#1EB4BE"/>
</linearGradient>
<linearGradient id="paint5_linear_372_3250" x1="63.3175" y1="60.8405" x2="59.1134" y2="72.3913" gradientUnits="userSpaceOnUse">
<stop stop-color="#96FFFF"/>
<stop offset="0.28" stop-color="#93FDFD"/>
<stop offset="0.45" stop-color="#8AF8F8"/>
<stop offset="0.6" stop-color="#7CEEF1"/>
<stop offset="0.73" stop-color="#67E2E5"/>
<stop offset="0.85" stop-color="#4CD1D7"/>
<stop offset="0.96" stop-color="#2CBDC5"/>
<stop offset="1" stop-color="#1EB4BE"/>
</linearGradient>
<clipPath id="clip0_372_3250">
<rect width="88.736" height="85" fill="white" transform="translate(0 -3)"/>
</clipPath>
</defs>
</svg>
