<svg width="64" height="66" viewBox="0 0 64 66" fill="none" xmlns="http://www.w3.org/2000/svg">
<path d="M20.6891 25.1134C20.7743 25.1134 20.8594 25.1147 20.9433 25.1173C22.2049 18.5696 28.0126 13.6205 34.9875 13.6205C40.569 13.6205 45.4039 16.7902 47.7595 21.4134C47.9471 21.4029 48.1375 21.3976 48.3278 21.3976C54.0583 21.3976 58.7029 26.0011 58.7029 31.6809C58.7029 37.3607 54.0583 41.9642 48.3278 41.9642H20.6891C15.9939 41.9642 12.1877 38.1917 12.1877 33.5381C12.1877 28.8845 15.9939 25.112 20.6891 25.112V25.1134Z" fill="#27AAE1"/>
<path opacity="0.7" d="M20.6891 25.1134C20.7743 25.1134 20.8594 25.1147 20.9433 25.1173C22.2049 18.5696 28.0126 13.6205 34.9875 13.6205C40.569 13.6205 45.4039 16.7902 47.7595 21.4134C47.9471 21.4029 48.1375 21.3976 48.3278 21.3976C54.0583 21.3976 58.7029 26.0011 58.7029 31.6809C58.7029 37.3607 54.0583 41.9642 48.3278 41.9642H20.6891C15.9939 41.9642 12.1877 38.1917 12.1877 33.5381C12.1877 28.8845 15.9939 25.112 20.6891 25.112V25.1134Z" fill="url(#paint0_linear_372_2876)"/>
<path style="mix-blend-mode:overlay" opacity="0.7" d="M20.6891 25.1134C20.7743 25.1134 20.8594 25.1147 20.9433 25.1173C22.2049 18.5696 28.0126 13.6205 34.9875 13.6205C40.569 13.6205 45.4039 16.7902 47.7595 21.4134C47.9471 21.4029 48.1375 21.3976 48.3278 21.3976C54.0583 21.3976 58.7029 26.0011 58.7029 31.6809C58.7029 37.3607 54.0583 41.9642 48.3278 41.9642H20.6891C15.9939 41.9642 12.1877 38.1917 12.1877 33.5381C12.1877 28.8845 15.9939 25.112 20.6891 25.112V25.1134Z" fill="url(#paint1_linear_372_2876)"/>
<g style="mix-blend-mode:overlay" opacity="0.7">
<path d="M34.9875 14.2801C37.5587 14.2801 40.0633 14.9937 42.2286 16.3418C44.3366 17.6542 46.0441 19.5114 47.1646 21.7103L47.3602 22.0941L47.7941 22.0704C47.9751 22.0612 48.1534 22.0559 48.3264 22.0559C53.6804 22.0559 58.0362 26.3731 58.0362 31.6797C58.0362 36.9862 53.6804 41.3035 48.3264 41.3035H20.6891C16.3692 41.3035 12.8532 37.8199 12.8532 33.5369C12.8532 29.2539 16.3679 25.7703 20.6891 25.7703C20.7676 25.7703 20.8461 25.7716 20.9233 25.7743L21.4902 25.7914L21.5967 25.2388C22.8211 18.8875 28.4518 14.2774 34.9875 14.2774M34.9875 13.6179C28.0126 13.6179 22.2049 18.567 20.9433 25.1148C20.8581 25.1121 20.7743 25.1108 20.6891 25.1108C15.9939 25.1108 12.1877 28.8833 12.1877 33.5369C12.1877 38.1905 15.9939 41.963 20.6891 41.963H48.3278C54.0583 41.963 58.7029 37.3595 58.7029 31.6797C58.7029 25.9998 54.0583 21.3964 48.3278 21.3964C48.1375 21.3964 47.9471 21.4016 47.7595 21.4122C45.4039 16.7889 40.5704 13.6192 34.9875 13.6192V13.6179Z" fill="white"/>
</g>
<path opacity="0.7" d="M22.8357 52.1459C22.2382 53.7749 20.4216 54.6139 18.778 54.0216C17.1345 53.4294 16.2881 51.6289 16.8856 49.9998C17.4831 48.3708 22.0505 45.1101 22.0505 45.1101C22.0505 45.1101 23.4333 50.5182 22.8357 52.1459V52.1459Z" fill="url(#paint2_linear_372_2876)"/>
<g style="mix-blend-mode:overlay" opacity="0.7">
<path d="M21.9973 45.2527C22.1969 46.0639 23.2869 50.666 22.7546 52.117C22.4738 52.8834 21.9081 53.4954 21.1616 53.8397C20.4163 54.184 19.5792 54.2209 18.806 53.9412C18.0328 53.6616 17.4153 53.1023 17.0679 52.3623C16.7206 51.6237 16.6833 50.794 16.9654 50.0276C17.4978 48.5767 21.3186 45.746 21.9973 45.2527M22.0505 45.1089C22.0505 45.1089 17.4845 48.3696 16.8856 49.9986C16.2881 51.6276 17.1345 53.4281 18.778 54.0204C20.4216 54.6126 22.2382 53.7737 22.8357 52.1447C23.4333 50.5157 22.0505 45.1089 22.0505 45.1089Z" fill="white"/>
</g>
<path opacity="0.7" d="M50.4864 52.1459C49.8888 53.7749 48.0722 54.6139 46.4287 54.0216C44.7851 53.4294 43.9387 51.6289 44.5362 49.9998C45.1338 48.3708 49.7012 45.1101 49.7012 45.1101C49.7012 45.1101 51.0839 50.5182 50.4864 52.1459V52.1459Z" fill="url(#paint3_linear_372_2876)"/>
<g style="mix-blend-mode:overlay" opacity="0.7">
<path d="M49.648 45.2527C49.8476 46.0639 50.9376 50.666 50.4052 52.117C50.1244 52.8834 49.5588 53.4954 48.8122 53.8397C48.067 54.184 47.2299 54.2209 46.4567 53.9412C45.6834 53.6629 45.0659 53.1023 44.7186 52.3623C44.3713 51.6237 44.334 50.794 44.6161 50.0276C45.1485 48.5767 48.9693 45.746 49.648 45.2527ZM49.7012 45.1089C49.7012 45.1089 45.1351 48.3696 44.5363 49.9986C43.9374 51.6276 44.7851 53.4281 46.4287 54.0204C48.0723 54.6126 49.8889 53.7737 50.4864 52.1447C51.084 50.5157 49.7012 45.1089 49.7012 45.1089V45.1089Z" fill="white"/>
</g>
<path d="M29.3102 44.9769H39.2755L35.1619 51.4099H41.5605L28.4878 66L31.4129 55.4884H25.2871L29.3102 44.9769Z" fill="url(#paint4_radial_372_2876)"/>
<g opacity="0.8">
<path d="M6.4878 16.0753C6.55301 16.0753 6.61689 16.0753 6.6821 16.0779C7.64562 11.08 12.0786 7.30225 17.4019 7.30225C21.6619 7.30225 25.3523 9.72138 27.1503 13.2498C27.294 13.2419 27.4391 13.238 27.5841 13.238C31.9572 13.238 35.5026 16.7519 35.5026 21.0863C35.5026 25.4207 31.9572 28.9347 27.5841 28.9347H6.4878C2.90387 28.9347 0 26.0552 0 22.5043C0 18.9534 2.9052 16.0739 6.4878 16.0739V16.0753Z" fill="#27AAE1"/>
<path opacity="0.7" d="M6.4878 16.0753C6.55301 16.0753 6.61689 16.0753 6.6821 16.0779C7.64562 11.08 12.0786 7.30225 17.4019 7.30225C21.6619 7.30225 25.3523 9.72138 27.1503 13.2498C27.294 13.2419 27.4391 13.238 27.5841 13.238C31.9572 13.238 35.5026 16.7519 35.5026 21.0863C35.5026 25.4207 31.9572 28.9347 27.5841 28.9347H6.4878C2.90387 28.9347 0 26.0552 0 22.5043C0 18.9534 2.9052 16.0739 6.4878 16.0739V16.0753Z" fill="url(#paint5_linear_372_2876)"/>
<path style="mix-blend-mode:overlay" opacity="0.7" d="M6.4878 16.0753C6.55301 16.0753 6.61689 16.0753 6.6821 16.0779C7.64562 11.08 12.0786 7.30225 17.4019 7.30225C21.6619 7.30225 25.3523 9.72138 27.1503 13.2498C27.294 13.2419 27.4391 13.238 27.5841 13.238C31.9572 13.238 35.5026 16.7519 35.5026 21.0863C35.5026 25.4207 31.9572 28.9347 27.5841 28.9347H6.4878C2.90387 28.9347 0 26.0552 0 22.5043C0 18.9534 2.9052 16.0739 6.4878 16.0739V16.0753Z" fill="url(#paint6_linear_372_2876)"/>
<g style="mix-blend-mode:overlay" opacity="0.7">
<path d="M17.4019 7.96309C19.3343 7.96309 21.2174 8.49863 22.845 9.51297C24.43 10.4996 25.713 11.8952 26.5554 13.5493L26.751 13.9331L27.1849 13.9094C27.3206 13.9028 27.4537 13.8988 27.5828 13.8988C31.5819 13.8988 34.8358 17.1239 34.8358 21.0876C34.8358 25.0514 31.5819 28.2765 27.5828 28.2765H6.4878C3.2765 28.2765 0.665415 25.6872 0.665415 22.5056C0.665415 19.3241 3.27783 16.7348 6.4878 16.7348C6.54635 16.7348 6.60491 16.7348 6.66214 16.7374L7.22907 16.7532L7.33554 16.2019C8.25514 11.4269 12.4885 7.96177 17.4019 7.96177M17.4019 7.30225C12.0786 7.30225 7.64562 11.08 6.6821 16.0779C6.61822 16.0766 6.55301 16.0753 6.4878 16.0753C2.9052 16.0753 0 18.9547 0 22.5069C0 26.0591 2.9052 28.9373 6.4878 28.9373H27.5828C31.9559 28.9373 35.5012 25.4234 35.5012 21.089C35.5012 16.7546 31.9559 13.2406 27.5828 13.2406C27.4377 13.2406 27.2927 13.2446 27.1489 13.2525C25.351 9.72402 21.6619 7.30488 17.4006 7.30488L17.4019 7.30225Z" fill="white"/>
</g>
</g>
<defs>
<linearGradient id="paint0_linear_372_2876" x1="35.4453" y1="14.3987" x2="35.4453" y2="37.0389" gradientUnits="userSpaceOnUse">
<stop stop-color="#96FFFF"/>
<stop offset="0.28" stop-color="#93FDFD"/>
<stop offset="0.45" stop-color="#8AF8F8"/>
<stop offset="0.6" stop-color="#7CEEF1"/>
<stop offset="0.73" stop-color="#67E2E5"/>
<stop offset="0.85" stop-color="#4CD1D7"/>
<stop offset="0.96" stop-color="#2CBDC5"/>
<stop offset="1" stop-color="#1EB4BE"/>
</linearGradient>
<linearGradient id="paint1_linear_372_2876" x1="35.4453" y1="14.3987" x2="35.4453" y2="37.0389" gradientUnits="userSpaceOnUse">
<stop stop-color="#96FFFF"/>
<stop offset="0.28" stop-color="#93FDFD"/>
<stop offset="0.45" stop-color="#8AF8F8"/>
<stop offset="0.6" stop-color="#7CEEF1"/>
<stop offset="0.73" stop-color="#67E2E5"/>
<stop offset="0.85" stop-color="#4CD1D7"/>
<stop offset="0.96" stop-color="#2CBDC5"/>
<stop offset="1" stop-color="#1EB4BE"/>
</linearGradient>
<linearGradient id="paint2_linear_372_2876" x1="21.9281" y1="45.4407" x2="18.9561" y2="53.6793" gradientUnits="userSpaceOnUse">
<stop stop-color="#96FFFF"/>
<stop offset="0.28" stop-color="#93FDFD"/>
<stop offset="0.45" stop-color="#8AF8F8"/>
<stop offset="0.6" stop-color="#7CEEF1"/>
<stop offset="0.73" stop-color="#67E2E5"/>
<stop offset="0.85" stop-color="#4CD1D7"/>
<stop offset="0.96" stop-color="#2CBDC5"/>
<stop offset="1" stop-color="#1EB4BE"/>
</linearGradient>
<linearGradient id="paint3_linear_372_2876" x1="49.5787" y1="45.4408" x2="46.6066" y2="53.6794" gradientUnits="userSpaceOnUse">
<stop stop-color="#96FFFF"/>
<stop offset="0.28" stop-color="#93FDFD"/>
<stop offset="0.45" stop-color="#8AF8F8"/>
<stop offset="0.6" stop-color="#7CEEF1"/>
<stop offset="0.73" stop-color="#67E2E5"/>
<stop offset="0.85" stop-color="#4CD1D7"/>
<stop offset="0.96" stop-color="#2CBDC5"/>
<stop offset="1" stop-color="#1EB4BE"/>
</linearGradient>
<radialGradient id="paint4_radial_372_2876" cx="0" cy="0" r="1" gradientUnits="userSpaceOnUse" gradientTransform="translate(37.725 45.184) scale(9.18938 9.10804)">
<stop stop-color="#FFF200"/>
<stop offset="0.32" stop-color="#FFED00"/>
<stop offset="0.66" stop-color="#FFE000"/>
<stop offset="1" stop-color="#FFCC00"/>
</radialGradient>
<linearGradient id="paint5_linear_372_2876" x1="17.7506" y1="7.89714" x2="17.7506" y2="25.178" gradientUnits="userSpaceOnUse">
<stop stop-color="#96FFFF"/>
<stop offset="0.28" stop-color="#93FDFD"/>
<stop offset="0.45" stop-color="#8AF8F8"/>
<stop offset="0.6" stop-color="#7CEEF1"/>
<stop offset="0.73" stop-color="#67E2E5"/>
<stop offset="0.85" stop-color="#4CD1D7"/>
<stop offset="0.96" stop-color="#2CBDC5"/>
<stop offset="1" stop-color="#1EB4BE"/>
</linearGradient>
<linearGradient id="paint6_linear_372_2876" x1="17.7506" y1="7.89714" x2="17.7506" y2="25.178" gradientUnits="userSpaceOnUse">
<stop stop-color="#96FFFF"/>
<stop offset="0.28" stop-color="#93FDFD"/>
<stop offset="0.45" stop-color="#8AF8F8"/>
<stop offset="0.6" stop-color="#7CEEF1"/>
<stop offset="0.73" stop-color="#67E2E5"/>
<stop offset="0.85" stop-color="#4CD1D7"/>
<stop offset="0.96" stop-color="#2CBDC5"/>
<stop offset="1" stop-color="#1EB4BE"/>
</linearGradient>
</defs>
</svg>
