<svg width="78" height="85" viewBox="0 0 78 85" fill="none" xmlns="http://www.w3.org/2000/svg">
<g clip-path="url(#clip0_372_2934)">
<g style="mix-blend-mode:multiply">
<path d="M62.4629 68.2938C76.5065 54.2501 76.5065 31.4808 62.4629 17.4372C48.4192 3.3935 25.6499 3.39351 11.6063 17.4372C-2.43741 31.4808 -2.43741 54.2501 11.6063 68.2938C25.6499 82.3375 48.4192 82.3375 62.4629 68.2938Z" fill="white"/>
<path d="M37.0345 78.5792C56.758 78.5792 72.7471 62.5901 72.7471 42.8666C72.7471 23.1431 56.758 7.15405 37.0345 7.15405C17.311 7.15405 1.32195 23.1431 1.32195 42.8666C1.32195 62.5901 17.311 78.5792 37.0345 78.5792Z" fill="#FFFEF7"/>
<path d="M62.1115 67.9424C75.9611 54.0928 75.9611 31.6382 62.1115 17.7886C48.2619 3.939 25.8073 3.939 11.9577 17.7886C-1.89191 31.6382 -1.89191 54.0928 11.9577 67.9424C25.8073 81.792 48.2619 81.792 62.1115 67.9424Z" fill="#FFFDEF"/>
<path d="M37.0345 78.0797C56.4822 78.0797 72.2476 62.3142 72.2476 42.8666C72.2476 23.4189 56.4822 7.65344 37.0345 7.65344C17.5869 7.65344 1.82141 23.4189 1.82141 42.8666C1.82141 62.3142 17.5869 78.0797 37.0345 78.0797Z" fill="#FFFCE6"/>
<path d="M61.7583 67.5892C75.4128 53.9347 75.4128 31.7963 61.7583 18.1418C48.1037 4.48722 25.9654 4.48722 12.3108 18.1418C-1.3437 31.7963 -1.3437 53.9347 12.3108 67.5892C25.9654 81.2437 48.1037 81.2437 61.7583 67.5892Z" fill="#FFFBDE"/>
<path d="M37.0345 77.5827C56.2077 77.5827 71.7507 62.0397 71.7507 42.8665C71.7507 23.6933 56.2077 8.15039 37.0345 8.15039C17.8613 8.15039 2.31839 23.6933 2.31839 42.8665C2.31839 62.0397 17.8613 77.5827 37.0345 77.5827Z" fill="#FFFAD6"/>
<path d="M61.4069 67.2378C74.8673 53.7773 74.8673 31.9536 61.4069 18.4932C47.9464 5.03271 26.1227 5.03271 12.6623 18.4932C-0.798198 31.9536 -0.798198 53.7773 12.6623 67.2378C26.1227 80.6982 47.9464 80.6982 61.4069 67.2378Z" fill="#FFF9CE"/>
<path d="M37.0345 77.0858C55.9332 77.0858 71.2537 61.7653 71.2537 42.8666C71.2537 23.9679 55.9332 8.64746 37.0345 8.64746C18.1358 8.64746 2.81535 23.9679 2.81535 42.8666C2.81535 61.7653 18.1358 77.0858 37.0345 77.0858Z" fill="#FFF8C5"/>
<path d="M61.0555 66.8864C74.3218 53.62 74.3218 32.111 61.0555 18.8446C47.7891 5.5782 26.28 5.57821 13.0137 18.8446C-0.252713 32.111 -0.252713 53.62 13.0137 66.8864C26.28 80.1527 47.7891 80.1528 61.0555 66.8864Z" fill="#FFF8BD"/>
<path d="M37.0345 76.5863C55.6574 76.5863 70.7542 61.4894 70.7542 42.8666C70.7542 24.2437 55.6574 9.14685 37.0345 9.14685C18.4116 9.14685 3.31482 24.2437 3.31482 42.8666C3.31482 61.4894 18.4116 76.5863 37.0345 76.5863Z" fill="#FFF7B5"/>
<path d="M60.7023 66.5332C73.7736 53.4619 73.7736 32.2691 60.7023 19.1978C47.631 6.12643 26.4382 6.12643 13.3668 19.1978C0.295513 32.2691 0.295513 53.4619 13.3668 66.5332C26.4382 79.6045 47.631 79.6045 60.7023 66.5332Z" fill="#FFF6AD"/>
<path d="M37.0345 76.0893C55.3829 76.0893 70.2572 61.2149 70.2572 42.8665C70.2572 24.5181 55.3829 9.6438 37.0345 9.6438C18.6861 9.6438 3.81178 24.5181 3.81178 42.8665C3.81178 61.2149 18.6861 76.0893 37.0345 76.0893Z" fill="#FFF5A5"/>
<path d="M37.0345 75.8408C55.2457 75.8408 70.0088 61.0777 70.0088 42.8666C70.0088 24.6554 55.2457 9.89233 37.0345 9.89233C18.8233 9.89233 4.06027 24.6554 4.06027 42.8666C4.06027 61.0777 18.8233 75.8408 37.0345 75.8408Z" fill="#FFF49C"/>
<path d="M60.1752 67.0061C72.9554 54.2259 72.9554 33.5051 60.1752 20.7249C47.395 7.94467 26.6742 7.94467 13.894 20.7249C1.11376 33.5051 1.11376 54.2259 13.894 67.0061C26.6742 79.7863 47.395 79.7863 60.1752 67.0061Z" fill="#FFF394"/>
<path d="M37.0345 75.3414C54.9698 75.3414 69.5093 60.802 69.5093 42.8666C69.5093 24.9313 54.9698 10.3918 37.0345 10.3918C19.0992 10.3918 4.55974 24.9313 4.55974 42.8666C4.55974 60.802 19.0992 75.3414 37.0345 75.3414Z" fill="#FFF28C"/>
<path d="M59.822 65.6529C72.4072 53.0678 72.4072 32.6632 59.822 20.078C47.2369 7.49289 26.8323 7.4929 14.2471 20.078C1.66198 32.6632 1.66198 53.0678 14.2471 65.6529C26.8323 78.2381 47.2368 78.2381 59.822 65.6529Z" fill="#FFF184"/>
<path d="M37.0345 74.8444C54.6954 74.8444 69.0123 60.5275 69.0123 42.8666C69.0123 25.2057 54.6954 10.8888 37.0345 10.8888C19.3737 10.8888 5.0567 25.2057 5.0567 42.8666C5.0567 60.5275 19.3737 74.8444 37.0345 74.8444Z" fill="#FFF07B"/>
<path d="M59.4706 65.3015C71.8617 52.9104 71.8617 32.8205 59.4706 20.4295C47.0795 8.03839 26.9896 8.03839 14.5985 20.4295C2.20747 32.8205 2.20747 52.9104 14.5985 65.3015C26.9896 77.6926 47.0795 77.6926 59.4706 65.3015Z" fill="#FFEF73"/>
<path d="M37.0345 74.3474C54.4209 74.3474 68.5154 60.253 68.5154 42.8666C68.5154 25.4802 54.4209 11.3857 37.0345 11.3857C19.6481 11.3857 5.55368 25.4802 5.55368 42.8666C5.55368 60.253 19.6481 74.3474 37.0345 74.3474Z" fill="#FFEE6B"/>
<path d="M59.1192 64.9501C71.3162 52.7531 71.3162 32.9779 59.1192 20.7809C46.9222 8.58388 27.147 8.58388 14.95 20.7809C2.75297 32.9779 2.75297 52.7531 14.95 64.9501C27.147 77.1471 46.9222 77.1471 59.1192 64.9501Z" fill="#FFED63"/>
<path d="M37.0345 73.848C54.1451 73.848 68.0159 59.9772 68.0159 42.8666C68.0159 25.7561 54.1451 11.8853 37.0345 11.8853C19.924 11.8853 6.05315 25.7561 6.05315 42.8666C6.05315 59.9772 19.924 73.848 37.0345 73.848Z" fill="#FFEC5A"/>
<path d="M58.766 64.5969C70.7679 52.595 70.7679 33.136 58.766 21.134C46.7641 9.1321 27.3051 9.1321 15.3031 21.134C3.30119 33.136 3.30119 52.595 15.3031 64.5969C27.3051 76.5989 46.7641 76.5989 58.766 64.5969Z" fill="#FFEB52"/>
<path d="M37.0345 73.351C53.8706 73.351 67.5189 59.7027 67.5189 42.8666C67.5189 26.0305 53.8706 12.3822 37.0345 12.3822C20.1984 12.3822 6.55011 26.0305 6.55011 42.8666C6.55011 59.7027 20.1984 73.351 37.0345 73.351Z" fill="#FFEA4A"/>
<path d="M58.4146 64.2455C70.2224 52.4376 70.2224 33.2933 58.4146 21.4855C46.6067 9.6776 27.4624 9.6776 15.6545 21.4855C3.84668 33.2933 3.84668 52.4376 15.6545 64.2455C27.4624 76.0534 46.6067 76.0534 58.4146 64.2455Z" fill="#FFE942"/>
<path d="M58.2389 64.0698C69.9497 52.359 69.9497 33.372 58.2389 21.6612C46.5281 9.95034 27.5411 9.95035 15.8303 21.6612C4.11944 33.372 4.11944 52.359 15.8303 64.0698C27.5411 75.7806 46.5281 75.7806 58.2389 64.0698Z" fill="#FFE93A"/>
<path d="M37.0345 72.603C53.4575 72.603 66.771 59.2896 66.771 42.8666C66.771 26.4436 53.4575 13.1301 37.0345 13.1301C20.6115 13.1301 7.29807 26.4436 7.29807 42.8666C7.29807 59.2896 20.6115 72.603 37.0345 72.603Z" fill="#FFE831"/>
<path d="M57.8857 63.7166C69.4015 52.2009 69.4015 33.5301 57.8857 22.0143C46.3699 10.4986 27.6992 10.4986 16.1834 22.0143C4.66765 33.5301 4.66765 52.2009 16.1834 63.7166C27.6992 75.2324 46.3699 75.2324 57.8857 63.7166Z" fill="#FFE729"/>
<path d="M37.0345 72.106C53.183 72.106 66.274 59.0151 66.274 42.8666C66.274 26.718 53.183 13.6271 37.0345 13.6271C20.886 13.6271 7.79504 26.718 7.79504 42.8666C7.79504 59.0151 20.886 72.106 37.0345 72.106Z" fill="#FFE621"/>
<path d="M57.5343 63.3652C68.856 52.0435 68.856 33.6874 57.5343 22.3657C46.2126 11.0441 27.8565 11.0441 16.5348 22.3657C5.21315 33.6874 5.21315 52.0435 16.5348 63.3652C27.8565 74.6869 46.2126 74.6869 57.5343 63.3652Z" fill="#FFE519"/>
<path d="M37.0345 71.609C52.9086 71.609 65.777 58.7406 65.777 42.8665C65.777 26.9925 52.9086 14.124 37.0345 14.124C21.1605 14.124 8.29201 26.9925 8.29201 42.8665C8.29201 58.7406 21.1605 71.609 37.0345 71.609Z" fill="#FFE410"/>
<path d="M57.1811 63.012C68.3078 51.8854 68.3078 33.8456 57.1811 22.7189C46.0545 11.5923 28.0146 11.5923 16.888 22.7189C5.76137 33.8456 5.76138 51.8854 16.888 63.012C28.0146 74.1387 46.0545 74.1387 57.1811 63.012Z" fill="#FFE308"/>
<path d="M37.0345 71.1096C52.6327 71.1096 65.2776 58.4648 65.2776 42.8666C65.2776 27.2684 52.6327 14.6235 37.0345 14.6235C21.4363 14.6235 8.79147 27.2684 8.79147 42.8666C8.79147 58.4648 21.4363 71.1096 37.0345 71.1096Z" fill="#FFE200"/>
</g>
<path d="M37.0345 71.1096C52.6327 71.1096 65.2776 58.4648 65.2776 42.8666C65.2776 27.2684 52.6327 14.6235 37.0345 14.6235C21.4363 14.6235 8.79147 27.2684 8.79147 42.8666C8.79147 58.4648 21.4363 71.1096 37.0345 71.1096Z" fill="url(#paint0_radial_372_2934)"/>
</g>
<defs>
<radialGradient id="paint0_radial_372_2934" cx="0" cy="0" r="1" gradientUnits="userSpaceOnUse" gradientTransform="translate(16.3206 16.6835) scale(28.9885)">
<stop stop-color="white"/>
<stop offset="0.11" stop-color="#FFFEFA"/>
<stop offset="0.24" stop-color="#FFFEED"/>
<stop offset="0.37" stop-color="#FFFCD7"/>
<stop offset="0.5" stop-color="#FFFBB8"/>
<stop offset="0.64" stop-color="#FFF990"/>
<stop offset="0.78" stop-color="#FFF65F"/>
<stop offset="0.91" stop-color="#FFF427"/>
<stop offset="1" stop-color="#FFF200"/>
</radialGradient>
<clipPath id="clip0_372_2934">
<rect width="77.7168" height="85" fill="white"/>
</clipPath>
</defs>
</svg>
