<svg width="58" height="59" viewBox="0 0 58 59" fill="none" xmlns="http://www.w3.org/2000/svg">
<path d="M37.3329 14.4401C35.5548 13.4887 33.4813 13.3247 31.5921 13.9777L19.1295 17.4118C17.1625 17.8215 15.4465 19.0297 14.3692 20.7679C13.4441 22.5965 13.2846 24.7288 13.9231 26.6854L17.2624 39.5018C17.6608 41.5246 18.8356 43.2893 20.5258 44.3972C22.3039 45.3485 24.3774 45.5125 26.28 44.8559L38.7426 41.4217C40.6962 41.0157 42.4256 39.8039 43.5029 38.0657C44.4146 36.2408 44.5875 34.1047 43.949 32.1481L40.6096 19.3318C40.198 17.3127 39.0231 15.548 37.3329 14.4401Z" fill="url(#paint0_linear)"/>
<g opacity="0.5" filter="url(#filter0_f)">
<path d="M31.0411 18.052L21.6427 20.748C18.2336 21.7259 16.7384 24.1003 17.5773 27.1931L20.4185 37.6682C21.2711 40.8118 23.7346 42.0069 27.1436 41.0289L36.542 38.3329C40.006 37.3393 41.4562 35.0215 40.6036 31.878L37.7624 21.4029C36.9235 18.31 34.5051 17.0583 31.0411 18.052Z" fill="#30AD31"/>
</g>
<g filter="url(#filter1_b)">
<path d="M49.9437 23.1623C48.3371 21.6491 46.205 20.877 44.0428 21.016H30.0186C27.8414 20.877 25.7093 21.6491 24.1026 23.1623C22.6312 24.8146 21.8804 27.0072 22.0155 29.2462V43.6685C21.8804 45.9075 22.6312 48.1002 24.1026 49.7524C25.7093 51.2656 27.8414 52.0377 30.0186 51.8987H44.0428C46.205 52.0377 48.3521 51.2656 49.9588 49.7524C51.4152 48.1002 52.181 45.9075 52.0459 43.6685V29.2462C52.166 27.0072 51.4152 24.8146 49.9437 23.1623Z" fill="#8EF27D" fill-opacity="0.35"/>
<path d="M50.1304 22.9961C50.1256 22.9906 50.1205 22.9854 50.1152 22.9803C48.4608 21.4222 46.2644 20.6249 44.0348 20.766H30.0265C27.7823 20.625 25.5858 21.422 23.9312 22.9803C23.9259 22.9854 23.9208 22.9906 23.9159 22.9961C22.4011 24.697 21.6286 26.9522 21.7655 29.2537V43.661C21.6286 45.9626 22.4011 48.2177 23.9159 49.9187C23.9208 49.9241 23.9259 49.9294 23.9312 49.9344C25.5858 51.4927 27.7823 52.2898 30.0265 52.1487H44.0348C46.264 52.2898 48.4755 51.4928 50.1302 49.9344C50.1358 49.9291 50.1412 49.9235 50.1463 49.9177C51.6446 48.218 52.4328 45.9636 52.2959 43.661V29.2529C52.4176 26.9522 51.6455 24.6972 50.1304 22.9961Z" stroke="url(#paint1_linear)" stroke-width="0.5" stroke-linecap="round" stroke-linejoin="round"/>
</g>
<path fill-rule="evenodd" clip-rule="evenodd" d="M39.4606 34.4005C38.6178 35.2435 37.5864 35.6707 36.3952 35.6707C35.2043 35.6707 34.1729 35.2433 33.33 34.4007C32.4871 33.5579 32.0597 32.5265 32.0597 31.3352C32.0597 30.1441 32.4871 29.1128 33.3298 28.27C34.1726 27.4272 35.2038 27 36.3952 27C37.5862 27 38.6176 27.4272 39.4605 28.2699C40.3034 29.1129 40.7307 30.1443 40.7307 31.3352C40.7307 32.5265 40.3034 33.5577 39.4606 34.4005ZM43.8353 39.7038C43.9076 40.1078 43.9568 40.4904 43.9811 40.8411C44.0051 41.1839 44.0173 41.5417 44.0175 41.9043C44.0175 42.8444 43.7188 43.6052 43.1297 44.1657C42.5478 44.7195 41.7783 45.0002 40.8423 45.0002H32.1752C31.2392 45.0002 30.4694 44.7193 29.8877 44.1657C29.2987 43.6048 29 42.8441 29 41.9045C29 41.5434 29.0121 41.186 29.036 40.8416C29.0603 40.49 29.1095 40.1073 29.1818 39.7038C29.2549 39.2967 29.349 38.9121 29.4614 38.5604C29.5779 38.1966 29.7361 37.8378 29.9315 37.4937C30.1342 37.1368 30.3727 36.826 30.6401 36.5701C30.9201 36.3021 31.2628 36.0869 31.6586 35.9303C32.0531 35.774 32.4904 35.6947 32.9584 35.6947C33.1421 35.6947 33.32 35.7701 33.6627 35.9936C33.8771 36.1332 34.1243 36.2925 34.3974 36.4671C34.633 36.6173 34.9524 36.7581 35.3465 36.8854C35.7319 37.0099 36.1226 37.0731 36.5083 37.0731C36.8941 37.0731 37.2849 37.0099 37.6699 36.8854C38.0644 36.7579 38.3838 36.6172 38.6196 36.4669C38.8954 36.2907 39.1424 36.1314 39.3537 35.9937C39.6968 35.7703 39.8745 35.6949 40.0583 35.6949C40.5262 35.6949 40.9636 35.774 41.3582 35.9301C41.7543 36.0871 42.0968 36.3023 42.3765 36.5699C42.6441 36.8258 42.8825 37.1367 43.0854 37.4937C43.281 37.8378 43.4392 38.1967 43.5555 38.5602C43.6681 38.9119 43.7622 39.2967 43.8353 39.7038Z" fill="url(#paint2_linear)"/>
<defs>
<filter id="filter0_f" x="0.569365" y="0.938383" width="57.0521" height="57.2025" filterUnits="userSpaceOnUse" color-interpolation-filters="sRGB">
<feFlood flood-opacity="0" result="BackgroundImageFix"/>
<feBlend mode="normal" in="SourceGraphic" in2="BackgroundImageFix" result="shape"/>
<feGaussianBlur stdDeviation="8.38963" result="effect1_foregroundBlur"/>
</filter>
<filter id="filter1_b" x="13.5" y="12.5" width="47.0612" height="47.9147" filterUnits="userSpaceOnUse" color-interpolation-filters="sRGB">
<feFlood flood-opacity="0" result="BackgroundImageFix"/>
<feGaussianBlur in="BackgroundImage" stdDeviation="4"/>
<feComposite in2="SourceAlpha" operator="in" result="effect1_backgroundBlur"/>
<feBlend mode="normal" in="SourceGraphic" in2="effect1_backgroundBlur" result="shape"/>
</filter>
<linearGradient id="paint0_linear" x1="23" y1="16.9999" x2="27.8668" y2="43.7955" gradientUnits="userSpaceOnUse">
<stop stop-color="#ADFF7A"/>
<stop offset="1" stop-color="#1BAE56"/>
</linearGradient>
<linearGradient id="paint1_linear" x1="26.7852" y1="24.6016" x2="46.6148" y2="48.4829" gradientUnits="userSpaceOnUse">
<stop stop-color="white" stop-opacity="0.25"/>
<stop offset="1" stop-color="white" stop-opacity="0"/>
</linearGradient>
<linearGradient id="paint2_linear" x1="44.5234" y1="31.5" x2="21.5234" y2="39.5" gradientUnits="userSpaceOnUse">
<stop stop-color="#179308"/>
<stop offset="1" stop-color="#179308" stop-opacity="0"/>
</linearGradient>
</defs>
</svg>
